SplineFontDB: 3.2
FontName: AnonymousProLHQwattash-Bold
FullName: Anonymous Pro Bold qwattash line height patch
FamilyName: AnonymousProLHQwattash
Weight: Bold
Copyright: Copyright (c) Mark Simonson 2009-2010. All rights reserved.
Version: 1.002
ItalicAngle: 0
UnderlinePosition: -248
UnderlineWidth: 123
Ascent: 1675
Descent: 473
InvalidEm: 0
sfntRevision: 0x00010083
LayerCount: 2
Layer: 0 1 "Back" 1
Layer: 1 1 "Fore" 0
XUID: [1021 424 447614775 16604764]
StyleMap: 0x0020
FSType: 0
OS2Version: 3
OS2_WeightWidthSlopeOnly: 0
OS2_UseTypoMetrics: 0
CreationTime: 1255118160
ModificationTime: 1573042259
PfmFamily: 17
TTFWeight: 700
TTFWidth: 5
LineGap: 0
VLineGap: 0
Panose: 2 6 8 9 3 2 2 0 5 4
OS2TypoAscent: 1675
OS2TypoAOffset: 0
OS2TypoDescent: -473
OS2TypoDOffset: 0
OS2TypoLinegap: 0
OS2WinAscent: 1675
OS2WinAOffset: 0
OS2WinDescent: 473
OS2WinDOffset: 0
HheadAscent: 1675
HheadAOffset: 0
HheadDescent: -473
HheadDOffset: 0
OS2SubXSize: 1434
OS2SubYSize: 1331
OS2SubXOff: 0
OS2SubYOff: 293
OS2SupXSize: 1434
OS2SupYSize: 1331
OS2SupXOff: 0
OS2SupYOff: 928
OS2StrikeYSize: 123
OS2StrikeYPos: 465
OS2CapHeight: 1305
OS2XHeight: 932
OS2FamilyClass: 1281
OS2Vendor: 'mlss'
OS2CodePages: 2000009f.00000000
OS2UnicodeRanges: a00002af.7000a9ca.00000000.00000000
MarkAttachClasses: 1
DEI: 91125
TtTable: prep
PUSHB_1
 0
CALL
SVTCA[y-axis]
PUSHB_3
 1
 8
 2
CALL
SVTCA[x-axis]
PUSHB_3
 9
 7
 2
CALL
SVTCA[x-axis]
PUSHB_8
 9
 66
 62
 46
 34
 23
 0
 8
CALL
PUSHB_8
 10
 83
 62
 60
 34
 23
 0
 8
CALL
PUSHB_8
 11
 103
 84
 60
 47
 23
 0
 8
CALL
PUSHB_8
 12
 76
 62
 46
 34
 23
 0
 8
CALL
PUSHB_8
 13
 55
 49
 38
 27
 17
 0
 8
CALL
PUSHB_8
 14
 61
 49
 38
 27
 17
 0
 8
CALL
PUSHB_8
 15
 30
 25
 19
 14
 9
 0
 8
CALL
SVTCA[y-axis]
PUSHB_8
 1
 83
 62
 60
 34
 23
 0
 8
CALL
PUSHB_8
 2
 103
 84
 60
 47
 23
 0
 8
CALL
PUSHB_8
 3
 77
 62
 46
 34
 23
 0
 8
CALL
PUSHB_8
 4
 76
 62
 46
 34
 23
 0
 8
CALL
PUSHB_8
 5
 66
 62
 46
 34
 23
 0
 8
CALL
PUSHB_8
 6
 61
 49
 38
 27
 17
 0
 8
CALL
PUSHB_8
 7
 66
 49

StartChar: .notdef
Encoding: 65536 -1 0
Width: 1118
VWidth: 2048
Flags: W
LayerCount: 2
Fore
SplineSet
883 0 m 1,0,-1
 49 0 l 1,1,-1
 49 1305 l 1,2,-1
 883 1305 l 1,3,-1
 883 0 l 1,0,-1
256 186 m 1,4,-1
 676 186 l 1,5,-1
 676 1118 l 1,6,-1
 256 1118 l 1,7,-1
 256 186 l 1,4,-1
EndSplineSet
EndChar

StartChar: numbersign
Encoding: 35 35 4
Width: 1118
VWidth: 2048
Flags: W
LayerCount: 2
Fore
SplineSet
932 187 m 1,0,-1
 745 187 l 1,1,-1
 745 1 l 1,2,-1
 559 1 l 1,3,-1
 559 187 l 1,4,-1
 373 187 l 1,5,-1
 373 1 l 1,6,-1
 186 1 l 1,7,-1
 186 187 l 1,8,-1
 0 187 l 1,9,-1
 0 373 l 1,10,-1
 186 373 l 1,11,-1
 186 560 l 1,12,-1
 0 560 l 1,13,-1
 0 746 l 1,14,-1
 186 746 l 1,15,-1
 186 933 l 1,16,-1
 373 933 l 1,17,-1
 373 746 l 1,18,-1
 559 746 l 1,19,-1
 559 933 l 1,20,-1
 745 933 l 1,21,-1
 745 746 l 1,22,-1
 932 746 l 1,23,-1
 932 560 l 1,24,-1
 745 560 l 1,25,-1
 745 373 l 1,26,-1
 932 373 l 1,27,-1
 932 187 l 1,0,-1
559 373 m 1,28,-1
 559 560 l 1,29,-1
 373 560 l 1,30,-1
 373 373 l 1,31,-1
 559 373 l 1,28,-1
EndSplineSet
EndChar

StartChar: dollar
Encoding: 36 36 5
Width: 1118
VWidth: 2048
Flags: W
LayerCount: 2
Fore
SplineSet
373 -16 m 1,0,1
 199 6 199 6 97.5 110.5 c 128,-1,2
 -4 215 -4 215 -20 373 c 1,3,-1
 172 403 l 1,4,5
 209 211 209 211 373 172 c 1,6,-1
 373 610 l 1,7,8
 307 637 307 637 243.5 667.5 c 128,-1,9
 180 698 180 698 131 743 c 128,-1,10
 82 788 82 788 52.5 848.5 c 128,-1,11
 23 909 23 909 23 993 c 0,12,13
 23 1120 23 1120 115 1210 c 128,-1,14
 207 1300 207 1300 373 1321 c 1,15,-1
 373 1491 l 1,16,-1
 559 1491 l 1,17,-1
 559 1317 l 1,18,19
 639 1303 639 1303 702.5 1268 c 128,-1,20
 766 1233 766 1233 811 1183 c 128,-1,21
 856 1133 856 1133 881.5 1070.5 c 128,-1,22
 907 1008 907 1008 911 940 c 1,23,-1
 717 918 l 1,24,25
 694 1083 694 1083 559 1126 c 1,26,-1
 559 752 l 1,27,28
 627 725 627 725 693.5 692 c 128,-1,29
 760 659 760 659 812 611 c 128,-1,30
 864 563 864 563 897 497.5 c 128,-1,31
 930 432 930 432 930 340 c 0,32,33
 930 274 930 274 904.5 215 c 128,-1,34
 879 156 879 156 831.5 107.5 c 128,-1,35
 784 59 784 59 715.5 27.5 c 128,-1,36
 647 -4 647 -4 559 -16 c 1,37,-1
 559 -186 l 1,38,-1
 373 -186 l 1,39,-1
 373 -16 l 1,0,1
723 340 m 256,40,41
 723 412 723 412 677 456 c 128,-1,42
 631 500 631 500 559 535 c 1,43,-1
 559 172 l 1,44,45
 635 186 635 186 679 227 c 128,-1,46
 723 268 723 268 723 340 c 256,40,41
229 995 m 0,47,48
 229 936 229 936 269 897 c 128,-1,49
 309 858 309 858 373 827 c 1,50,-1
 373 1133 l 1,51,52
 305 1120 305 1120 267 1086.5 c 128,-1,53
 229 1053 229 1053 229 995 c 0,47,48
EndSplineSet
EndChar

StartChar: percent
Encoding: 37 37 6
Width: 1118
VWidth: 2048
Flags: W
LayerCount: 2
Fore
SplineSet
954 1257 m 1,0,-1
 119 -41 l 1,1,-1
 -18 47 l 1,2,-1
 819 1350 l 1,3,-1
 954 1257 l 1,0,-1
-25 1073 m 0,4,5
 -25 1124 -25 1124 -4.5 1171.5 c 128,-1,6
 16 1219 16 1219 50 1252.5 c 128,-1,7
 84 1286 84 1286 130 1306.5 c 128,-1,8
 176 1327 176 1327 229 1327 c 0,9,10
 281 1327 281 1327 328 1306.5 c 128,-1,11
 375 1286 375 1286 408.5 1252.5 c 128,-1,12
 442 1219 442 1219 462.5 1171.5 c 128,-1,13
 483 1124 483 1124 483 1073 c 0,14,15
 483 1020 483 1020 462.5 974 c 128,-1,16
 442 928 442 928 408.5 894 c 128,-1,17
 375 860 375 860 328 839.5 c 128,-1,18
 281 819 281 819 229 819 c 0,19,20
 176 819 176 819 130 839.5 c 128,-1,21
 84 860 84 860 50 894 c 128,-1,22
 16 928 16 928 -4.5 974 c 128,-1,23
 -25 1020 -25 1020 -25 1073 c 0,4,5
125 1075 m 256,24,25
 125 1032 125 1032 155.5 1001.5 c 128,-1,26
 186 971 186 971 229 971 c 256,27,28
 272 971 272 971 303 1001.5 c 128,-1,29
 334 1032 334 1032 334 1075 c 256,30,31
 334 1118 334 1118 303 1149 c 128,-1,32
 272 1180 272 1180 229 1180 c 256,33,34
 186 1180 186 1180 155.5 1149 c 128,-1,35
 125 1118 125 1118 125 1075 c 256,24,25
453 231 m 0,36,37
 453 283 453 283 473.5 330 c 128,-1,38
 494 377 494 377 527.5 410.5 c 128,-1,39
 561 444 561 444 607 464.5 c 128,-1,40
 653 485 653 485 707 485 c 0,41,42
 758 485 758 485 805 464.5 c 128,-1,43
 852 444 852 444 886 410.5 c 128,-1,44
 920 377 920 377 940.5 330 c 128,-1,45
 961 283 961 283 961 231 c 0,46,47
 961 178 961 178 940.5 132 c 128,-1,48
 920 86 920 86 886 52 c 128,-1,49
 852 18 852 18 805 -2.5 c 128,-1,50
 758 -23 758 -23 707 -23 c 0,51,52
 653 -23 653 -23 607 -2.5 c 128,-1,53
 561 18 561 18 527.5 52 c 128,-1,54
 494 86 494 86 473.5 132 c 128,-1,55
 453 178 453 178 453 231 c 0,36,37
602 233 m 256,56,57
 602 190 602 190 633 159.5 c 128,-1,58
 664 129 664 129 707 129 c 256,59,60
 750 129 750 129 780.5 159.5 c 128,-1,61
 811 190 811 190 811 233 c 256,62,63
 811 276 811 276 780.5 307 c 128,-1,64
 750 338 750 338 707 338 c 256,65,66
 664 338 664 338 633 307 c 128,-1,67
 602 276 602 276 602 233 c 256,56,57
EndSplineSet
EndChar

StartChar: ampersand
Encoding: 38 38 7
Width: 1118
VWidth: 2048
Flags: W
LayerCount: 2
Fore
SplineSet
956 565 m 1,0,1
 940 492 940 492 910.5 415 c 128,-1,2
 881 338 881 338 834 266 c 1,3,-1
 991 121 l 1,4,-1
 862 -27 l 1,5,-1
 713 119 l 1,6,7
 641 53 641 53 555 15 c 128,-1,8
 469 -23 469 -23 365 -23 c 0,9,10
 283 -23 283 -23 211 5 c 128,-1,11
 139 33 139 33 87 81 c 128,-1,12
 35 129 35 129 5 193.5 c 128,-1,13
 -25 258 -25 258 -25 334 c 0,14,15
 -25 465 -25 465 23.5 548 c 128,-1,16
 72 631 72 631 139 690 c 1,17,18
 82 762 82 762 51 834.5 c 128,-1,19
 20 907 20 907 20 991 c 0,20,21
 20 1067 20 1067 47 1129.5 c 128,-1,22
 74 1192 74 1192 118 1236 c 128,-1,23
 162 1280 162 1280 221.5 1303.5 c 128,-1,24
 281 1327 281 1327 348 1327 c 0,25,26
 416 1327 416 1327 475.5 1306.5 c 128,-1,27
 535 1286 535 1286 579 1248 c 128,-1,28
 623 1210 623 1210 647.5 1156 c 128,-1,29
 672 1102 672 1102 672 1032 c 0,30,31
 672 965 672 965 648.5 911.5 c 128,-1,32
 625 858 625 858 587 815 c 128,-1,33
 549 772 549 772 502 736 c 128,-1,34
 455 700 455 700 408 668 c 1,35,-1
 692 399 l 1,36,37
 717 449 717 449 735.5 503 c 128,-1,38
 754 557 754 557 768 612 c 1,39,-1
 956 565 l 1,0,1
379 164 m 0,40,41
 438 164 438 164 488.5 186.5 c 128,-1,42
 539 209 539 209 582 248 c 1,43,-1
 268 553 l 1,44,-1
 266 553 l 1,45,46
 229 514 229 514 205.5 466 c 128,-1,47
 182 418 182 418 182 358 c 0,48,49
 182 272 182 272 238.5 218 c 128,-1,50
 295 164 295 164 379 164 c 0,40,41
227 991 m 0,51,52
 227 936 227 936 237.5 892 c 128,-1,53
 248 848 248 848 285 797 c 1,54,55
 322 821 322 821 354.5 845.5 c 128,-1,56
 387 870 387 870 411.5 899 c 128,-1,57
 436 928 436 928 450.5 961.5 c 128,-1,58
 465 995 465 995 465 1036 c 0,59,60
 465 1083 465 1083 433 1112 c 128,-1,61
 401 1141 401 1141 356 1141 c 0,62,63
 297 1141 297 1141 262 1098 c 128,-1,64
 227 1055 227 1055 227 991 c 0,51,52
EndSplineSet
EndChar

StartChar: quotesingle
Encoding: 39 39 8
Width: 1118
VWidth: 2048
Flags: W
LayerCount: 2
Fore
SplineSet
590 1305 m 1,0,-1
 545 805 l 1,1,-1
 387 805 l 1,2,-1
 342 1305 l 1,3,-1
 590 1305 l 1,0,-1
EndSplineSet
EndChar

StartChar: parenleft
Encoding: 40 40 9
Width: 1118
VWidth: 2048
Flags: W
LayerCount: 2
Fore
SplineSet
375 567 m 0,0,1
 375 453 375 453 400.5 339 c 128,-1,2
 426 225 426 225 475 120.5 c 128,-1,3
 524 16 524 16 596 -77 c 128,-1,4
 668 -170 668 -170 760 -242 c 1,5,-1
 633 -369 l 1,6,7
 526 -285 526 -285 443 -178.5 c 128,-1,8
 360 -72 360 -72 304 49 c 128,-1,9
 248 170 248 170 218 301 c 128,-1,10
 188 432 188 432 188 567 c 256,11,12
 188 702 188 702 218 833.5 c 128,-1,13
 248 965 248 965 304 1085.5 c 128,-1,14
 360 1206 360 1206 443 1312.5 c 128,-1,15
 526 1419 526 1419 633 1503 c 1,16,-1
 760 1376 l 1,17,18
 668 1305 668 1305 596 1211.5 c 128,-1,19
 524 1118 524 1118 475 1013.5 c 128,-1,20
 426 909 426 909 400.5 795.5 c 128,-1,21
 375 682 375 682 375 567 c 0,0,1
EndSplineSet
EndChar

StartChar: parenright
Encoding: 41 41 10
Width: 1118
VWidth: 2048
Flags: W
LayerCount: 2
Fore
SplineSet
561 565 m 0,0,1
 561 680 561 680 535.5 793.5 c 128,-1,2
 510 907 510 907 461 1011.5 c 128,-1,3
 412 1116 412 1116 340 1209.5 c 128,-1,4
 268 1303 268 1303 176 1374 c 1,5,-1
 303 1501 l 1,6,7
 410 1417 410 1417 491.5 1310.5 c 128,-1,8
 573 1204 573 1204 630.5 1083.5 c 128,-1,9
 688 963 688 963 718 831.5 c 128,-1,10
 748 700 748 700 748 565 c 256,11,12
 748 430 748 430 718 299 c 128,-1,13
 688 168 688 168 630.5 47 c 128,-1,14
 573 -74 573 -74 491.5 -180.5 c 128,-1,15
 410 -287 410 -287 303 -371 c 1,16,-1
 176 -244 l 1,17,18
 268 -172 268 -172 340 -79 c 128,-1,19
 412 14 412 14 461 118.5 c 128,-1,20
 510 223 510 223 535.5 337 c 128,-1,21
 561 451 561 451 561 565 c 0,0,1
EndSplineSet
EndChar

StartChar: asterisk
Encoding: 42 42 11
Width: 1118
VWidth: 2048
Flags: W
LayerCount: 2
Fore
SplineSet
537 591 m 1,0,-1
 819 787 l 1,1,-1
 918 613 l 1,2,-1
 608 466 l 1,3,-1
 918 320 l 1,4,-1
 819 146 l 1,5,-1
 537 343 l 1,6,-1
 565 1 l 1,7,-1
 367 1 l 1,8,-1
 395 343 l 1,9,-1
 113 146 l 1,10,-1
 14 320 l 1,11,-1
 324 466 l 1,12,-1
 14 613 l 1,13,-1
 113 787 l 1,14,-1
 395 591 l 1,15,-1
 367 933 l 1,16,-1
 565 933 l 1,17,-1
 537 591 l 1,0,-1
EndSplineSet
EndChar

StartChar: plus
Encoding: 43 43 12
Width: 1118
VWidth: 2048
Flags: W
LayerCount: 2
Fore
SplineSet
932 385 m 1,0,-1
 559 385 l 1,1,-1
 559 13 l 1,2,-1
 373 13 l 1,3,-1
 373 385 l 1,4,-1
 0 385 l 1,5,-1
 0 572 l 1,6,-1
 373 572 l 1,7,-1
 373 944 l 1,8,-1
 559 944 l 1,9,-1
 559 572 l 1,10,-1
 932 572 l 1,11,-1
 932 385 l 1,0,-1
EndSplineSet
EndChar

StartChar: comma
Encoding: 44 44 13
Width: 1118
VWidth: 2048
Flags: W
LayerCount: 2
Fore
SplineSet
641 187 m 1,0,-1
 367 -372 l 1,1,-1
 209 -372 l 1,2,-1
 395 187 l 1,3,-1
 641 187 l 1,0,-1
EndSplineSet
EndChar

StartChar: hyphen
Encoding: 45 45 14
Width: 1118
VWidth: 2048
Flags: W
LayerCount: 2
Fore
SplineSet
0 385 m 1,0,-1
 0 571 l 1,1,-1
 932 571 l 1,2,-1
 932 385 l 1,3,-1
 0 385 l 1,0,-1
EndSplineSet
EndChar

StartChar: period
Encoding: 46 46 15
Width: 1118
VWidth: 2048
Flags: W
LayerCount: 2
Fore
SplineSet
592 0 m 1,0,-1
 340 0 l 1,1,-1
 340 252 l 1,2,-1
 592 252 l 1,3,-1
 592 0 l 1,0,-1
EndSplineSet
EndChar

StartChar: slash
Encoding: 47 47 16
Width: 1118
VWidth: 2048
Flags: W
LayerCount: 2
Fore
SplineSet
778 1366 m 1,0,-1
 932 1290 l 1,1,-1
 166 -252 l 1,2,-1
 12 -176 l 1,3,-1
 778 1366 l 1,0,-1
EndSplineSet
EndChar

StartChar: zero
Encoding: 48 48 17
Width: 1118
VWidth: 2048
Flags: W
LayerCount: 2
Fore
SplineSet
-33 653 m 256,0,1
 -33 784 -33 784 -5 906 c 128,-1,2
 23 1028 23 1028 82 1121 c 128,-1,3
 141 1214 141 1214 236.5 1270.5 c 128,-1,4
 332 1327 332 1327 467 1327 c 256,5,6
 602 1327 602 1327 697.5 1270.5 c 128,-1,7
 793 1214 793 1214 853 1121 c 128,-1,8
 913 1028 913 1028 940 906 c 128,-1,9
 967 784 967 784 967 653 c 256,10,11
 967 522 967 522 940 400.5 c 128,-1,12
 913 279 913 279 854 184.5 c 128,-1,13
 795 90 795 90 699.5 33.5 c 128,-1,14
 604 -23 604 -23 467 -23 c 256,15,16
 330 -23 330 -23 234.5 33.5 c 128,-1,17
 139 90 139 90 79.5 184.5 c 128,-1,18
 20 279 20 279 -6.5 400.5 c 128,-1,19
 -33 522 -33 522 -33 653 c 256,0,1
174 653 m 0,20,21
 174 561 174 561 186 475 c 1,22,-1
 698 989 l 1,23,24
 664 1057 664 1057 608.5 1099 c 128,-1,25
 553 1141 553 1141 467 1141 c 0,26,27
 324 1141 324 1141 249 1012 c 128,-1,28
 174 883 174 883 174 653 c 0,20,21
467 164 m 0,29,30
 555 164 555 164 611.5 207 c 128,-1,31
 668 250 668 250 700.5 319.5 c 128,-1,32
 733 389 733 389 746.5 477 c 128,-1,33
 760 565 760 565 760 653 c 0,34,35
 760 737 760 737 748 817 c 1,36,-1
 240 307 l 1,37,38
 274 242 274 242 327.5 203 c 128,-1,39
 381 164 381 164 467 164 c 0,29,30
EndSplineSet
EndChar

StartChar: one
Encoding: 49 49 18
Width: 1118
VWidth: 2048
Flags: W
LayerCount: 2
Fore
SplineSet
778 0 m 1,0,-1
 152 0 l 1,1,-1
 152 186 l 1,2,-1
 362 186 l 1,3,-1
 362 928 l 1,4,5
 348 879 348 879 313.5 841 c 128,-1,6
 279 803 279 803 230.5 777.5 c 128,-1,7
 182 752 182 752 122.5 738.5 c 128,-1,8
 63 725 63 725 0 725 c 1,9,-1
 0 932 l 1,10,11
 68 932 68 932 132.5 954.5 c 128,-1,12
 197 977 197 977 248 1023 c 128,-1,13
 299 1069 299 1069 330.5 1138.5 c 128,-1,14
 362 1208 362 1208 362 1305 c 1,15,-1
 569 1305 l 1,16,-1
 569 186 l 1,17,-1
 778 186 l 1,18,-1
 778 0 l 1,0,-1
EndSplineSet
EndChar

StartChar: two
Encoding: 50 50 19
Width: 1118
VWidth: 2048
Flags: W
LayerCount: 2
Fore
SplineSet
905 948 m 256,0,1
 905 856 905 856 856 760 c 128,-1,2
 807 664 807 664 721 578 c 2,3,-1
 313 186 l 1,4,-1
 696 186 l 1,5,-1
 696 365 l 1,6,-1
 883 365 l 1,7,-1
 883 0 l 1,8,-1
 43 0 l 1,9,-1
 43 195 l 1,10,-1
 569 698 l 2,11,12
 637 768 637 768 667.5 829.5 c 128,-1,13
 698 891 698 891 698 948 c 0,14,15
 698 999 698 999 678.5 1036 c 128,-1,16
 659 1073 659 1073 628.5 1096.5 c 128,-1,17
 598 1120 598 1120 559 1130.5 c 128,-1,18
 520 1141 520 1141 481 1141 c 0,19,20
 358 1141 358 1141 287.5 1069 c 128,-1,21
 217 997 217 997 217 856 c 1,22,-1
 23 856 l 1,23,24
 23 1077 23 1077 140.5 1202 c 128,-1,25
 258 1327 258 1327 481 1327 c 0,26,27
 565 1327 565 1327 642 1302.5 c 128,-1,28
 719 1278 719 1278 777.5 1231 c 128,-1,29
 836 1184 836 1184 870.5 1112 c 128,-1,30
 905 1040 905 1040 905 948 c 256,0,1
EndSplineSet
EndChar

StartChar: three
Encoding: 51 51 20
Width: 1118
VWidth: 2048
Flags: W
LayerCount: 2
Fore
SplineSet
920 354 m 0,0,1
 920 268 920 268 885 198.5 c 128,-1,2
 850 129 850 129 791.5 80 c 128,-1,3
 733 31 733 31 656.5 4 c 128,-1,4
 580 -23 580 -23 496 -23 c 0,5,6
 401 -23 401 -23 319.5 3 c 128,-1,7
 238 29 238 29 175.5 81 c 128,-1,8
 113 133 113 133 74 215 c 128,-1,9
 35 297 35 297 27 410 c 1,10,-1
 221 442 l 1,11,12
 231 313 231 313 305 238.5 c 128,-1,13
 379 164 379 164 496 164 c 0,14,15
 594 164 594 164 653.5 216 c 128,-1,16
 713 268 713 268 713 354 c 0,17,18
 713 471 713 471 637 521 c 128,-1,19
 561 571 561 571 371 571 c 1,20,-1
 371 758 l 1,21,22
 438 758 438 758 495.5 771 c 128,-1,23
 553 784 553 784 596 810 c 128,-1,24
 639 836 639 836 663.5 872.5 c 128,-1,25
 688 909 688 909 688 958 c 0,26,27
 688 1040 688 1040 639 1090.5 c 128,-1,28
 590 1141 590 1141 496 1141 c 0,29,30
 373 1141 373 1141 307.5 1074.5 c 128,-1,31
 242 1008 242 1008 242 862 c 1,32,-1
 45 862 l 1,33,34
 45 977 45 977 78 1064 c 128,-1,35
 111 1151 111 1151 170 1209.5 c 128,-1,36
 229 1268 229 1268 312 1297.5 c 128,-1,37
 395 1327 395 1327 496 1327 c 0,38,39
 580 1327 580 1327 652.5 1301.5 c 128,-1,40
 725 1276 725 1276 779.5 1228 c 128,-1,41
 834 1180 834 1180 864.5 1112 c 128,-1,42
 895 1044 895 1044 895 958 c 0,43,44
 895 903 895 903 877.5 854 c 128,-1,45
 860 805 860 805 827.5 767 c 128,-1,46
 795 729 795 729 746.5 705.5 c 128,-1,47
 698 682 698 682 639 678 c 1,48,49
 707 672 707 672 759 643 c 128,-1,50
 811 614 811 614 847 570 c 128,-1,51
 883 526 883 526 901.5 470 c 128,-1,52
 920 414 920 414 920 354 c 0,0,1
EndSplineSet
EndChar

StartChar: four
Encoding: 52 52 21
Width: 1118
VWidth: 2048
Flags: W
LayerCount: 2
Fore
SplineSet
932 0 m 1,0,-1
 305 0 l 1,1,-1
 305 186 l 1,2,-1
 514 186 l 1,3,-1
 514 348 l 1,4,-1
 0 348 l 1,5,-1
 0 535 l 1,6,-1
 477 1305 l 1,7,-1
 719 1305 l 1,8,-1
 719 535 l 1,9,-1
 932 535 l 1,10,-1
 932 348 l 1,11,-1
 719 348 l 1,12,-1
 719 186 l 1,13,-1
 932 186 l 1,14,-1
 932 0 l 1,0,-1
514 535 m 1,15,-1
 514 1061 l 1,16,-1
 186 535 l 1,17,-1
 514 535 l 1,15,-1
EndSplineSet
EndChar

StartChar: five
Encoding: 53 53 22
Width: 1118
VWidth: 2048
Flags: W
LayerCount: 2
Fore
SplineSet
942 438 m 0,0,1
 942 342 942 342 903 258 c 128,-1,2
 864 174 864 174 797.5 111.5 c 128,-1,3
 731 49 731 49 644 13 c 128,-1,4
 557 -23 557 -23 461 -23 c 0,5,6
 367 -23 367 -23 287 5 c 128,-1,7
 207 33 207 33 146.5 85 c 128,-1,8
 86 137 86 137 49 213 c 128,-1,9
 12 289 12 289 4 387 c 1,10,-1
 201 416 l 1,11,12
 211 303 211 303 274.5 233.5 c 128,-1,13
 338 164 338 164 461 164 c 0,14,15
 524 164 524 164 573.5 185.5 c 128,-1,16
 623 207 623 207 657.5 244 c 128,-1,17
 692 281 692 281 710.5 331 c 128,-1,18
 729 381 729 381 729 438 c 0,19,20
 729 569 729 569 661.5 642 c 128,-1,21
 594 715 594 715 483 715 c 0,22,23
 412 715 412 715 351.5 685 c 128,-1,24
 291 655 291 655 256 588 c 1,25,-1
 49 588 l 1,26,-1
 49 1305 l 1,27,-1
 866 1305 l 1,28,-1
 866 1118 l 1,29,-1
 256 1118 l 1,30,-1
 256 780 l 1,31,32
 348 901 348 901 524 901 c 0,33,34
 608 901 608 901 684 868.5 c 128,-1,35
 760 836 760 836 817 776.5 c 128,-1,36
 874 717 874 717 908 631 c 128,-1,37
 942 545 942 545 942 438 c 0,0,1
EndSplineSet
EndChar

StartChar: six
Encoding: 54 54 23
Width: 1118
VWidth: 2048
Flags: W
LayerCount: 2
Fore
SplineSet
948 444 m 0,0,1
 948 336 948 336 912.5 250 c 128,-1,2
 877 164 877 164 814.5 103.5 c 128,-1,3
 752 43 752 43 667 10 c 128,-1,4
 582 -23 582 -23 485 -23 c 0,5,6
 338 -23 338 -23 242.5 33.5 c 128,-1,7
 147 90 147 90 92 183 c 128,-1,8
 37 276 37 276 14.5 398 c 128,-1,9
 -8 520 -8 520 -8 651 c 0,10,11
 -8 784 -8 784 24.5 906 c 128,-1,12
 57 1028 57 1028 125 1122.5 c 128,-1,13
 193 1217 193 1217 294 1272 c 128,-1,14
 395 1327 395 1327 535 1327 c 0,15,16
 633 1327 633 1327 720 1297.5 c 128,-1,17
 807 1268 807 1268 872 1210 c 1,18,-1
 760 1059 l 1,19,20
 709 1104 709 1104 654.5 1122.5 c 128,-1,21
 600 1141 600 1141 535 1141 c 0,22,23
 451 1141 451 1141 385 1107 c 128,-1,24
 319 1073 319 1073 275 1011.5 c 128,-1,25
 231 950 231 950 208.5 866 c 128,-1,26
 186 782 186 782 186 682 c 1,27,28
 217 786 217 786 303 852 c 128,-1,29
 389 918 389 918 530 918 c 0,30,31
 614 918 614 918 690 882 c 128,-1,32
 766 846 766 846 823.5 783.5 c 128,-1,33
 881 721 881 721 914.5 634 c 128,-1,34
 948 547 948 547 948 444 c 0,0,1
741 444 m 0,35,36
 741 567 741 567 673.5 650 c 128,-1,37
 606 733 606 733 479 733 c 0,38,39
 356 733 356 733 282.5 656.5 c 128,-1,40
 209 580 209 580 209 455 c 0,41,42
 209 393 209 393 225.5 341 c 128,-1,43
 242 289 242 289 275.5 249 c 128,-1,44
 309 209 309 209 361.5 186.5 c 128,-1,45
 414 164 414 164 487 164 c 0,46,47
 598 164 598 164 669.5 237.5 c 128,-1,48
 741 311 741 311 741 444 c 0,35,36
EndSplineSet
EndChar

StartChar: seven
Encoding: 55 55 24
Width: 1118
VWidth: 2048
Flags: W
LayerCount: 2
Fore
SplineSet
932 1118 m 1,0,1
 809 985 809 985 733 866.5 c 128,-1,2
 657 748 657 748 615 620 c 128,-1,3
 573 492 573 492 557 342.5 c 128,-1,4
 541 193 541 193 539 0 c 1,5,-1
 328 0 l 1,6,7
 330 182 330 182 352.5 332.5 c 128,-1,8
 375 483 375 483 424 616.5 c 128,-1,9
 473 750 473 750 553 871.5 c 128,-1,10
 633 993 633 993 750 1118 c 1,11,-1
 233 1118 l 1,12,-1
 233 899 l 1,13,-1
 49 899 l 1,14,-1
 49 1305 l 1,15,-1
 932 1305 l 1,16,-1
 932 1118 l 1,0,1
EndSplineSet
EndChar

StartChar: eight
Encoding: 56 56 25
Width: 1118
VWidth: 2048
Flags: W
LayerCount: 2
Fore
SplineSet
940 367 m 0,0,1
 940 264 940 264 903 191.5 c 128,-1,2
 866 119 866 119 801.5 71 c 128,-1,3
 737 23 737 23 650 0 c 128,-1,4
 563 -23 563 -23 465 -23 c 0,5,6
 365 -23 365 -23 279 0 c 128,-1,7
 193 23 193 23 128 71 c 128,-1,8
 63 119 63 119 26.5 191.5 c 128,-1,9
 -10 264 -10 264 -10 367 c 0,10,11
 -10 420 -10 420 9.5 474 c 128,-1,12
 29 528 29 528 65.5 574.5 c 128,-1,13
 102 621 102 621 154.5 651.5 c 128,-1,14
 207 682 207 682 270 690 c 1,15,16
 215 696 215 696 172 725 c 128,-1,17
 129 754 129 754 99.5 794 c 128,-1,18
 70 834 70 834 53.5 880 c 128,-1,19
 37 926 37 926 37 969 c 0,20,21
 37 1057 37 1057 71.5 1124.5 c 128,-1,22
 106 1192 106 1192 165.5 1237 c 128,-1,23
 225 1282 225 1282 303 1304.5 c 128,-1,24
 381 1327 381 1327 465 1327 c 256,25,26
 549 1327 549 1327 627 1304.5 c 128,-1,27
 705 1282 705 1282 764 1237 c 128,-1,28
 823 1192 823 1192 858 1124.5 c 128,-1,29
 893 1057 893 1057 893 969 c 0,30,31
 893 926 893 926 876.5 880 c 128,-1,32
 860 834 860 834 830.5 794 c 128,-1,33
 801 754 801 754 757 725 c 128,-1,34
 713 696 713 696 657 690 c 1,35,36
 721 682 721 682 773 651.5 c 128,-1,37
 825 621 825 621 862 574.5 c 128,-1,38
 899 528 899 528 919.5 474 c 128,-1,39
 940 420 940 420 940 367 c 0,0,1
686 956 m 0,40,41
 686 1042 686 1042 627.5 1091.5 c 128,-1,42
 569 1141 569 1141 465 1141 c 0,43,44
 360 1141 360 1141 302 1091.5 c 128,-1,45
 244 1042 244 1042 244 956 c 0,46,47
 244 874 244 874 298 827 c 128,-1,48
 352 780 352 780 465 780 c 256,49,50
 578 780 578 780 632 827 c 128,-1,51
 686 874 686 874 686 956 c 0,40,41
733 379 m 0,52,53
 733 438 733 438 711.5 479 c 128,-1,54
 690 520 690 520 653 545.5 c 128,-1,55
 616 571 616 571 568 582.5 c 128,-1,56
 520 594 520 594 465 594 c 256,57,58
 410 594 410 594 361.5 582.5 c 128,-1,59
 313 571 313 571 276.5 545.5 c 128,-1,60
 240 520 240 520 218.5 479 c 128,-1,61
 197 438 197 438 197 379 c 0,62,63
 197 324 197 324 218.5 283 c 128,-1,64
 240 242 240 242 276.5 215 c 128,-1,65
 313 188 313 188 361.5 176 c 128,-1,66
 410 164 410 164 465 164 c 256,67,68
 520 164 520 164 568 176 c 128,-1,69
 616 188 616 188 653 215 c 128,-1,70
 690 242 690 242 711.5 283 c 128,-1,71
 733 324 733 324 733 379 c 0,52,53
EndSplineSet
EndChar

StartChar: nine
Encoding: 57 57 26
Width: 1118
VWidth: 2048
Flags: W
LayerCount: 2
Fore
SplineSet
-16 860 m 0,0,1
 -16 969 -16 969 19.5 1055 c 128,-1,2
 55 1141 55 1141 117.5 1201.5 c 128,-1,3
 180 1262 180 1262 265 1294.5 c 128,-1,4
 350 1327 350 1327 446 1327 c 0,5,6
 594 1327 594 1327 689 1270.5 c 128,-1,7
 784 1214 784 1214 839.5 1120 c 128,-1,8
 895 1026 895 1026 917.5 905 c 128,-1,9
 940 784 940 784 940 653 c 0,10,11
 940 520 940 520 907 398 c 128,-1,12
 874 276 874 276 806.5 182 c 128,-1,13
 739 88 739 88 637 32.5 c 128,-1,14
 535 -23 535 -23 397 -23 c 0,15,16
 299 -23 299 -23 212 7 c 128,-1,17
 125 37 125 37 59 94 c 1,18,-1
 172 246 l 1,19,20
 223 201 223 201 277.5 182.5 c 128,-1,21
 332 164 332 164 397 164 c 0,22,23
 481 164 481 164 546.5 197.5 c 128,-1,24
 612 231 612 231 656 292.5 c 128,-1,25
 700 354 700 354 722.5 438 c 128,-1,26
 745 522 745 522 745 623 c 1,27,28
 715 518 715 518 629 452.5 c 128,-1,29
 543 387 543 387 401 387 c 0,30,31
 317 387 317 387 241.5 423 c 128,-1,32
 166 459 166 459 108.5 521.5 c 128,-1,33
 51 584 51 584 17.5 671 c 128,-1,34
 -16 758 -16 758 -16 860 c 0,0,1
190 860 m 0,35,36
 190 737 190 737 258 654 c 128,-1,37
 326 571 326 571 453 571 c 0,38,39
 575 571 575 571 649 648 c 128,-1,40
 723 725 723 725 723 850 c 0,41,42
 723 911 723 911 706.5 963.5 c 128,-1,43
 690 1016 690 1016 656.5 1056 c 128,-1,44
 623 1096 623 1096 570.5 1118.5 c 128,-1,45
 518 1141 518 1141 444 1141 c 0,46,47
 334 1141 334 1141 262 1067 c 128,-1,48
 190 993 190 993 190 860 c 0,35,36
EndSplineSet
EndChar

StartChar: colon
Encoding: 58 58 27
Width: 1118
VWidth: 2048
Flags: W
LayerCount: 2
Fore
SplineSet
592 680 m 1,0,-1
 340 680 l 1,1,-1
 340 932 l 1,2,-1
 592 932 l 1,3,-1
 592 680 l 1,0,-1
592 0 m 1,4,-1
 340 0 l 1,5,-1
 340 252 l 1,6,-1
 592 252 l 1,7,-1
 592 0 l 1,4,-1
EndSplineSet
EndChar

StartChar: semicolon
Encoding: 59 59 28
Width: 1118
VWidth: 2048
Flags: W
LayerCount: 2
Fore
SplineSet
592 680 m 1,0,-1
 340 680 l 1,1,-1
 340 932 l 1,2,-1
 592 932 l 1,3,-1
 592 680 l 1,0,-1
641 187 m 1,4,-1
 367 -372 l 1,5,-1
 209 -372 l 1,6,-1
 395 187 l 1,7,-1
 641 187 l 1,4,-1
EndSplineSet
EndChar

StartChar: less
Encoding: 60 60 29
Width: 1118
VWidth: 2048
Flags: W
LayerCount: 2
Fore
SplineSet
829 88 m 1,0,-1
 711 -32 l 1,1,-1
 199 480 l 1,2,-1
 711 992 l 1,3,-1
 829 871 l 1,4,-1
 438 480 l 1,5,-1
 829 88 l 1,0,-1
EndSplineSet
EndChar

StartChar: equal
Encoding: 61 61 30
Width: 1118
VWidth: 2048
Flags: W
LayerCount: 2
Fore
SplineSet
932 572 m 1,0,-1
 0 572 l 1,1,-1
 0 758 l 1,2,-1
 932 758 l 1,3,-1
 932 572 l 1,0,-1
932 199 m 1,4,-1
 0 199 l 1,5,-1
 0 385 l 1,6,-1
 932 385 l 1,7,-1
 932 199 l 1,4,-1
EndSplineSet
EndChar

StartChar: greater
Encoding: 62 62 31
Width: 1118
VWidth: 2048
Flags: W
LayerCount: 2
Fore
SplineSet
494 480 m 1,0,-1
 102 871 l 1,1,-1
 221 992 l 1,2,-1
 733 480 l 1,3,-1
 221 -32 l 1,4,-1
 102 88 l 1,5,-1
 494 480 l 1,0,-1
EndSplineSet
EndChar

StartChar: question
Encoding: 63 63 32
Width: 1118
VWidth: 2048
Flags: W
LayerCount: 2
Fore
SplineSet
909 1004 m 0,0,1
 909 930 909 930 882.5 874.5 c 128,-1,2
 856 819 856 819 817 772 c 128,-1,3
 778 725 778 725 731 683 c 128,-1,4
 684 641 684 641 645 596 c 128,-1,5
 606 551 606 551 579.5 496.5 c 128,-1,6
 553 442 553 442 553 373 c 1,7,-1
 340 373 l 1,8,9
 340 455 340 455 366.5 519.5 c 128,-1,10
 393 584 393 584 434 636 c 128,-1,11
 475 688 475 688 521 732 c 128,-1,12
 567 776 567 776 608 819 c 128,-1,13
 649 862 649 862 675.5 907 c 128,-1,14
 702 952 702 952 702 1006 c 0,15,16
 702 1071 702 1071 663.5 1106 c 128,-1,17
 625 1141 625 1141 559 1141 c 0,18,19
 461 1141 461 1141 416 1086.5 c 128,-1,20
 371 1032 371 1032 360 936 c 1,21,-1
 168 965 l 1,22,23
 186 1133 186 1133 283.5 1230 c 128,-1,24
 381 1327 381 1327 557 1327 c 0,25,26
 723 1327 723 1327 816 1239 c 128,-1,27
 909 1151 909 1151 909 1004 c 0,0,1
592 0 m 1,28,-1
 340 0 l 1,29,-1
 340 252 l 1,30,-1
 592 252 l 1,31,-1
 592 0 l 1,28,-1
EndSplineSet
EndChar

StartChar: at
Encoding: 64 64 33
Width: 1118
VWidth: 2048
Flags: W
LayerCount: 2
Fore
SplineSet
974 684 m 0,0,1
 974 616 974 616 962.5 546 c 128,-1,2
 951 476 951 476 922.5 419.5 c 128,-1,3
 894 363 894 363 846 327 c 128,-1,4
 798 291 798 291 724 291 c 0,5,6
 697 291 697 291 670.5 301.5 c 128,-1,7
 644 312 644 312 623 331.5 c 128,-1,8
 602 351 602 351 589 378 c 128,-1,9
 576 405 576 405 576 437 c 2,10,-1
 576 447 l 1,11,12
 567 414 567 414 550.5 385.5 c 128,-1,13
 534 357 534 357 511 336 c 128,-1,14
 488 315 488 315 460 303 c 128,-1,15
 432 291 432 291 400 291 c 0,16,17
 339 291 339 291 297.5 320 c 128,-1,18
 256 349 256 349 231 397 c 128,-1,19
 206 445 206 445 195 506 c 128,-1,20
 184 567 184 567 184 631 c 0,21,22
 184 705 184 705 200.5 772.5 c 128,-1,23
 217 840 217 840 249.5 891.5 c 128,-1,24
 282 943 282 943 329 973.5 c 128,-1,25
 376 1004 376 1004 437 1004 c 0,26,27
 455 1004 455 1004 474 998 c 128,-1,28
 493 992 493 992 510 979.5 c 128,-1,29
 527 967 527 967 540.5 948 c 128,-1,30
 554 929 554 929 561 904 c 1,31,-1
 561 985 l 1,32,-1
 722 985 l 1,33,-1
 722 490 l 2,34,35
 722 458 722 458 732.5 444 c 128,-1,36
 743 430 743 430 760 430 c 0,37,38
 782 430 782 430 797.5 450 c 128,-1,39
 813 470 813 470 823 504.5 c 128,-1,40
 833 539 833 539 837.5 585.5 c 128,-1,41
 842 632 842 632 842 684 c 0,42,43
 842 789 842 789 822 884 c 128,-1,44
 802 979 802 979 758.5 1051 c 128,-1,45
 715 1123 715 1123 644.5 1165.5 c 128,-1,46
 574 1208 574 1208 474 1208 c 0,47,48
 373 1208 373 1208 302.5 1164.5 c 128,-1,49
 232 1121 232 1121 188.5 1046 c 128,-1,50
 145 971 145 971 125.5 869.5 c 128,-1,51
 106 768 106 768 106 651 c 0,52,53
 106 536 106 536 125.5 435 c 128,-1,54
 145 334 145 334 188.5 259 c 128,-1,55
 232 184 232 184 302.5 140.5 c 128,-1,56
 373 97 373 97 474 97 c 0,57,58
 556 97 556 97 620.5 126 c 128,-1,59
 685 155 685 155 739 204 c 1,60,-1
 798 106 l 1,61,62
 670 -23 670 -23 474 -23 c 0,63,64
 382 -23 382 -23 309.5 2.5 c 128,-1,65
 237 28 237 28 181.5 74 c 128,-1,66
 126 120 126 120 86.5 183 c 128,-1,67
 47 246 47 246 22 321 c 128,-1,68
 -3 396 -3 396 -14.5 480 c 128,-1,69
 -26 564 -26 564 -26 651 c 0,70,71
 -26 740 -26 740 -14 824.5 c 128,-1,72
 -2 909 -2 909 23 984 c 128,-1,73
 48 1059 48 1059 87.5 1122 c 128,-1,74
 127 1185 127 1185 183 1230.5 c 128,-1,75
 239 1276 239 1276 311 1301.5 c 128,-1,76
 383 1327 383 1327 474 1327 c 0,77,78
 564 1327 564 1327 636.5 1301.5 c 128,-1,79
 709 1276 709 1276 764.5 1231 c 128,-1,80
 820 1186 820 1186 859.5 1125 c 128,-1,81
 899 1064 899 1064 924.5 992.5 c 128,-1,82
 950 921 950 921 962 842.5 c 128,-1,83
 974 764 974 764 974 684 c 0,0,1
561 796 m 1,84,85
 543 834 543 834 517.5 850 c 128,-1,86
 492 866 492 866 467 866 c 0,87,88
 437 866 437 866 415 848 c 128,-1,89
 393 830 393 830 378.5 798.5 c 128,-1,90
 364 767 364 767 357.5 724 c 128,-1,91
 351 681 351 681 351 632 c 0,92,93
 351 578 351 578 357.5 541.5 c 128,-1,94
 364 505 364 505 376.5 483 c 128,-1,95
 389 461 389 461 407 452 c 128,-1,96
 425 443 425 443 448 443 c 0,97,98
 473 443 473 443 494 460.5 c 128,-1,99
 515 478 515 478 530 506 c 128,-1,100
 545 534 545 534 553 568.5 c 128,-1,101
 561 603 561 603 561 638 c 2,102,-1
 561 796 l 1,84,85
EndSplineSet
EndChar

StartChar: A
Encoding: 65 65 34
Width: 1118
VWidth: 2048
Flags: W
LayerCount: 2
Fore
SplineSet
776 0 m 1,0,-1
 682 311 l 1,1,-1
 250 311 l 1,2,-1
 158 0 l 1,3,-1
 -59 0 l 1,4,-1
 348 1305 l 1,5,-1
 586 1305 l 1,6,-1
 993 0 l 1,7,-1
 776 0 l 1,0,-1
305 494 m 1,8,-1
 627 494 l 1,9,-1
 467 1032 l 1,10,-1
 305 494 l 1,8,-1
EndSplineSet
EndChar

StartChar: B
Encoding: 66 66 35
Width: 1118
VWidth: 2048
Flags: W
LayerCount: 2
Fore
SplineSet
930 358 m 0,0,1
 930 180 930 180 809 90 c 128,-1,2
 688 0 688 0 465 0 c 2,3,-1
 49 0 l 1,4,-1
 49 1305 l 1,5,-1
 442 1305 l 2,6,7
 524 1305 524 1305 603 1291.5 c 128,-1,8
 682 1278 682 1278 744.5 1241 c 128,-1,9
 807 1204 807 1204 846 1137.5 c 128,-1,10
 885 1071 885 1071 885 965 c 0,11,12
 885 866 885 866 834.5 784 c 128,-1,13
 784 702 784 702 682 666 c 1,14,15
 807 627 807 627 868.5 557 c 128,-1,16
 930 487 930 487 930 358 c 0,0,1
680 938 m 256,17,18
 680 995 680 995 658.5 1031 c 128,-1,19
 637 1067 637 1067 603 1086.5 c 128,-1,20
 569 1106 569 1106 527 1112 c 128,-1,21
 485 1118 485 1118 442 1118 c 2,22,-1
 256 1118 l 1,23,-1
 256 758 l 1,24,-1
 442 758 l 2,25,26
 485 758 485 758 527 764 c 128,-1,27
 569 770 569 770 603 789.5 c 128,-1,28
 637 809 637 809 658.5 845 c 128,-1,29
 680 881 680 881 680 938 c 256,17,18
725 379 m 256,30,31
 725 477 725 477 656.5 524 c 128,-1,32
 588 571 588 571 465 571 c 2,33,-1
 256 571 l 1,34,-1
 256 186 l 1,35,-1
 465 186 l 2,36,37
 588 186 588 186 656.5 233.5 c 128,-1,38
 725 281 725 281 725 379 c 256,30,31
EndSplineSet
EndChar

StartChar: C
Encoding: 67 67 36
Width: 1118
VWidth: 2048
Flags: W
LayerCount: 2
Fore
SplineSet
952 399 m 1,0,1
 928 303 928 303 888 225 c 128,-1,2
 848 147 848 147 790.5 92 c 128,-1,3
 733 37 733 37 656.5 7 c 128,-1,4
 580 -23 580 -23 481 -23 c 0,5,6
 344 -23 344 -23 249 33.5 c 128,-1,7
 154 90 154 90 93.5 184.5 c 128,-1,8
 33 279 33 279 6.5 400.5 c 128,-1,9
 -20 522 -20 522 -20 653 c 256,10,11
 -20 784 -20 784 6.5 906 c 128,-1,12
 33 1028 33 1028 92.5 1121 c 128,-1,13
 152 1214 152 1214 244 1270.5 c 128,-1,14
 336 1327 336 1327 469 1327 c 0,15,16
 512 1327 512 1327 556 1316 c 128,-1,17
 600 1305 600 1305 638 1282.5 c 128,-1,18
 676 1260 676 1260 704.5 1227 c 128,-1,19
 733 1194 733 1194 745 1151 c 1,20,-1
 745 1305 l 1,21,-1
 932 1305 l 1,22,-1
 932 811 l 1,23,-1
 745 811 l 1,24,25
 745 872 745 872 730 931.5 c 128,-1,26
 715 991 715 991 682 1037 c 128,-1,27
 649 1083 649 1083 599 1112 c 128,-1,28
 549 1141 549 1141 481 1141 c 0,29,30
 393 1141 393 1141 337 1098 c 128,-1,31
 281 1055 281 1055 247 985 c 128,-1,32
 213 915 213 915 199.5 828 c 128,-1,33
 186 741 186 741 186 653 c 256,34,35
 186 565 186 565 199.5 477 c 128,-1,36
 213 389 213 389 246 319.5 c 128,-1,37
 279 250 279 250 336 207 c 128,-1,38
 393 164 393 164 481 164 c 0,39,40
 608 164 608 164 676.5 245 c 128,-1,41
 745 326 745 326 786 463 c 1,42,-1
 952 399 l 1,0,1
EndSplineSet
EndChar

StartChar: D
Encoding: 68 68 37
Width: 1118
VWidth: 2048
Flags: W
LayerCount: 2
Fore
SplineSet
975 653 m 256,0,1
 975 522 975 522 947.5 403.5 c 128,-1,2
 920 285 920 285 859.5 195.5 c 128,-1,3
 799 106 799 106 703.5 53 c 128,-1,4
 608 0 608 0 473 0 c 2,5,-1
 49 0 l 1,6,-1
 49 1305 l 1,7,-1
 473 1305 l 2,8,9
 606 1305 606 1305 701.5 1251.5 c 128,-1,10
 797 1198 797 1198 857.5 1109 c 128,-1,11
 918 1020 918 1020 946.5 902 c 128,-1,12
 975 784 975 784 975 653 c 256,0,1
768 653 m 0,13,14
 768 879 768 879 691 998.5 c 128,-1,15
 614 1118 614 1118 473 1118 c 2,16,-1
 256 1118 l 1,17,-1
 256 186 l 1,18,-1
 473 186 l 2,19,20
 614 186 614 186 691 308 c 128,-1,21
 768 430 768 430 768 653 c 0,13,14
EndSplineSet
EndChar

StartChar: E
Encoding: 69 69 38
Width: 1118
VWidth: 2048
Flags: W
LayerCount: 2
Fore
SplineSet
883 0 m 1,0,-1
 49 0 l 1,1,-1
 49 1305 l 1,2,-1
 883 1305 l 1,3,-1
 883 1118 l 1,4,-1
 256 1118 l 1,5,-1
 256 758 l 1,6,-1
 745 758 l 1,7,-1
 745 571 l 1,8,-1
 256 571 l 1,9,-1
 256 186 l 1,10,-1
 883 186 l 1,11,-1
 883 0 l 1,0,-1
EndSplineSet
EndChar

StartChar: F
Encoding: 70 70 39
Width: 1118
VWidth: 2048
Flags: W
LayerCount: 2
Fore
SplineSet
883 1118 m 1,0,-1
 256 1118 l 1,1,-1
 256 758 l 1,2,-1
 745 758 l 1,3,-1
 745 571 l 1,4,-1
 256 571 l 1,5,-1
 256 0 l 1,6,-1
 49 0 l 1,7,-1
 49 1305 l 1,8,-1
 883 1305 l 1,9,-1
 883 1118 l 1,0,-1
EndSplineSet
EndChar

StartChar: G
Encoding: 71 71 40
Width: 1118
VWidth: 2048
Flags: W
LayerCount: 2
Fore
SplineSet
983 649 m 2,0,1
 983 516 983 516 956.5 395 c 128,-1,2
 930 274 930 274 869.5 181 c 128,-1,3
 809 88 809 88 713.5 32.5 c 128,-1,4
 618 -23 618 -23 481 -23 c 256,5,6
 344 -23 344 -23 249 33.5 c 128,-1,7
 154 90 154 90 93.5 183 c 128,-1,8
 33 276 33 276 6.5 398 c 128,-1,9
 -20 520 -20 520 -20 651 c 256,10,11
 -20 782 -20 782 6.5 904 c 128,-1,12
 33 1026 33 1026 93.5 1120 c 128,-1,13
 154 1214 154 1214 249 1270.5 c 128,-1,14
 344 1327 344 1327 481 1327 c 0,15,16
 520 1327 520 1327 561 1316 c 128,-1,17
 602 1305 602 1305 639 1282.5 c 128,-1,18
 676 1260 676 1260 704.5 1227 c 128,-1,19
 733 1194 733 1194 745 1151 c 1,20,-1
 745 1305 l 1,21,-1
 932 1305 l 1,22,-1
 932 842 l 1,23,-1
 745 842 l 1,24,25
 745 903 745 903 726 957.5 c 128,-1,26
 707 1012 707 1012 672 1053 c 128,-1,27
 637 1094 637 1094 588 1117.5 c 128,-1,28
 539 1141 539 1141 481 1141 c 0,29,30
 393 1141 393 1141 337 1097 c 128,-1,31
 281 1053 281 1053 247 983 c 128,-1,32
 213 913 213 913 199.5 826 c 128,-1,33
 186 739 186 739 186 651 c 256,34,35
 186 563 186 563 199.5 476 c 128,-1,36
 213 389 213 389 246 319.5 c 128,-1,37
 279 250 279 250 336 207 c 128,-1,38
 393 164 393 164 481 164 c 0,39,40
 608 164 608 164 686 245 c 128,-1,41
 764 326 764 326 793 496 c 1,42,-1
 518 496 l 1,43,-1
 518 682 l 1,44,-1
 983 682 l 1,45,-1
 983 649 l 2,0,1
EndSplineSet
EndChar

StartChar: H
Encoding: 72 72 41
Width: 1118
VWidth: 2048
Flags: W
LayerCount: 2
Fore
SplineSet
883 0 m 1,0,-1
 676 0 l 1,1,-1
 676 571 l 1,2,-1
 256 571 l 1,3,-1
 256 0 l 1,4,-1
 49 0 l 1,5,-1
 49 1305 l 1,6,-1
 256 1305 l 1,7,-1
 256 758 l 1,8,-1
 676 758 l 1,9,-1
 676 1305 l 1,10,-1
 883 1305 l 1,11,-1
 883 0 l 1,0,-1
EndSplineSet
EndChar

StartChar: I
Encoding: 73 73 42
Width: 1118
VWidth: 2048
Flags: W
LayerCount: 2
Fore
SplineSet
782 0 m 1,0,-1
 156 0 l 1,1,-1
 156 186 l 1,2,-1
 362 186 l 1,3,-1
 362 1118 l 1,4,-1
 156 1118 l 1,5,-1
 156 1305 l 1,6,-1
 782 1305 l 1,7,-1
 782 1118 l 1,8,-1
 569 1118 l 1,9,-1
 569 186 l 1,10,-1
 782 186 l 1,11,-1
 782 0 l 1,0,-1
EndSplineSet
EndChar

StartChar: J
Encoding: 74 74 43
Width: 1118
VWidth: 2048
Flags: W
LayerCount: 2
Fore
SplineSet
883 498 m 2,0,1
 883 250 883 250 777.5 113.5 c 128,-1,2
 672 -23 672 -23 455 -23 c 0,3,4
 281 -23 281 -23 163 68.5 c 128,-1,5
 45 160 45 160 -2 342 c 1,6,-1
 184 412 l 1,7,8
 213 295 213 295 278.5 229.5 c 128,-1,9
 344 164 344 164 455 164 c 0,10,11
 522 164 522 164 565 191.5 c 128,-1,12
 608 219 608 219 632.5 265 c 128,-1,13
 657 311 657 311 666.5 371.5 c 128,-1,14
 676 432 676 432 676 498 c 2,15,-1
 676 1305 l 1,16,-1
 883 1305 l 1,17,-1
 883 498 l 2,0,1
EndSplineSet
EndChar

StartChar: K
Encoding: 75 75 44
Width: 1118
VWidth: 2048
Flags: W
LayerCount: 2
Fore
SplineSet
926 0 m 1,0,-1
 684 0 l 1,1,-1
 342 608 l 1,2,-1
 256 506 l 1,3,-1
 256 0 l 1,4,-1
 49 0 l 1,5,-1
 49 1305 l 1,6,-1
 256 1305 l 1,7,-1
 256 793 l 1,8,-1
 662 1305 l 1,9,-1
 928 1305 l 1,10,-1
 473 764 l 1,11,-1
 926 0 l 1,0,-1
EndSplineSet
EndChar

StartChar: L
Encoding: 76 76 45
Width: 1118
VWidth: 2048
Flags: W
LayerCount: 2
Fore
SplineSet
883 0 m 1,0,-1
 49 0 l 1,1,-1
 49 1305 l 1,2,-1
 256 1305 l 1,3,-1
 256 186 l 1,4,-1
 883 186 l 1,5,-1
 883 0 l 1,0,-1
EndSplineSet
EndChar

StartChar: M
Encoding: 77 77 46
Width: 1118
VWidth: 2048
Flags: W
LayerCount: 2
Fore
SplineSet
883 0 m 1,0,-1
 676 0 l 1,1,-1
 676 883 l 1,2,-1
 545 414 l 1,3,-1
 385 414 l 1,4,-1
 256 883 l 1,5,-1
 256 0 l 1,6,-1
 49 0 l 1,7,-1
 49 1305 l 1,8,-1
 295 1305 l 1,9,-1
 465 715 l 1,10,-1
 635 1305 l 1,11,-1
 883 1305 l 1,12,-1
 883 0 l 1,0,-1
EndSplineSet
EndChar

StartChar: N
Encoding: 78 78 47
Width: 1118
VWidth: 2048
Flags: W
LayerCount: 2
Fore
SplineSet
883 0 m 1,0,-1
 643 0 l 1,1,-1
 256 946 l 1,2,-1
 256 0 l 1,3,-1
 49 0 l 1,4,-1
 49 1305 l 1,5,-1
 309 1305 l 1,6,-1
 676 406 l 1,7,-1
 676 1305 l 1,8,-1
 883 1305 l 1,9,-1
 883 0 l 1,0,-1
EndSplineSet
EndChar

StartChar: O
Encoding: 79 79 48
Width: 1118
VWidth: 2048
Flags: W
LayerCount: 2
Fore
SplineSet
-33 653 m 256,0,1
 -33 784 -33 784 -5 906 c 128,-1,2
 23 1028 23 1028 82 1121 c 128,-1,3
 141 1214 141 1214 236.5 1270.5 c 128,-1,4
 332 1327 332 1327 467 1327 c 256,5,6
 602 1327 602 1327 697.5 1270.5 c 128,-1,7
 793 1214 793 1214 853 1121 c 128,-1,8
 913 1028 913 1028 940 906 c 128,-1,9
 967 784 967 784 967 653 c 256,10,11
 967 522 967 522 940 400.5 c 128,-1,12
 913 279 913 279 854 184.5 c 128,-1,13
 795 90 795 90 699.5 33.5 c 128,-1,14
 604 -23 604 -23 467 -23 c 256,15,16
 330 -23 330 -23 234.5 33.5 c 128,-1,17
 139 90 139 90 79.5 184.5 c 128,-1,18
 20 279 20 279 -6.5 400.5 c 128,-1,19
 -33 522 -33 522 -33 653 c 256,0,1
174 653 m 0,20,21
 174 565 174 565 187.5 477 c 128,-1,22
 201 389 201 389 233.5 319.5 c 128,-1,23
 266 250 266 250 322.5 207 c 128,-1,24
 379 164 379 164 467 164 c 256,25,26
 555 164 555 164 611.5 207 c 128,-1,27
 668 250 668 250 700.5 319.5 c 128,-1,28
 733 389 733 389 746.5 477 c 128,-1,29
 760 565 760 565 760 653 c 256,30,31
 760 741 760 741 746.5 828 c 128,-1,32
 733 915 733 915 700.5 985 c 128,-1,33
 668 1055 668 1055 610.5 1098 c 128,-1,34
 553 1141 553 1141 467 1141 c 0,35,36
 324 1141 324 1141 249 1012 c 128,-1,37
 174 883 174 883 174 653 c 0,20,21
EndSplineSet
EndChar

StartChar: P
Encoding: 80 80 49
Width: 1118
VWidth: 2048
Flags: W
LayerCount: 2
Fore
SplineSet
932 915 m 0,0,1
 932 719 932 719 813 623.5 c 128,-1,2
 694 528 694 528 481 528 c 2,3,-1
 256 528 l 1,4,-1
 256 0 l 1,5,-1
 49 0 l 1,6,-1
 49 1305 l 1,7,-1
 479 1305 l 2,8,9
 694 1305 694 1305 813 1206.5 c 128,-1,10
 932 1108 932 1108 932 915 c 0,0,1
725 918 m 0,11,12
 725 1018 725 1018 659.5 1068 c 128,-1,13
 594 1118 594 1118 481 1118 c 2,14,-1
 256 1118 l 1,15,-1
 256 715 l 1,16,-1
 481 715 l 2,17,18
 594 715 594 715 659.5 765 c 128,-1,19
 725 815 725 815 725 918 c 0,11,12
EndSplineSet
EndChar

StartChar: Q
Encoding: 81 81 50
Width: 1118
VWidth: 2048
Flags: W
LayerCount: 2
Fore
SplineSet
-33 653 m 0,0,1
 -33 784 -33 784 -5 906 c 128,-1,2
 23 1028 23 1028 82 1121 c 128,-1,3
 141 1214 141 1214 236.5 1270.5 c 128,-1,4
 332 1327 332 1327 467 1327 c 256,5,6
 602 1327 602 1327 697.5 1270.5 c 128,-1,7
 793 1214 793 1214 853 1121 c 128,-1,8
 913 1028 913 1028 940 906 c 128,-1,9
 967 784 967 784 967 653 c 0,10,11
 967 532 967 532 945.5 420.5 c 128,-1,12
 924 309 924 309 874.5 219 c 128,-1,13
 825 129 825 129 748.5 66.5 c 128,-1,14
 672 4 672 4 561 -14 c 1,15,16
 571 -113 571 -113 643 -149.5 c 128,-1,17
 715 -186 715 -186 848 -186 c 0,18,19
 866 -186 866 -186 887.5 -185 c 128,-1,20
 909 -184 909 -184 932 -184 c 1,21,-1
 932 -369 l 1,22,23
 903 -371 903 -371 876.5 -372 c 128,-1,24
 850 -373 850 -373 825 -373 c 0,25,26
 623 -373 623 -373 497 -280.5 c 128,-1,27
 371 -188 371 -188 346 -8 c 1,28,29
 244 16 244 16 171 78.5 c 128,-1,30
 98 141 98 141 53 230 c 128,-1,31
 8 319 8 319 -12.5 428 c 128,-1,32
 -33 537 -33 537 -33 653 c 0,0,1
174 653 m 0,33,34
 174 565 174 565 187.5 477 c 128,-1,35
 201 389 201 389 233.5 319.5 c 128,-1,36
 266 250 266 250 322.5 207 c 128,-1,37
 379 164 379 164 467 164 c 256,38,39
 555 164 555 164 611.5 207 c 128,-1,40
 668 250 668 250 700.5 319.5 c 128,-1,41
 733 389 733 389 746.5 477 c 128,-1,42
 760 565 760 565 760 653 c 256,43,44
 760 741 760 741 746.5 828 c 128,-1,45
 733 915 733 915 700.5 985 c 128,-1,46
 668 1055 668 1055 610.5 1098 c 128,-1,47
 553 1141 553 1141 467 1141 c 0,48,49
 324 1141 324 1141 249 1012 c 128,-1,50
 174 883 174 883 174 653 c 0,33,34
EndSplineSet
EndChar

StartChar: R
Encoding: 82 82 51
Width: 1118
VWidth: 2048
Flags: W
LayerCount: 2
Fore
SplineSet
950 0 m 1,0,-1
 688 0 l 1,1,-1
 350 528 l 1,2,-1
 256 528 l 1,3,-1
 256 0 l 1,4,-1
 49 0 l 1,5,-1
 49 1305 l 1,6,-1
 479 1305 l 2,7,8
 694 1305 694 1305 813 1206.5 c 128,-1,9
 932 1108 932 1108 932 915 c 0,10,11
 932 829 932 829 905.5 763.5 c 128,-1,12
 879 698 879 698 830.5 651 c 128,-1,13
 782 604 782 604 717.5 576.5 c 128,-1,14
 653 549 653 549 578 539 c 1,15,-1
 950 0 l 1,0,-1
725 918 m 0,16,17
 725 1018 725 1018 659.5 1068 c 128,-1,18
 594 1118 594 1118 479 1118 c 2,19,-1
 256 1118 l 1,20,-1
 256 715 l 1,21,-1
 479 715 l 2,22,23
 594 715 594 715 659.5 765 c 128,-1,24
 725 815 725 815 725 918 c 0,16,17
EndSplineSet
EndChar

StartChar: S
Encoding: 83 83 52
Width: 1118
VWidth: 2048
Flags: W
LayerCount: 2
Fore
SplineSet
899 358 m 0,0,1
 899 268 899 268 868.5 197.5 c 128,-1,2
 838 127 838 127 785.5 78 c 128,-1,3
 733 29 733 29 660.5 3 c 128,-1,4
 588 -23 588 -23 506 -23 c 0,5,6
 414 -23 414 -23 340 10 c 128,-1,7
 266 43 266 43 213 119 c 1,8,-1
 213 0 l 1,9,-1
 27 0 l 1,10,-1
 27 426 l 1,11,-1
 213 426 l 1,12,13
 213 362 213 362 235.5 313 c 128,-1,14
 258 264 258 264 295 230.5 c 128,-1,15
 332 197 332 197 381 179.5 c 128,-1,16
 430 162 430 162 485 162 c 0,17,18
 578 162 578 162 635 205 c 128,-1,19
 692 248 692 248 692 342 c 0,20,21
 692 391 692 391 674.5 426 c 128,-1,22
 657 461 657 461 624.5 488.5 c 128,-1,23
 592 516 592 516 545 536.5 c 128,-1,24
 498 557 498 557 438 580 c 0,25,26
 367 604 367 604 296 634 c 128,-1,27
 225 664 225 664 169 708 c 128,-1,28
 113 752 113 752 78 816.5 c 128,-1,29
 43 881 43 881 43 979 c 0,30,31
 43 1065 43 1065 74.5 1129.5 c 128,-1,32
 106 1194 106 1194 158.5 1238 c 128,-1,33
 211 1282 211 1282 280.5 1304.5 c 128,-1,34
 350 1327 350 1327 428 1327 c 0,35,36
 518 1327 518 1327 582.5 1289 c 128,-1,37
 647 1251 647 1251 682 1188 c 1,38,-1
 682 1305 l 1,39,-1
 868 1305 l 1,40,-1
 868 899 l 1,41,-1
 682 899 l 1,42,43
 682 1014 682 1014 621.5 1078.5 c 128,-1,44
 561 1143 561 1143 459 1143 c 0,45,46
 369 1143 369 1143 309.5 1101 c 128,-1,47
 250 1059 250 1059 250 983 c 0,48,49
 250 944 250 944 265.5 916.5 c 128,-1,50
 281 889 281 889 310.5 866.5 c 128,-1,51
 340 844 340 844 385 824.5 c 128,-1,52
 430 805 430 805 489 782 c 0,53,54
 563 756 563 756 636 723 c 128,-1,55
 709 690 709 690 767 642 c 128,-1,56
 825 594 825 594 862 525.5 c 128,-1,57
 899 457 899 457 899 358 c 0,0,1
EndSplineSet
EndChar

StartChar: T
Encoding: 84 84 53
Width: 1118
VWidth: 2048
Flags: W
LayerCount: 2
Fore
SplineSet
930 829 m 1,0,-1
 745 829 l 1,1,-1
 745 1118 l 1,2,-1
 569 1118 l 1,3,-1
 569 186 l 1,4,-1
 776 186 l 1,5,-1
 776 0 l 1,6,-1
 156 0 l 1,7,-1
 156 186 l 1,8,-1
 362 186 l 1,9,-1
 362 1118 l 1,10,-1
 184 1118 l 1,11,-1
 184 829 l 1,12,-1
 0 829 l 1,13,-1
 0 1305 l 1,14,-1
 930 1305 l 1,15,-1
 930 829 l 1,0,-1
EndSplineSet
EndChar

StartChar: U
Encoding: 85 85 54
Width: 1118
VWidth: 2048
Flags: W
LayerCount: 2
Fore
SplineSet
883 465 m 2,0,1
 883 354 883 354 858.5 264 c 128,-1,2
 834 174 834 174 782.5 110.5 c 128,-1,3
 731 47 731 47 652 12 c 128,-1,4
 573 -23 573 -23 465 -23 c 0,5,6
 356 -23 356 -23 278.5 12 c 128,-1,7
 201 47 201 47 149.5 110.5 c 128,-1,8
 98 174 98 174 73.5 265 c 128,-1,9
 49 356 49 356 49 467 c 2,10,-1
 49 1305 l 1,11,-1
 256 1305 l 1,12,-1
 256 465 l 2,13,14
 256 416 256 416 263 363.5 c 128,-1,15
 270 311 270 311 291.5 266 c 128,-1,16
 313 221 313 221 355 192.5 c 128,-1,17
 397 164 397 164 465 164 c 0,18,19
 532 164 532 164 574 192.5 c 128,-1,20
 616 221 616 221 639 265 c 128,-1,21
 662 309 662 309 669 362.5 c 128,-1,22
 676 416 676 416 676 465 c 2,23,-1
 676 1305 l 1,24,-1
 883 1305 l 1,25,-1
 883 465 l 2,0,1
EndSplineSet
EndChar

StartChar: V
Encoding: 86 86 55
Width: 1118
VWidth: 2048
Flags: W
LayerCount: 2
Fore
SplineSet
991 1305 m 1,0,-1
 584 0 l 1,1,-1
 348 0 l 1,2,-1
 -59 1305 l 1,3,-1
 158 1305 l 1,4,-1
 467 272 l 1,5,-1
 774 1305 l 1,6,-1
 991 1305 l 1,0,-1
EndSplineSet
EndChar

StartChar: W
Encoding: 87 87 56
Width: 1118
VWidth: 2048
Flags: W
LayerCount: 2
Fore
SplineSet
995 1305 m 1,0,-1
 793 0 l 1,1,-1
 580 0 l 1,2,-1
 465 563 l 1,3,-1
 352 0 l 1,4,-1
 139 0 l 1,5,-1
 -63 1305 l 1,6,-1
 152 1305 l 1,7,-1
 272 426 l 1,8,-1
 367 932 l 1,9,-1
 565 932 l 1,10,-1
 657 426 l 1,11,-1
 780 1305 l 1,12,-1
 995 1305 l 1,0,-1
EndSplineSet
EndChar

StartChar: X
Encoding: 88 88 57
Width: 1118
VWidth: 2048
Flags: W
LayerCount: 2
Fore
SplineSet
952 0 m 1,0,-1
 526 0 l 1,1,-1
 526 186 l 1,2,-1
 600 186 l 1,3,-1
 463 481 l 1,4,-1
 326 186 l 1,5,-1
 399 186 l 1,6,-1
 399 0 l 1,7,-1
 -23 0 l 1,8,-1
 -23 186 l 1,9,-1
 90 186 l 1,10,-1
 344 659 l 1,11,-1
 94 1118 l 1,12,-1
 0 1118 l 1,13,-1
 0 1305 l 1,14,-1
 414 1305 l 1,15,-1
 414 1118 l 1,16,-1
 330 1118 l 1,17,-1
 463 829 l 1,18,-1
 598 1118 l 1,19,-1
 516 1118 l 1,20,-1
 516 1305 l 1,21,-1
 932 1305 l 1,22,-1
 932 1118 l 1,23,-1
 831 1118 l 1,24,-1
 582 659 l 1,25,-1
 836 186 l 1,26,-1
 952 186 l 1,27,-1
 952 0 l 1,0,-1
EndSplineSet
EndChar

StartChar: Y
Encoding: 89 89 58
Width: 1118
VWidth: 2048
Flags: W
LayerCount: 2
Fore
SplineSet
952 1118 m 1,0,-1
 858 1118 l 1,1,-1
 569 532 l 1,2,-1
 569 186 l 1,3,-1
 778 186 l 1,4,-1
 778 0 l 1,5,-1
 154 0 l 1,6,-1
 154 186 l 1,7,-1
 362 186 l 1,8,-1
 362 532 l 1,9,-1
 74 1118 l 1,10,-1
 -20 1118 l 1,11,-1
 -20 1305 l 1,12,-1
 391 1305 l 1,13,-1
 391 1118 l 1,14,-1
 301 1118 l 1,15,-1
 467 735 l 1,16,-1
 631 1118 l 1,17,-1
 541 1118 l 1,18,-1
 541 1305 l 1,19,-1
 952 1305 l 1,20,-1
 952 1118 l 1,0,-1
EndSplineSet
EndChar

StartChar: Z
Encoding: 90 90 59
Width: 1118
VWidth: 2048
Flags: W
LayerCount: 2
Fore
SplineSet
883 0 m 1,0,-1
 49 0 l 1,1,-1
 49 184 l 1,2,-1
 633 1118 l 1,3,-1
 236 1118 l 1,4,-1
 236 834 l 1,5,-1
 49 834 l 1,6,-1
 49 1305 l 1,7,-1
 866 1305 l 1,8,-1
 866 1118 l 1,9,-1
 299 186 l 1,10,-1
 700 186 l 1,11,-1
 700 473 l 1,12,-1
 883 473 l 1,13,-1
 883 0 l 1,0,-1
EndSplineSet
EndChar

StartChar: bracketleft
Encoding: 91 91 60
Width: 1118
VWidth: 2048
Flags: W
LayerCount: 2
Fore
SplineSet
807 -373 m 1,0,-1
 373 -373 l 1,1,-1
 373 1491 l 1,2,-1
 807 1491 l 1,3,-1
 807 1305 l 1,4,-1
 559 1305 l 1,5,-1
 559 -186 l 1,6,-1
 807 -186 l 1,7,-1
 807 -373 l 1,0,-1
EndSplineSet
EndChar

StartChar: backslash
Encoding: 92 92 61
Width: 1118
VWidth: 2048
Flags: W
LayerCount: 2
Fore
SplineSet
932 -176 m 1,0,-1
 778 -252 l 1,1,-1
 12 1290 l 1,2,-1
 166 1366 l 1,3,-1
 932 -176 l 1,0,-1
EndSplineSet
EndChar

StartChar: bracketright
Encoding: 93 93 62
Width: 1118
VWidth: 2048
Flags: W
LayerCount: 2
Fore
SplineSet
559 -373 m 1,0,-1
 125 -373 l 1,1,-1
 125 -186 l 1,2,-1
 373 -186 l 1,3,-1
 373 1305 l 1,4,-1
 125 1305 l 1,5,-1
 125 1491 l 1,6,-1
 559 1491 l 1,7,-1
 559 -373 l 1,0,-1
EndSplineSet
EndChar

StartChar: asciicircum
Encoding: 94 94 63
Width: 1118
VWidth: 2048
Flags: W
LayerCount: 2
Fore
SplineSet
995 559 m 1,0,-1
 767 559 l 1,1,-1
 467 1121 l 1,2,-1
 169 559 l 1,3,-1
 -59 559 l 1,4,-1
 343 1305 l 1,5,-1
 591 1305 l 1,6,-1
 995 559 l 1,0,-1
EndSplineSet
EndChar

StartChar: underscore
Encoding: 95 95 64
Width: 1118
VWidth: 2048
Flags: W
LayerCount: 2
Fore
SplineSet
0 -186 m 1,0,-1
 0 0 l 1,1,-1
 932 0 l 1,2,-1
 932 -186 l 1,3,-1
 0 -186 l 1,0,-1
EndSplineSet
EndChar

StartChar: grave
Encoding: 96 96 65
Width: 1118
VWidth: 2048
Flags: W
LayerCount: 2
Fore
SplineSet
344 1405 m 1,0,-1
 748 1118 l 1,1,-1
 659 981 l 1,2,-1
 227 1225 l 1,3,-1
 344 1405 l 1,0,-1
EndSplineSet
EndChar

StartChar: a
Encoding: 97 97 66
Width: 1118
VWidth: 2048
Flags: W
LayerCount: 2
Fore
SplineSet
-4 268 m 0,0,1
 -4 350 -4 350 40 411.5 c 128,-1,2
 84 473 84 473 155.5 514 c 128,-1,3
 227 555 227 555 319.5 575.5 c 128,-1,4
 412 596 412 596 508 596 c 0,5,6
 561 596 561 596 599 594 c 128,-1,7
 637 592 637 592 676 588 c 1,8,-1
 676 625 l 2,9,10
 676 698 676 698 619.5 734 c 128,-1,11
 563 770 563 770 471 770 c 0,12,13
 387 770 387 770 300 746.5 c 128,-1,14
 213 723 213 723 135 678 c 1,15,-1
 51 840 l 1,16,17
 143 893 143 893 248.5 923.5 c 128,-1,18
 354 954 354 954 471 954 c 0,19,20
 547 954 547 954 620.5 937 c 128,-1,21
 694 920 694 920 752.5 881 c 128,-1,22
 811 842 811 842 846 779.5 c 128,-1,23
 881 717 881 717 881 625 c 2,24,-1
 881 0 l 1,25,-1
 676 0 l 1,26,-1
 676 137 l 1,27,28
 627 61 627 61 531.5 19 c 128,-1,29
 436 -23 436 -23 326 -23 c 0,30,31
 258 -23 258 -23 197.5 -4.5 c 128,-1,32
 137 14 137 14 93 51 c 128,-1,33
 49 88 49 88 22.5 142.5 c 128,-1,34
 -4 197 -4 197 -4 268 c 0,0,1
379 162 m 0,35,36
 440 162 440 162 493.5 177.5 c 128,-1,37
 547 193 547 193 588 220.5 c 128,-1,38
 629 248 629 248 652.5 287 c 128,-1,39
 676 326 676 326 676 373 c 2,40,-1
 676 408 l 1,41,42
 627 416 627 416 584 417 c 128,-1,43
 541 418 541 418 508 418 c 0,44,45
 356 418 356 418 278.5 378 c 128,-1,46
 201 338 201 338 201 279 c 0,47,48
 201 162 201 162 379 162 c 0,35,36
EndSplineSet
EndChar

StartChar: b
Encoding: 98 98 67
Width: 1118
VWidth: 2048
Flags: W
LayerCount: 2
Fore
SplineSet
49 1305 m 1,0,-1
 256 1305 l 1,1,-1
 256 848 l 1,2,3
 315 901 315 901 375.5 927.5 c 128,-1,4
 436 954 436 954 514 954 c 0,5,6
 604 954 604 954 681 917.5 c 128,-1,7
 758 881 758 881 813 816.5 c 128,-1,8
 868 752 868 752 900 661.5 c 128,-1,9
 932 571 932 571 932 465 c 0,10,11
 932 358 932 358 900 268 c 128,-1,12
 868 178 868 178 813 113.5 c 128,-1,13
 758 49 758 49 681 13 c 128,-1,14
 604 -23 604 -23 514 -23 c 0,15,16
 436 -23 436 -23 375.5 5 c 128,-1,17
 315 33 315 33 256 86 c 1,18,-1
 256 0 l 1,19,-1
 49 0 l 1,20,-1
 49 1305 l 1,0,-1
256 248 m 1,21,22
 293 207 293 207 350.5 185.5 c 128,-1,23
 408 164 408 164 461 164 c 0,24,25
 578 164 578 164 651.5 247 c 128,-1,26
 725 330 725 330 725 465 c 256,27,28
 725 600 725 600 651.5 684 c 128,-1,29
 578 768 578 768 461 768 c 0,30,31
 408 768 408 768 350.5 746.5 c 128,-1,32
 293 725 293 725 256 684 c 1,33,-1
 256 248 l 1,21,22
EndSplineSet
EndChar

StartChar: c
Encoding: 99 99 68
Width: 1118
VWidth: 2048
Flags: W
LayerCount: 2
Fore
SplineSet
897 133 m 1,0,1
 807 43 807 43 707.5 10 c 128,-1,2
 608 -23 608 -23 492 -23 c 0,3,4
 375 -23 375 -23 279.5 12 c 128,-1,5
 184 47 184 47 117.5 110.5 c 128,-1,6
 51 174 51 174 15.5 264 c 128,-1,7
 -20 354 -20 354 -20 465 c 0,8,9
 -20 571 -20 571 15.5 661.5 c 128,-1,10
 51 752 51 752 111.5 816.5 c 128,-1,11
 172 881 172 881 254 917.5 c 128,-1,12
 336 954 336 954 428 954 c 0,13,14
 524 954 524 954 595 914 c 128,-1,15
 666 874 666 874 698 797 c 1,16,-1
 698 932 l 1,17,-1
 883 932 l 1,18,-1
 883 498 l 1,19,-1
 698 498 l 1,20,21
 698 621 698 621 630.5 694.5 c 128,-1,22
 563 768 563 768 455 768 c 0,23,24
 412 768 412 768 364.5 750.5 c 128,-1,25
 317 733 317 733 277.5 696 c 128,-1,26
 238 659 238 659 212 602 c 128,-1,27
 186 545 186 545 186 465 c 0,28,29
 186 387 186 387 211 330.5 c 128,-1,30
 236 274 236 274 276.5 237.5 c 128,-1,31
 317 201 317 201 372.5 182.5 c 128,-1,32
 428 164 428 164 487 164 c 0,33,34
 588 164 588 164 662.5 195.5 c 128,-1,35
 737 227 737 227 791 279 c 1,36,-1
 897 133 l 1,0,1
EndSplineSet
EndChar

StartChar: d
Encoding: 100 100 69
Width: 1118
VWidth: 2048
Flags: W
LayerCount: 2
Fore
SplineSet
883 0 m 1,0,-1
 676 0 l 1,1,-1
 676 86 l 1,2,3
 616 33 616 33 555 5 c 128,-1,4
 494 -23 494 -23 416 -23 c 0,5,6
 326 -23 326 -23 249 13 c 128,-1,7
 172 49 172 49 116.5 113.5 c 128,-1,8
 61 178 61 178 29.5 268 c 128,-1,9
 -2 358 -2 358 -2 465 c 0,10,11
 -2 571 -2 571 29.5 661.5 c 128,-1,12
 61 752 61 752 116.5 816.5 c 128,-1,13
 172 881 172 881 249 917.5 c 128,-1,14
 326 954 326 954 416 954 c 0,15,16
 494 954 494 954 555 927.5 c 128,-1,17
 616 901 616 901 676 848 c 1,18,-1
 676 1118 l 1,19,-1
 496 1118 l 1,20,-1
 496 1305 l 1,21,-1
 883 1305 l 1,22,-1
 883 0 l 1,0,-1
676 684 m 1,23,24
 639 725 639 725 580.5 746.5 c 128,-1,25
 522 768 522 768 469 768 c 0,26,27
 352 768 352 768 278.5 684 c 128,-1,28
 205 600 205 600 205 465 c 256,29,30
 205 330 205 330 278.5 247 c 128,-1,31
 352 164 352 164 469 164 c 0,32,33
 522 164 522 164 580.5 185.5 c 128,-1,34
 639 207 639 207 676 248 c 1,35,-1
 676 684 l 1,23,24
EndSplineSet
EndChar

StartChar: e
Encoding: 101 101 70
Width: 1118
VWidth: 2048
Flags: W
LayerCount: 2
Fore
SplineSet
190 387 m 1,0,1
 205 291 205 291 281.5 227.5 c 128,-1,2
 358 164 358 164 487 164 c 0,3,4
 588 164 588 164 662.5 195.5 c 128,-1,5
 737 227 737 227 791 279 c 1,6,-1
 897 133 l 1,7,8
 807 43 807 43 706.5 10 c 128,-1,9
 606 -23 606 -23 487 -23 c 0,10,11
 379 -23 379 -23 286 13 c 128,-1,12
 193 49 193 49 125 113.5 c 128,-1,13
 57 178 57 178 18.5 267 c 128,-1,14
 -20 356 -20 356 -20 465 c 0,15,16
 -20 571 -20 571 15.5 660.5 c 128,-1,17
 51 750 51 750 115.5 815.5 c 128,-1,18
 180 881 180 881 270 917.5 c 128,-1,19
 360 954 360 954 469 954 c 0,20,21
 582 954 582 954 674 915.5 c 128,-1,22
 766 877 766 877 831.5 804 c 128,-1,23
 897 731 897 731 934 625.5 c 128,-1,24
 971 520 971 520 971 387 c 1,25,-1
 190 387 l 1,0,1
737 569 m 1,26,27
 721 659 721 659 644 713.5 c 128,-1,28
 567 768 567 768 469 768 c 256,29,30
 371 768 371 768 293 713.5 c 128,-1,31
 215 659 215 659 199 569 c 1,32,-1
 737 569 l 1,26,27
EndSplineSet
EndChar

StartChar: f
Encoding: 102 102 71
Width: 1118
VWidth: 2048
Flags: W
LayerCount: 2
Fore
SplineSet
932 745 m 1,0,-1
 569 745 l 1,1,-1
 569 186 l 1,2,-1
 782 186 l 1,3,-1
 782 0 l 1,4,-1
 156 0 l 1,5,-1
 156 186 l 1,6,-1
 362 186 l 1,7,-1
 362 745 l 1,8,-1
 156 745 l 1,9,-1
 156 932 l 1,10,-1
 362 932 l 1,11,12
 362 1124 362 1124 480 1225.5 c 128,-1,13
 598 1327 598 1327 799 1327 c 0,14,15
 829 1327 829 1327 863 1324 c 128,-1,16
 897 1321 897 1321 932 1317 c 1,17,-1
 932 1135 l 1,18,19
 872 1141 872 1141 823 1141 c 0,20,21
 743 1141 743 1141 694 1129.5 c 128,-1,22
 645 1118 645 1118 617.5 1092.5 c 128,-1,23
 590 1067 590 1067 579.5 1027 c 128,-1,24
 569 987 569 987 569 932 c 1,25,-1
 932 932 l 1,26,-1
 932 745 l 1,0,-1
EndSplineSet
EndChar

StartChar: g
Encoding: 103 103 72
Width: 1118
VWidth: 2048
Flags: W
LayerCount: 2
Fore
SplineSet
883 10 m 2,0,1
 883 -86 883 -86 850 -161 c 128,-1,2
 817 -236 817 -236 757.5 -288 c 128,-1,3
 698 -340 698 -340 617.5 -367.5 c 128,-1,4
 537 -395 537 -395 438 -395 c 0,5,6
 195 -395 195 -395 23 -248 c 1,7,-1
 121 -88 l 1,8,9
 264 -211 264 -211 438 -211 c 0,10,11
 545 -211 545 -211 610.5 -158.5 c 128,-1,12
 676 -106 676 -106 676 6 c 2,13,-1
 676 106 l 1,14,15
 612 51 612 51 553 24.5 c 128,-1,16
 494 -2 494 -2 416 -2 c 0,17,18
 326 -2 326 -2 249 36 c 128,-1,19
 172 74 172 74 116.5 139.5 c 128,-1,20
 61 205 61 205 29.5 292 c 128,-1,21
 -2 379 -2 379 -2 477 c 256,22,23
 -2 575 -2 575 29.5 662.5 c 128,-1,24
 61 750 61 750 116.5 814.5 c 128,-1,25
 172 879 172 879 249 916.5 c 128,-1,26
 326 954 326 954 416 954 c 0,27,28
 494 954 494 954 555 927.5 c 128,-1,29
 616 901 616 901 676 848 c 1,30,-1
 676 932 l 1,31,-1
 883 932 l 1,32,-1
 883 10 l 2,0,1
676 684 m 1,33,34
 639 725 639 725 580.5 746.5 c 128,-1,35
 522 768 522 768 467 768 c 0,36,37
 350 768 350 768 277.5 686 c 128,-1,38
 205 604 205 604 205 477 c 0,39,40
 205 414 205 414 224.5 360.5 c 128,-1,41
 244 307 244 307 278.5 268 c 128,-1,42
 313 229 313 229 361.5 206.5 c 128,-1,43
 410 184 410 184 467 184 c 0,44,45
 522 184 522 184 580.5 206.5 c 128,-1,46
 639 229 639 229 676 270 c 1,47,-1
 676 684 l 1,33,34
EndSplineSet
EndChar

StartChar: h
Encoding: 104 104 73
Width: 1118
VWidth: 2048
Flags: W
LayerCount: 2
Fore
SplineSet
883 0 m 1,0,-1
 676 0 l 1,1,-1
 676 575 l 2,2,3
 676 684 676 684 635 726 c 128,-1,4
 594 768 594 768 516 768 c 0,5,6
 401 768 401 768 328.5 675 c 128,-1,7
 256 582 256 582 256 418 c 2,8,-1
 256 0 l 1,9,-1
 49 0 l 1,10,-1
 49 1305 l 1,11,-1
 256 1305 l 1,12,-1
 256 698 l 1,13,14
 287 819 287 819 371 886.5 c 128,-1,15
 455 954 455 954 578 954 c 0,16,17
 721 954 721 954 802 861 c 128,-1,18
 883 768 883 768 883 575 c 2,19,-1
 883 0 l 1,0,-1
EndSplineSet
EndChar

StartChar: i
Encoding: 105 105 74
Width: 1118
VWidth: 2048
Flags: W
LayerCount: 2
Fore
SplineSet
592 1053 m 1,0,-1
 340 1053 l 1,1,-1
 340 1305 l 1,2,-1
 592 1305 l 1,3,-1
 592 1053 l 1,0,-1
782 0 m 1,4,-1
 156 0 l 1,5,-1
 156 186 l 1,6,-1
 362 186 l 1,7,-1
 362 745 l 1,8,-1
 156 745 l 1,9,-1
 156 932 l 1,10,-1
 569 932 l 1,11,-1
 569 186 l 1,12,-1
 782 186 l 1,13,-1
 782 0 l 1,4,-1
EndSplineSet
EndChar

StartChar: j
Encoding: 106 106 75
Width: 1118
VWidth: 2048
Flags: W
LayerCount: 2
Fore
SplineSet
344 -395 m 0,0,1
 131 -395 131 -395 0 -236 c 1,2,-1
 123 -98 l 1,3,4
 170 -154 170 -154 223 -181.5 c 128,-1,5
 276 -209 276 -209 344 -209 c 0,6,7
 449 -209 449 -209 499 -151.5 c 128,-1,8
 549 -94 549 -94 549 0 c 2,9,-1
 549 745 l 1,10,-1
 338 745 l 1,11,-1
 338 932 l 1,12,-1
 756 932 l 1,13,-1
 756 0 l 2,14,15
 756 -90 756 -90 726 -163 c 128,-1,16
 696 -236 696 -236 642 -288 c 128,-1,17
 588 -340 588 -340 512 -367.5 c 128,-1,18
 436 -395 436 -395 344 -395 c 0,0,1
778 1053 m 1,19,-1
 526 1053 l 1,20,-1
 526 1305 l 1,21,-1
 778 1305 l 1,22,-1
 778 1053 l 1,19,-1
EndSplineSet
EndChar

StartChar: k
Encoding: 107 107 76
Width: 1118
VWidth: 2048
Flags: W
LayerCount: 2
Fore
SplineSet
930 0 m 1,0,-1
 662 0 l 1,1,-1
 350 377 l 1,2,-1
 256 281 l 1,3,-1
 256 0 l 1,4,-1
 49 0 l 1,5,-1
 49 1305 l 1,6,-1
 256 1305 l 1,7,-1
 256 537 l 1,8,-1
 629 932 l 1,9,-1
 913 932 l 1,10,-1
 483 504 l 1,11,-1
 930 0 l 1,0,-1
EndSplineSet
EndChar

StartChar: l
Encoding: 108 108 77
Width: 1118
VWidth: 2048
Flags: W
LayerCount: 2
Fore
SplineSet
784 0 m 1,0,-1
 158 0 l 1,1,-1
 158 186 l 1,2,-1
 362 186 l 1,3,-1
 362 1118 l 1,4,-1
 158 1118 l 1,5,-1
 158 1305 l 1,6,-1
 569 1305 l 1,7,-1
 569 186 l 1,8,-1
 784 186 l 1,9,-1
 784 0 l 1,0,-1
EndSplineSet
EndChar

StartChar: m
Encoding: 109 109 78
Width: 1118
VWidth: 2048
Flags: W
LayerCount: 2
Fore
SplineSet
932 0 m 1,0,-1
 725 0 l 1,1,-1
 725 639 l 2,2,3
 725 705 725 705 711.5 736.5 c 128,-1,4
 698 768 698 768 664 768 c 0,5,6
 602 768 602 768 585.5 698.5 c 128,-1,7
 569 629 569 629 569 496 c 2,8,-1
 569 0 l 1,9,-1
 362 0 l 1,10,-1
 362 639 l 2,11,12
 362 705 362 705 348 736.5 c 128,-1,13
 334 768 334 768 299 768 c 0,14,15
 238 768 238 768 222.5 698.5 c 128,-1,16
 207 629 207 629 207 496 c 2,17,-1
 207 0 l 1,18,-1
 0 0 l 1,19,-1
 0 932 l 1,20,-1
 209 932 l 1,21,-1
 209 797 l 1,22,23
 231 874 231 874 274 914 c 128,-1,24
 317 954 317 954 389 954 c 0,25,26
 449 954 449 954 489.5 917.5 c 128,-1,27
 530 881 530 881 545 817 c 1,28,29
 580 887 580 887 617.5 920.5 c 128,-1,30
 655 954 655 954 733 954 c 0,31,32
 829 954 829 954 880.5 883.5 c 128,-1,33
 932 813 932 813 932 670 c 2,34,-1
 932 0 l 1,0,-1
EndSplineSet
EndChar

StartChar: n
Encoding: 110 110 79
Width: 1118
VWidth: 2048
Flags: W
LayerCount: 2
Fore
SplineSet
883 0 m 1,0,-1
 676 0 l 1,1,-1
 676 575 l 2,2,3
 676 684 676 684 635 726 c 128,-1,4
 594 768 594 768 516 768 c 0,5,6
 401 768 401 768 328.5 675 c 128,-1,7
 256 582 256 582 256 418 c 2,8,-1
 256 0 l 1,9,-1
 49 0 l 1,10,-1
 49 932 l 1,11,-1
 256 932 l 1,12,-1
 256 698 l 1,13,14
 287 819 287 819 371 886.5 c 128,-1,15
 455 954 455 954 578 954 c 0,16,17
 721 954 721 954 802 861 c 128,-1,18
 883 768 883 768 883 575 c 2,19,-1
 883 0 l 1,0,-1
EndSplineSet
EndChar

StartChar: o
Encoding: 111 111 80
Width: 1118
VWidth: 2048
Flags: W
LayerCount: 2
Fore
SplineSet
956 465 m 0,0,1
 956 356 956 356 921.5 267 c 128,-1,2
 887 178 887 178 822.5 113.5 c 128,-1,3
 758 49 758 49 668 13 c 128,-1,4
 578 -23 578 -23 467 -23 c 0,5,6
 358 -23 358 -23 268 13 c 128,-1,7
 178 49 178 49 113.5 113.5 c 128,-1,8
 49 178 49 178 14.5 267 c 128,-1,9
 -20 356 -20 356 -20 465 c 0,10,11
 -20 571 -20 571 14.5 661.5 c 128,-1,12
 49 752 49 752 113.5 817.5 c 128,-1,13
 178 883 178 883 268 918.5 c 128,-1,14
 358 954 358 954 467 954 c 0,15,16
 578 954 578 954 668 918.5 c 128,-1,17
 758 883 758 883 822.5 817.5 c 128,-1,18
 887 752 887 752 921.5 661.5 c 128,-1,19
 956 571 956 571 956 465 c 0,0,1
750 465 m 0,20,21
 750 528 750 528 730.5 584.5 c 128,-1,22
 711 641 711 641 674 681 c 128,-1,23
 637 721 637 721 584.5 744.5 c 128,-1,24
 532 768 532 768 467 768 c 0,25,26
 401 768 401 768 349 744.5 c 128,-1,27
 297 721 297 721 261 681 c 128,-1,28
 225 641 225 641 205.5 584.5 c 128,-1,29
 186 528 186 528 186 465 c 0,30,31
 186 399 186 399 205.5 345 c 128,-1,32
 225 291 225 291 261 250 c 128,-1,33
 297 209 297 209 349 186.5 c 128,-1,34
 401 164 401 164 467 164 c 0,35,36
 532 164 532 164 584.5 186.5 c 128,-1,37
 637 209 637 209 674 250 c 128,-1,38
 711 291 711 291 730.5 345 c 128,-1,39
 750 399 750 399 750 465 c 0,20,21
EndSplineSet
EndChar

StartChar: p
Encoding: 112 112 81
Width: 1118
VWidth: 2048
Flags: W
LayerCount: 2
Fore
SplineSet
49 932 m 1,0,-1
 256 932 l 1,1,-1
 256 848 l 1,2,3
 315 901 315 901 375.5 927.5 c 128,-1,4
 436 954 436 954 514 954 c 0,5,6
 604 954 604 954 681 917.5 c 128,-1,7
 758 881 758 881 813 816.5 c 128,-1,8
 868 752 868 752 900 661.5 c 128,-1,9
 932 571 932 571 932 465 c 0,10,11
 932 358 932 358 900 268 c 128,-1,12
 868 178 868 178 813 113.5 c 128,-1,13
 758 49 758 49 681 13 c 128,-1,14
 604 -23 604 -23 514 -23 c 0,15,16
 436 -23 436 -23 375.5 5 c 128,-1,17
 315 33 315 33 256 86 c 1,18,-1
 256 -373 l 1,19,-1
 49 -373 l 1,20,-1
 49 932 l 1,0,-1
256 250 m 1,21,22
 293 209 293 209 350.5 186.5 c 128,-1,23
 408 164 408 164 461 164 c 0,24,25
 578 164 578 164 651.5 247 c 128,-1,26
 725 330 725 330 725 465 c 256,27,28
 725 600 725 600 651.5 684 c 128,-1,29
 578 768 578 768 461 768 c 0,30,31
 408 768 408 768 350.5 746.5 c 128,-1,32
 293 725 293 725 256 684 c 1,33,-1
 256 250 l 1,21,22
EndSplineSet
EndChar

StartChar: q
Encoding: 113 113 82
Width: 1118
VWidth: 2048
Flags: W
LayerCount: 2
Fore
SplineSet
883 -373 m 1,0,-1
 676 -373 l 1,1,-1
 676 86 l 1,2,3
 616 33 616 33 555 5 c 128,-1,4
 494 -23 494 -23 416 -23 c 0,5,6
 326 -23 326 -23 249 13 c 128,-1,7
 172 49 172 49 116.5 113.5 c 128,-1,8
 61 178 61 178 29.5 268 c 128,-1,9
 -2 358 -2 358 -2 465 c 0,10,11
 -2 571 -2 571 29.5 661.5 c 128,-1,12
 61 752 61 752 116.5 816.5 c 128,-1,13
 172 881 172 881 249 917.5 c 128,-1,14
 326 954 326 954 416 954 c 0,15,16
 494 954 494 954 555 927.5 c 128,-1,17
 616 901 616 901 676 848 c 1,18,-1
 676 932 l 1,19,-1
 883 932 l 1,20,-1
 883 -373 l 1,0,-1
676 684 m 1,21,22
 639 725 639 725 580.5 746.5 c 128,-1,23
 522 768 522 768 469 768 c 0,24,25
 352 768 352 768 278.5 684 c 128,-1,26
 205 600 205 600 205 465 c 256,27,28
 205 330 205 330 278.5 247 c 128,-1,29
 352 164 352 164 469 164 c 0,30,31
 522 164 522 164 580.5 185.5 c 128,-1,32
 639 207 639 207 676 248 c 1,33,-1
 676 684 l 1,21,22
EndSplineSet
EndChar

StartChar: r
Encoding: 114 114 83
Width: 1118
VWidth: 2048
Flags: W
LayerCount: 2
Fore
SplineSet
909 711 m 1,0,1
 872 729 872 729 833.5 738.5 c 128,-1,2
 795 748 795 748 745 748 c 0,3,4
 676 748 676 748 615.5 727.5 c 128,-1,5
 555 707 555 707 511 666 c 128,-1,6
 467 625 467 625 442.5 563.5 c 128,-1,7
 418 502 418 502 418 418 c 2,8,-1
 418 186 l 1,9,-1
 627 186 l 1,10,-1
 627 0 l 1,11,-1
 0 0 l 1,12,-1
 0 186 l 1,13,-1
 211 186 l 1,14,-1
 211 745 l 1,15,-1
 0 745 l 1,16,-1
 0 932 l 1,17,-1
 418 932 l 1,18,-1
 418 698 l 1,19,20
 469 838 469 838 568.5 896 c 128,-1,21
 668 954 668 954 805 954 c 0,22,23
 848 954 848 954 895 945 c 128,-1,24
 942 936 942 936 987 913 c 1,25,-1
 909 711 l 1,0,1
EndSplineSet
EndChar

StartChar: s
Encoding: 115 115 84
Width: 1118
VWidth: 2048
Flags: W
LayerCount: 2
Fore
SplineSet
907 279 m 0,0,1
 907 188 907 188 866 131 c 128,-1,2
 825 74 825 74 760.5 39 c 128,-1,3
 696 4 696 4 616.5 -9.5 c 128,-1,4
 537 -23 537 -23 461 -23 c 0,5,6
 334 -23 334 -23 208 14 c 128,-1,7
 82 51 82 51 -10 111 c 1,8,-1
 76 281 l 1,9,10
 186 217 186 217 277.5 190.5 c 128,-1,11
 369 164 369 164 461 164 c 0,12,13
 586 164 586 164 643 190.5 c 128,-1,14
 700 217 700 217 700 264 c 0,15,16
 700 287 700 287 684 302 c 128,-1,17
 668 317 668 317 631 329.5 c 128,-1,18
 594 342 594 342 533.5 354.5 c 128,-1,19
 473 367 473 367 383 381 c 0,20,21
 311 393 311 393 246.5 410.5 c 128,-1,22
 182 428 182 428 133 460 c 128,-1,23
 84 492 84 492 54.5 541 c 128,-1,24
 25 590 25 590 25 664 c 0,25,26
 25 739 25 739 63.5 794.5 c 128,-1,27
 102 850 102 850 164.5 886 c 128,-1,28
 227 922 227 922 305 938 c 128,-1,29
 383 954 383 954 461 954 c 0,30,31
 571 954 571 954 674.5 925.5 c 128,-1,32
 778 897 778 897 856 844 c 1,33,-1
 774 684 l 1,34,35
 696 733 696 733 622.5 750.5 c 128,-1,36
 549 768 549 768 461 768 c 0,37,38
 424 768 424 768 384 764 c 128,-1,39
 344 760 344 760 310 748.5 c 128,-1,40
 276 737 276 737 253.5 717.5 c 128,-1,41
 231 698 231 698 231 670 c 0,42,43
 231 633 231 633 296.5 609.5 c 128,-1,44
 362 586 362 586 520 563 c 0,45,46
 606 551 606 551 677 532.5 c 128,-1,47
 748 514 748 514 799 482.5 c 128,-1,48
 850 451 850 451 878.5 401.5 c 128,-1,49
 907 352 907 352 907 279 c 0,0,1
EndSplineSet
EndChar

StartChar: t
Encoding: 116 116 85
Width: 1118
VWidth: 2048
Flags: W
LayerCount: 2
Fore
SplineSet
942 297 m 1,0,1
 926 150 926 150 826.5 63.5 c 128,-1,2
 727 -23 727 -23 578 -23 c 0,3,4
 496 -23 496 -23 428 4 c 128,-1,5
 360 31 360 31 312 79 c 128,-1,6
 264 127 264 127 237.5 194.5 c 128,-1,7
 211 262 211 262 211 342 c 2,8,-1
 211 745 l 1,9,-1
 0 745 l 1,10,-1
 0 932 l 1,11,-1
 211 932 l 1,12,-1
 211 1305 l 1,13,-1
 418 1305 l 1,14,-1
 418 932 l 1,15,-1
 809 932 l 1,16,-1
 809 745 l 1,17,-1
 418 745 l 1,18,-1
 418 342 l 2,19,20
 418 252 418 252 462 208 c 128,-1,21
 506 164 506 164 578 164 c 0,22,23
 666 164 666 164 709 215 c 128,-1,24
 752 266 752 266 760 338 c 1,25,-1
 942 297 l 1,0,1
EndSplineSet
EndChar

StartChar: u
Encoding: 117 117 86
Width: 1118
VWidth: 2048
Flags: W
LayerCount: 2
Fore
SplineSet
49 932 m 1,0,-1
 256 932 l 1,1,-1
 256 356 l 2,2,3
 256 248 256 248 297 206 c 128,-1,4
 338 164 338 164 416 164 c 0,5,6
 530 164 530 164 603 257 c 128,-1,7
 676 350 676 350 676 514 c 2,8,-1
 676 932 l 1,9,-1
 883 932 l 1,10,-1
 883 0 l 1,11,-1
 676 0 l 1,12,-1
 676 233 l 1,13,14
 645 113 645 113 561 45 c 128,-1,15
 477 -23 477 -23 354 -23 c 0,16,17
 211 -23 211 -23 130 70.5 c 128,-1,18
 49 164 49 164 49 356 c 2,19,-1
 49 932 l 1,0,-1
EndSplineSet
EndChar

StartChar: v
Encoding: 118 118 87
Width: 1118
VWidth: 2048
Flags: W
LayerCount: 2
Fore
SplineSet
932 932 m 1,0,-1
 588 0 l 1,1,-1
 344 0 l 1,2,-1
 0 932 l 1,3,-1
 221 932 l 1,4,-1
 467 227 l 1,5,-1
 711 932 l 1,6,-1
 932 932 l 1,0,-1
EndSplineSet
EndChar

StartChar: w
Encoding: 119 119 88
Width: 1118
VWidth: 2048
Flags: W
LayerCount: 2
Fore
SplineSet
961 932 m 1,0,-1
 821 0 l 1,1,-1
 565 0 l 1,2,-1
 467 561 l 1,3,-1
 367 0 l 1,4,-1
 111 0 l 1,5,-1
 -29 932 l 1,6,-1
 174 932 l 1,7,-1
 256 309 l 1,8,-1
 356 932 l 1,9,-1
 575 932 l 1,10,-1
 676 309 l 1,11,-1
 758 932 l 1,12,-1
 961 932 l 1,0,-1
EndSplineSet
EndChar

StartChar: x
Encoding: 120 120 89
Width: 1118
VWidth: 2048
Flags: W
LayerCount: 2
Fore
SplineSet
954 0 m 1,0,-1
 512 0 l 1,1,-1
 512 186 l 1,2,-1
 594 186 l 1,3,-1
 467 381 l 1,4,-1
 342 186 l 1,5,-1
 418 186 l 1,6,-1
 418 0 l 1,7,-1
 -20 0 l 1,8,-1
 -20 186 l 1,9,-1
 115 186 l 1,10,-1
 324 473 l 1,11,-1
 125 745 l 1,12,-1
 0 745 l 1,13,-1
 0 932 l 1,14,-1
 420 932 l 1,15,-1
 420 745 l 1,16,-1
 354 745 l 1,17,-1
 467 565 l 1,18,-1
 582 745 l 1,19,-1
 508 745 l 1,20,-1
 508 932 l 1,21,-1
 932 932 l 1,22,-1
 932 745 l 1,23,-1
 811 745 l 1,24,-1
 612 473 l 1,25,-1
 821 186 l 1,26,-1
 954 186 l 1,27,-1
 954 0 l 1,0,-1
EndSplineSet
EndChar

StartChar: y
Encoding: 121 121 90
Width: 1118
VWidth: 2048
Flags: W
LayerCount: 2
Fore
SplineSet
924 932 m 1,0,-1
 522 -182 l 2,1,2
 477 -303 477 -303 391 -348 c 128,-1,3
 305 -393 305 -393 186 -393 c 0,4,5
 145 -393 145 -393 98 -385 c 128,-1,6
 51 -377 51 -377 0 -358 c 1,7,-1
 43 -168 l 1,8,9
 86 -184 86 -184 122 -190.5 c 128,-1,10
 158 -197 158 -197 186 -197 c 0,11,12
 279 -197 279 -197 313 -115 c 2,13,-1
 350 -25 l 1,14,-1
 -6 932 l 1,15,-1
 209 932 l 1,16,-1
 465 227 l 1,17,-1
 702 932 l 1,18,-1
 924 932 l 1,0,-1
EndSplineSet
EndChar

StartChar: z
Encoding: 122 122 91
Width: 1118
VWidth: 2048
Flags: W
LayerCount: 2
Fore
SplineSet
883 0 m 1,0,-1
 49 0 l 1,1,-1
 49 184 l 1,2,-1
 580 745 l 1,3,-1
 231 745 l 1,4,-1
 231 557 l 1,5,-1
 49 557 l 1,6,-1
 49 932 l 1,7,-1
 864 932 l 1,8,-1
 864 745 l 1,9,-1
 332 186 l 1,10,-1
 700 186 l 1,11,-1
 700 371 l 1,12,-1
 883 371 l 1,13,-1
 883 0 l 1,0,-1
EndSplineSet
EndChar

StartChar: braceleft
Encoding: 123 123 92
Width: 1118
VWidth: 2048
Flags: W
LayerCount: 2
Fore
SplineSet
805 -373 m 1,0,-1
 651 -373 l 2,1,2
 590 -373 590 -373 538.5 -352.5 c 128,-1,3
 487 -332 487 -332 450.5 -294 c 128,-1,4
 414 -256 414 -256 393.5 -205 c 128,-1,5
 373 -154 373 -154 373 -92 c 2,6,-1
 373 334 l 2,7,8
 373 416 373 416 326 440.5 c 128,-1,9
 279 465 279 465 186 465 c 1,10,-1
 186 651 l 1,11,12
 279 651 279 651 326 674.5 c 128,-1,13
 373 698 373 698 373 782 c 2,14,-1
 373 1208 l 2,15,16
 373 1270 373 1270 393.5 1321 c 128,-1,17
 414 1372 414 1372 450.5 1410 c 128,-1,18
 487 1448 487 1448 538.5 1469.5 c 128,-1,19
 590 1491 590 1491 651 1491 c 2,20,-1
 805 1491 l 1,21,-1
 805 1305 l 1,22,-1
 651 1305 l 2,23,24
 598 1305 598 1305 578.5 1283.5 c 128,-1,25
 559 1262 559 1262 559 1208 c 2,26,-1
 559 782 l 2,27,28
 559 688 559 688 501.5 629.5 c 128,-1,29
 444 571 444 571 371 557 c 1,30,31
 408 551 408 551 441.5 533.5 c 128,-1,32
 475 516 475 516 500.5 486.5 c 128,-1,33
 526 457 526 457 542.5 418 c 128,-1,34
 559 379 559 379 559 334 c 2,35,-1
 559 -92 l 2,36,37
 559 -145 559 -145 578.5 -166.5 c 128,-1,38
 598 -188 598 -188 651 -188 c 2,39,-1
 805 -188 l 1,40,-1
 805 -373 l 1,0,-1
EndSplineSet
EndChar

StartChar: bar
Encoding: 124 124 93
Width: 1118
VWidth: 2048
Flags: W
LayerCount: 2
Fore
SplineSet
559 -186 m 1,0,-1
 373 -186 l 1,1,-1
 373 1491 l 1,2,-1
 559 1491 l 1,3,-1
 559 -186 l 1,0,-1
EndSplineSet
EndChar

StartChar: braceright
Encoding: 125 125 94
Width: 1118
VWidth: 2048
Flags: W
LayerCount: 2
Fore
SplineSet
127 -188 m 1,0,-1
 281 -188 l 2,1,2
 334 -188 334 -188 353.5 -166.5 c 128,-1,3
 373 -145 373 -145 373 -92 c 2,4,-1
 373 338 l 2,5,6
 373 383 373 383 389.5 422 c 128,-1,7
 406 461 406 461 431.5 490.5 c 128,-1,8
 457 520 457 520 490.5 537.5 c 128,-1,9
 524 555 524 555 561 561 c 1,10,11
 487 575 487 575 430 633.5 c 128,-1,12
 373 692 373 692 373 786 c 2,13,-1
 373 1212 l 2,14,15
 373 1266 373 1266 353.5 1285.5 c 128,-1,16
 334 1305 334 1305 281 1305 c 2,17,-1
 127 1305 l 1,18,-1
 127 1491 l 1,19,-1
 281 1491 l 2,20,21
 342 1491 342 1491 393 1470.5 c 128,-1,22
 444 1450 444 1450 481 1413 c 128,-1,23
 518 1376 518 1376 538.5 1325 c 128,-1,24
 559 1274 559 1274 559 1212 c 2,25,-1
 559 786 l 2,26,27
 559 702 559 702 606 678.5 c 128,-1,28
 653 655 653 655 745 655 c 1,29,-1
 745 469 l 1,30,31
 653 469 653 469 606 444.5 c 128,-1,32
 559 420 559 420 559 338 c 2,33,-1
 559 -92 l 2,34,35
 559 -154 559 -154 538.5 -205 c 128,-1,36
 518 -256 518 -256 481 -294 c 128,-1,37
 444 -332 444 -332 393 -352.5 c 128,-1,38
 342 -373 342 -373 281 -373 c 2,39,-1
 127 -373 l 1,40,-1
 127 -188 l 1,0,-1
EndSplineSet
EndChar

StartChar: asciitilde
Encoding: 126 126 95
Width: 1118
VWidth: 2048
Flags: W
LayerCount: 2
Fore
SplineSet
621 435 m 0,0,1
 674 435 674 435 698.5 492 c 128,-1,2
 723 549 723 549 739 682 c 1,3,-1
 936 668 l 1,4,5
 930 578 930 578 908.5 501 c 128,-1,6
 887 424 887 424 848 368 c 128,-1,7
 809 312 809 312 752.5 279 c 128,-1,8
 696 246 696 246 621 246 c 0,9,10
 539 246 539 246 494 285 c 128,-1,11
 449 324 449 324 419 372 c 128,-1,12
 389 420 389 420 367.5 459 c 128,-1,13
 346 498 346 498 311 498 c 0,14,15
 258 498 258 498 233.5 441.5 c 128,-1,16
 209 385 209 385 193 252 c 1,17,-1
 -4 267 l 1,18,19
 2 355 2 355 23.5 432.5 c 128,-1,20
 45 510 45 510 84 566.5 c 128,-1,21
 123 623 123 623 179.5 655.5 c 128,-1,22
 236 688 236 688 311 688 c 0,23,24
 393 688 393 688 439 648.5 c 128,-1,25
 485 609 485 609 514 561.5 c 128,-1,26
 543 514 543 514 565.5 474.5 c 128,-1,27
 588 435 588 435 621 435 c 0,0,1
EndSplineSet
EndChar

StartChar: Aring
Encoding: 197 197 97
Width: 1118
VWidth: 2048
Flags: W
LayerCount: 2
Fore
SplineSet
242 1450 m 0,0,1
 242 1497 242 1497 259 1538 c 128,-1,2
 276 1579 276 1579 307 1609.5 c 128,-1,3
 338 1640 338 1640 379 1657.5 c 128,-1,4
 420 1675 420 1675 467 1675 c 256,5,6
 514 1675 514 1675 555 1657.5 c 128,-1,7
 596 1640 596 1640 626.5 1609.5 c 128,-1,8
 657 1579 657 1579 674.5 1538 c 128,-1,9
 692 1497 692 1497 692 1450 c 0,10,11
 692 1393 692 1393 666.5 1344.5 c 128,-1,12
 641 1296 641 1296 598 1266 c 1,13,-1
 993 0 l 1,14,-1
 776 0 l 1,15,-1
 682 311 l 1,16,-1
 250 311 l 1,17,-1
 158 0 l 1,18,-1
 -59 0 l 1,19,-1
 336 1266 l 1,20,21
 293 1296 293 1296 267.5 1344.5 c 128,-1,22
 242 1393 242 1393 242 1450 c 0,0,1
305 494 m 1,23,-1
 627 494 l 1,24,-1
 467 1032 l 1,25,-1
 305 494 l 1,23,-1
375 1450 m 256,26,27
 375 1411 375 1411 401.5 1384.5 c 128,-1,28
 428 1358 428 1358 467 1358 c 256,29,30
 506 1358 506 1358 532.5 1384.5 c 128,-1,31
 559 1411 559 1411 559 1450 c 256,32,33
 559 1489 559 1489 532.5 1515.5 c 128,-1,34
 506 1542 506 1542 467 1542 c 256,35,36
 428 1542 428 1542 401.5 1515.5 c 128,-1,37
 375 1489 375 1489 375 1450 c 256,26,27
EndSplineSet
EndChar

StartChar: Ccedilla
Encoding: 199 199 98
Width: 1118
VWidth: 2048
Flags: W
LayerCount: 2
Fore
SplineSet
952 399 m 1,0,1
 909 236 909 236 822 126 c 128,-1,2
 735 16 735 16 590 -12 c 1,3,-1
 590 -41 l 2,4,5
 590 -111 590 -111 566.5 -171 c 128,-1,6
 543 -231 543 -231 498 -275 c 128,-1,7
 453 -319 453 -319 388.5 -345 c 128,-1,8
 324 -371 324 -371 242 -371 c 1,9,-1
 242 -193 l 1,10,11
 330 -193 330 -193 372 -153 c 128,-1,12
 414 -113 414 -113 414 -41 c 2,13,-1
 414 -18 l 1,14,15
 295 -4 295 -4 213 56.5 c 128,-1,16
 131 117 131 117 79 209 c 128,-1,17
 27 301 27 301 3.5 415.5 c 128,-1,18
 -20 530 -20 530 -20 653 c 0,19,20
 -20 784 -20 784 6.5 906 c 128,-1,21
 33 1028 33 1028 92.5 1121 c 128,-1,22
 152 1214 152 1214 244 1270.5 c 128,-1,23
 336 1327 336 1327 469 1327 c 0,24,25
 512 1327 512 1327 556 1316 c 128,-1,26
 600 1305 600 1305 638 1282.5 c 128,-1,27
 676 1260 676 1260 704.5 1227 c 128,-1,28
 733 1194 733 1194 745 1151 c 1,29,-1
 745 1305 l 1,30,-1
 932 1305 l 1,31,-1
 932 811 l 1,32,-1
 745 811 l 1,33,34
 745 872 745 872 730 931.5 c 128,-1,35
 715 991 715 991 682 1037 c 128,-1,36
 649 1083 649 1083 599 1112 c 128,-1,37
 549 1141 549 1141 481 1141 c 0,38,39
 393 1141 393 1141 337 1098 c 128,-1,40
 281 1055 281 1055 247 985 c 128,-1,41
 213 915 213 915 199.5 828 c 128,-1,42
 186 741 186 741 186 653 c 256,43,44
 186 565 186 565 199.5 477 c 128,-1,45
 213 389 213 389 246 319.5 c 128,-1,46
 279 250 279 250 336 207 c 128,-1,47
 393 164 393 164 481 164 c 0,48,49
 608 164 608 164 676.5 245 c 128,-1,50
 745 326 745 326 786 463 c 1,51,-1
 952 399 l 1,0,1
EndSplineSet
EndChar

StartChar: ccedilla
Encoding: 231 231 109
Width: 1118
VWidth: 2048
Flags: W
LayerCount: 2
Fore
SplineSet
897 133 m 1,0,1
 825 61 825 61 750.5 27.5 c 128,-1,2
 676 -6 676 -6 590 -16 c 1,3,-1
 590 -41 l 2,4,5
 590 -111 590 -111 566.5 -171 c 128,-1,6
 543 -231 543 -231 498 -275 c 128,-1,7
 453 -319 453 -319 388.5 -345 c 128,-1,8
 324 -371 324 -371 242 -371 c 1,9,-1
 242 -193 l 1,10,11
 330 -193 330 -193 372 -153 c 128,-1,12
 414 -113 414 -113 414 -41 c 2,13,-1
 414 -18 l 1,14,15
 211 4 211 4 95.5 132 c 128,-1,16
 -20 260 -20 260 -20 465 c 0,17,18
 -20 571 -20 571 15.5 661.5 c 128,-1,19
 51 752 51 752 111.5 816.5 c 128,-1,20
 172 881 172 881 254 917.5 c 128,-1,21
 336 954 336 954 428 954 c 0,22,23
 524 954 524 954 595 914 c 128,-1,24
 666 874 666 874 698 797 c 1,25,-1
 698 932 l 1,26,-1
 883 932 l 1,27,-1
 883 498 l 1,28,-1
 698 498 l 1,29,30
 698 621 698 621 630.5 694.5 c 128,-1,31
 563 768 563 768 455 768 c 0,32,33
 412 768 412 768 364.5 750.5 c 128,-1,34
 317 733 317 733 277.5 696 c 128,-1,35
 238 659 238 659 212 602 c 128,-1,36
 186 545 186 545 186 465 c 0,37,38
 186 387 186 387 211 330.5 c 128,-1,39
 236 274 236 274 276.5 237.5 c 128,-1,40
 317 201 317 201 372.5 182.5 c 128,-1,41
 428 164 428 164 487 164 c 0,42,43
 588 164 588 164 662.5 195.5 c 128,-1,44
 737 227 737 227 791 279 c 1,45,-1
 897 133 l 1,0,1
EndSplineSet
EndChar

StartChar: dagger
Encoding: 8224 8224 128
Width: 1118
VWidth: 2048
Flags: W
LayerCount: 2
Fore
SplineSet
778 907 m 1,0,-1
 541 922 l 1,1,-1
 553 373 l 1,2,-1
 381 373 l 1,3,-1
 395 922 l 1,4,-1
 158 907 l 1,5,-1
 158 1081 l 1,6,-1
 395 1067 l 1,7,-1
 381 1305 l 1,8,-1
 553 1305 l 1,9,-1
 541 1067 l 1,10,-1
 778 1081 l 1,11,-1
 778 907 l 1,0,-1
EndSplineSet
EndChar

StartChar: degree
Encoding: 176 176 129
Width: 1118
VWidth: 2048
Flags: W
LayerCount: 2
Fore
SplineSet
0 1118 m 0,0,1
 0 1194 0 1194 29.5 1262.5 c 128,-1,2
 59 1331 59 1331 109.5 1381.5 c 128,-1,3
 160 1432 160 1432 227.5 1461.5 c 128,-1,4
 295 1491 295 1491 373 1491 c 0,5,6
 449 1491 449 1491 517.5 1461.5 c 128,-1,7
 586 1432 586 1432 636 1381.5 c 128,-1,8
 686 1331 686 1331 715.5 1262.5 c 128,-1,9
 745 1194 745 1194 745 1118 c 0,10,11
 745 1040 745 1040 715.5 972.5 c 128,-1,12
 686 905 686 905 636 855 c 128,-1,13
 586 805 586 805 517.5 775 c 128,-1,14
 449 745 449 745 373 745 c 0,15,16
 295 745 295 745 227.5 775 c 128,-1,17
 160 805 160 805 109.5 855 c 128,-1,18
 59 905 59 905 29.5 972.5 c 128,-1,19
 0 1040 0 1040 0 1118 c 0,0,1
141 1116 m 256,20,21
 141 1069 141 1069 159.5 1027 c 128,-1,22
 178 985 178 985 209 954.5 c 128,-1,23
 240 924 240 924 282 905.5 c 128,-1,24
 324 887 324 887 371 887 c 256,25,26
 418 887 418 887 460 905.5 c 128,-1,27
 502 924 502 924 532.5 954.5 c 128,-1,28
 563 985 563 985 581.5 1027 c 128,-1,29
 600 1069 600 1069 600 1116 c 256,30,31
 600 1163 600 1163 581.5 1205 c 128,-1,32
 563 1247 563 1247 532.5 1278 c 128,-1,33
 502 1309 502 1309 460 1327.5 c 128,-1,34
 418 1346 418 1346 371 1346 c 256,35,36
 324 1346 324 1346 282 1327.5 c 128,-1,37
 240 1309 240 1309 209 1278 c 128,-1,38
 178 1247 178 1247 159.5 1205 c 128,-1,39
 141 1163 141 1163 141 1116 c 256,20,21
EndSplineSet
EndChar

StartChar: cent
Encoding: 162 162 130
Width: 1118
VWidth: 2048
Flags: W
LayerCount: 2
Fore
SplineSet
-20 653 m 0,0,1
 -20 846 -20 846 84 972 c 128,-1,2
 188 1098 188 1098 373 1130 c 1,3,-1
 373 1305 l 1,4,-1
 559 1305 l 1,5,-1
 559 1137 l 1,6,7
 653 1128 653 1128 736 1094.5 c 128,-1,8
 819 1061 819 1061 897 985 c 1,9,-1
 791 840 l 1,10,11
 748 881 748 881 690.5 909.5 c 128,-1,12
 633 938 633 938 559 948 c 1,13,-1
 559 356 l 1,14,15
 633 367 633 367 690.5 396.5 c 128,-1,16
 748 426 748 426 791 467 c 1,17,-1
 897 322 l 1,18,19
 819 244 819 244 736 210 c 128,-1,20
 653 176 653 176 559 168 c 1,21,-1
 559 0 l 1,22,-1
 373 0 l 1,23,-1
 373 176 l 1,24,25
 188 209 188 209 84 335 c 128,-1,26
 -20 461 -20 461 -20 653 c 0,0,1
186 653 m 0,27,28
 186 537 186 537 238.5 468 c 128,-1,29
 291 399 291 399 373 371 c 1,30,-1
 373 936 l 1,31,32
 291 907 291 907 238.5 838.5 c 128,-1,33
 186 770 186 770 186 653 c 0,27,28
EndSplineSet
EndChar

StartChar: sterling
Encoding: 163 163 131
Width: 1118
VWidth: 2048
Flags: W
LayerCount: 2
Fore
SplineSet
0 745 m 1,0,-1
 186 745 l 1,1,-1
 186 975 l 2,2,3
 186 1051 186 1051 213 1116.5 c 128,-1,4
 240 1182 240 1182 286 1228 c 128,-1,5
 332 1274 332 1274 393.5 1300.5 c 128,-1,6
 455 1327 455 1327 522 1327 c 0,7,8
 645 1327 645 1327 730 1261.5 c 128,-1,9
 815 1196 815 1196 838 1075 c 1,10,-1
 651 1030 l 1,11,12
 621 1141 621 1141 522 1141 c 0,13,14
 465 1141 465 1141 429 1103 c 128,-1,15
 393 1065 393 1065 393 975 c 2,16,-1
 393 745 l 1,17,-1
 580 745 l 1,18,-1
 580 559 l 1,19,-1
 393 559 l 1,20,-1
 393 373 l 2,21,22
 393 307 393 307 367.5 258 c 128,-1,23
 342 209 342 209 301 186 c 1,24,-1
 473 186 l 2,25,26
 541 186 541 186 589 194.5 c 128,-1,27
 637 203 637 203 674 223.5 c 128,-1,28
 711 244 711 244 738.5 279.5 c 128,-1,29
 766 315 766 315 795 371 c 1,30,-1
 965 281 l 1,31,32
 899 139 899 139 769 69.5 c 128,-1,33
 639 0 639 0 473 0 c 2,34,-1
 0 0 l 1,35,-1
 0 186 l 1,36,-1
 61 186 l 2,37,38
 96 186 96 186 119.5 198.5 c 128,-1,39
 143 211 143 211 158.5 230.5 c 128,-1,40
 174 250 174 250 180 274.5 c 128,-1,41
 186 299 186 299 186 322 c 2,42,-1
 186 559 l 1,43,-1
 0 559 l 1,44,-1
 0 745 l 1,0,-1
EndSplineSet
EndChar

StartChar: section
Encoding: 167 167 132
Width: 1118
VWidth: 2048
Flags: W
LayerCount: 2
Fore
SplineSet
68 813 m 0,0,1
 68 887 68 887 96.5 954.5 c 128,-1,2
 125 1022 125 1022 170 1065 c 1,3,4
 123 1106 123 1106 95.5 1162.5 c 128,-1,5
 68 1219 68 1219 68 1305 c 0,6,7
 68 1399 68 1399 99.5 1468.5 c 128,-1,8
 131 1538 131 1538 185.5 1584 c 128,-1,9
 240 1630 240 1630 312.5 1652.5 c 128,-1,10
 385 1675 385 1675 467 1675 c 0,11,12
 547 1675 547 1675 621.5 1653.5 c 128,-1,13
 696 1632 696 1632 757.5 1588 c 128,-1,14
 819 1544 819 1544 860 1477.5 c 128,-1,15
 901 1411 901 1411 913 1319 c 1,16,-1
 721 1286 l 1,17,18
 705 1401 705 1401 641.5 1445 c 128,-1,19
 578 1489 578 1489 467 1489 c 0,20,21
 393 1489 393 1489 333.5 1449 c 128,-1,22
 274 1409 274 1409 274 1331 c 0,23,24
 274 1264 274 1264 322.5 1222 c 128,-1,25
 371 1180 371 1180 442.5 1148 c 128,-1,26
 514 1116 514 1116 598 1085.5 c 128,-1,27
 682 1055 682 1055 753.5 1011 c 128,-1,28
 825 967 825 967 873.5 900.5 c 128,-1,29
 922 834 922 834 922 729 c 0,30,31
 922 633 922 633 893 568.5 c 128,-1,32
 864 504 864 504 817 446 c 1,33,34
 864 406 864 406 893 347.5 c 128,-1,35
 922 289 922 289 922 205 c 0,36,37
 922 113 922 113 889 41 c 128,-1,38
 856 -31 856 -31 799.5 -82 c 128,-1,39
 743 -133 743 -133 668.5 -159.5 c 128,-1,40
 594 -186 594 -186 512 -186 c 0,41,42
 426 -186 426 -186 347 -164.5 c 128,-1,43
 268 -143 268 -143 202.5 -99 c 128,-1,44
 137 -55 137 -55 89 13.5 c 128,-1,45
 41 82 41 82 20 178 c 1,46,-1
 207 225 l 1,47,48
 236 121 236 121 307.5 60.5 c 128,-1,49
 379 0 379 0 512 0 c 0,50,51
 594 0 594 0 654.5 48 c 128,-1,52
 715 96 715 96 715 184 c 0,53,54
 715 262 715 262 666.5 307 c 128,-1,55
 618 352 618 352 546.5 383 c 128,-1,56
 475 414 475 414 391 441.5 c 128,-1,57
 307 469 307 469 235.5 513 c 128,-1,58
 164 557 164 557 116 626.5 c 128,-1,59
 68 696 68 696 68 813 c 0,0,1
274 831 m 0,60,61
 274 770 274 770 309 729 c 128,-1,62
 344 688 344 688 398.5 658.5 c 128,-1,63
 453 629 453 629 520.5 604.5 c 128,-1,64
 588 580 588 580 655 549 c 1,65,66
 684 575 684 575 699.5 608 c 128,-1,67
 715 641 715 641 715 694 c 0,68,69
 715 762 715 762 681 804 c 128,-1,70
 647 846 647 846 593 874.5 c 128,-1,71
 539 903 539 903 472.5 924.5 c 128,-1,72
 406 946 406 946 338 971 c 1,73,74
 274 913 274 913 274 831 c 0,60,61
EndSplineSet
EndChar

StartChar: bullet
Encoding: 8226 8226 133
Width: 1118
VWidth: 2048
Flags: W
LayerCount: 2
Fore
SplineSet
186 559 m 0,0,1
 186 635 186 635 216 703.5 c 128,-1,2
 246 772 246 772 296 822 c 128,-1,3
 346 872 346 872 413.5 902 c 128,-1,4
 481 932 481 932 559 932 c 0,5,6
 635 932 635 932 703.5 902 c 128,-1,7
 772 872 772 872 822 822 c 128,-1,8
 872 772 872 772 902 703.5 c 128,-1,9
 932 635 932 635 932 559 c 0,10,11
 932 481 932 481 902 413.5 c 128,-1,12
 872 346 872 346 822 296 c 128,-1,13
 772 246 772 246 703.5 216 c 128,-1,14
 635 186 635 186 559 186 c 0,15,16
 481 186 481 186 413.5 216 c 128,-1,17
 346 246 346 246 296 296 c 128,-1,18
 246 346 246 346 216 413.5 c 128,-1,19
 186 481 186 481 186 559 c 0,0,1
EndSplineSet
EndChar

StartChar: paragraph
Encoding: 182 182 134
Width: 1118
VWidth: 2048
Flags: W
LayerCount: 2
Fore
SplineSet
0 915 m 0,0,1
 0 1108 0 1108 119 1206.5 c 128,-1,2
 238 1305 238 1305 453 1305 c 2,3,-1
 932 1305 l 1,4,-1
 932 0 l 1,5,-1
 725 0 l 1,6,-1
 725 526 l 1,7,-1
 569 526 l 1,8,-1
 569 0 l 1,9,-1
 362 0 l 1,10,-1
 362 532 l 1,11,12
 199 555 199 555 99.5 650 c 128,-1,13
 0 745 0 745 0 915 c 0,0,1
569 1118 m 1,14,-1
 569 713 l 1,15,-1
 725 713 l 1,16,-1
 725 1118 l 1,17,-1
 569 1118 l 1,14,-1
207 915 m 0,18,19
 207 842 207 842 248 783.5 c 128,-1,20
 289 725 289 725 362 717 c 1,21,-1
 362 1114 l 1,22,23
 326 1110 326 1110 297 1092.5 c 128,-1,24
 268 1075 268 1075 247.5 1047.5 c 128,-1,25
 227 1020 227 1020 217 986 c 128,-1,26
 207 952 207 952 207 915 c 0,18,19
EndSplineSet
EndChar

StartChar: germandbls
Encoding: 223 223 135
Width: 1118
VWidth: 2048
Flags: W
LayerCount: 2
Fore
SplineSet
932 268 m 0,0,1
 932 207 932 207 905.5 153.5 c 128,-1,2
 879 100 879 100 831.5 61.5 c 128,-1,3
 784 23 784 23 719.5 0 c 128,-1,4
 655 -23 655 -23 580 -23 c 0,5,6
 481 -23 481 -23 409.5 5 c 128,-1,7
 338 33 338 33 272 86 c 1,8,-1
 389 248 l 1,9,10
 442 199 442 199 486 181.5 c 128,-1,11
 530 164 530 164 580 164 c 0,12,13
 655 164 655 164 690 195.5 c 128,-1,14
 725 227 725 227 725 270 c 0,15,16
 725 311 725 311 695.5 341 c 128,-1,17
 666 371 666 371 623 397.5 c 128,-1,18
 580 424 580 424 527.5 450.5 c 128,-1,19
 475 477 475 477 432 511 c 128,-1,20
 389 545 389 545 359.5 590 c 128,-1,21
 330 635 330 635 330 698 c 0,22,23
 330 772 330 772 362.5 816 c 128,-1,24
 395 860 395 860 435 893 c 128,-1,25
 475 926 475 926 508 958.5 c 128,-1,26
 541 991 541 991 541 1040 c 0,27,28
 541 1077 541 1077 517.5 1109 c 128,-1,29
 494 1141 494 1141 426 1141 c 0,30,31
 326 1141 326 1141 291 1065 c 128,-1,32
 256 989 256 989 256 846 c 2,33,-1
 256 0 l 1,34,-1
 49 0 l 1,35,-1
 49 844 l 2,36,37
 49 920 49 920 61.5 1005 c 128,-1,38
 74 1090 74 1090 114 1161.5 c 128,-1,39
 154 1233 154 1233 228.5 1280 c 128,-1,40
 303 1327 303 1327 426 1327 c 0,41,42
 502 1327 502 1327 561.5 1304.5 c 128,-1,43
 621 1282 621 1282 661.5 1244 c 128,-1,44
 702 1206 702 1206 723.5 1154 c 128,-1,45
 745 1102 745 1102 745 1040 c 0,46,47
 745 958 745 958 712.5 909 c 128,-1,48
 680 860 680 860 640 827.5 c 128,-1,49
 600 795 600 795 567.5 769 c 128,-1,50
 535 743 535 743 535 709 c 0,51,52
 535 682 535 682 564.5 660.5 c 128,-1,53
 594 639 594 639 638 615.5 c 128,-1,54
 682 592 682 592 733 563.5 c 128,-1,55
 784 535 784 535 828 495 c 128,-1,56
 872 455 872 455 902 399.5 c 128,-1,57
 932 344 932 344 932 268 c 0,0,1
EndSplineSet
EndChar

StartChar: registered
Encoding: 174 174 136
Width: 1118
VWidth: 2048
Flags: W
LayerCount: 2
Fore
SplineSet
1118 932 m 0,0,1
 1118 821 1118 821 1076 719.5 c 128,-1,2
 1034 618 1034 618 960.5 541.5 c 128,-1,3
 887 465 887 465 784.5 419 c 128,-1,4
 682 373 682 373 561 373 c 0,5,6
 453 373 453 373 351.5 413 c 128,-1,7
 250 453 250 453 172 526.5 c 128,-1,8
 94 600 94 600 47 702.5 c 128,-1,9
 0 805 0 805 0 932 c 0,10,11
 0 1047 0 1047 44 1149 c 128,-1,12
 88 1251 88 1251 164 1327 c 128,-1,13
 240 1403 240 1403 342 1447 c 128,-1,14
 444 1491 444 1491 561 1491 c 0,15,16
 674 1491 674 1491 774 1449 c 128,-1,17
 874 1407 874 1407 951 1331 c 128,-1,18
 1028 1255 1028 1255 1073 1153 c 128,-1,19
 1118 1051 1118 1051 1118 932 c 0,0,1
1053 932 m 0,20,21
 1053 1032 1053 1032 1015 1121 c 128,-1,22
 977 1210 977 1210 910.5 1278 c 128,-1,23
 844 1346 844 1346 754 1385.5 c 128,-1,24
 664 1425 664 1425 561 1425 c 0,25,26
 459 1425 459 1425 369 1387.5 c 128,-1,27
 279 1350 279 1350 211 1283.5 c 128,-1,28
 143 1217 143 1217 104.5 1126.5 c 128,-1,29
 66 1036 66 1036 66 932 c 0,30,31
 66 827 66 827 104.5 737 c 128,-1,32
 143 647 143 647 209.5 580.5 c 128,-1,33
 276 514 276 514 366.5 476 c 128,-1,34
 457 438 457 438 561 438 c 0,35,36
 662 438 662 438 752 476 c 128,-1,37
 842 514 842 514 908.5 580.5 c 128,-1,38
 975 647 975 647 1014 737 c 128,-1,39
 1053 827 1053 827 1053 932 c 0,20,21
866 596 m 1,40,-1
 659 596 l 1,41,-1
 537 823 l 1,42,-1
 502 823 l 1,43,-1
 502 596 l 1,44,-1
 328 596 l 1,45,-1
 328 1272 l 1,46,-1
 596 1272 l 2,47,48
 647 1272 647 1272 694 1258.5 c 128,-1,49
 741 1245 741 1245 777 1217.5 c 128,-1,50
 813 1190 813 1190 833.5 1147 c 128,-1,51
 854 1104 854 1104 854 1047 c 0,52,53
 854 967 854 967 824.5 916.5 c 128,-1,54
 795 866 795 866 713 829 c 1,55,-1
 866 596 l 1,40,-1
682 1047 m 0,56,57
 682 1092 682 1092 659.5 1112.5 c 128,-1,58
 637 1133 637 1133 596 1133 c 2,59,-1
 502 1133 l 1,60,-1
 502 965 l 1,61,-1
 596 965 l 2,62,63
 637 965 637 965 659.5 989.5 c 128,-1,64
 682 1014 682 1014 682 1047 c 0,56,57
EndSplineSet
EndChar

StartChar: copyright
Encoding: 169 169 137
Width: 1118
VWidth: 2048
Flags: W
LayerCount: 2
Fore
SplineSet
864 532 m 1,0,1
 768 385 768 385 563 385 c 0,2,3
 483 385 483 385 415.5 411.5 c 128,-1,4
 348 438 348 438 301 486.5 c 128,-1,5
 254 535 254 535 227.5 601.5 c 128,-1,6
 201 668 201 668 201 748 c 0,7,8
 201 823 201 823 225.5 888.5 c 128,-1,9
 250 954 250 954 297 1003.5 c 128,-1,10
 344 1053 344 1053 410.5 1081.5 c 128,-1,11
 477 1110 477 1110 563 1110 c 0,12,13
 768 1110 768 1110 864 963 c 1,14,-1
 723 864 l 1,15,16
 678 946 678 946 563 946 c 0,17,18
 479 946 479 946 432 890 c 128,-1,19
 385 834 385 834 385 748 c 256,20,21
 385 662 385 662 431 605.5 c 128,-1,22
 477 549 477 549 563 549 c 0,23,24
 678 549 678 549 723 631 c 1,25,-1
 864 532 l 1,0,1
1118 745 m 0,26,27
 1118 635 1118 635 1076 533.5 c 128,-1,28
 1034 432 1034 432 960.5 355.5 c 128,-1,29
 887 279 887 279 784.5 232.5 c 128,-1,30
 682 186 682 186 561 186 c 0,31,32
 453 186 453 186 351.5 226 c 128,-1,33
 250 266 250 266 172 340 c 128,-1,34
 94 414 94 414 47 516 c 128,-1,35
 0 618 0 618 0 745 c 0,36,37
 0 860 0 860 44 962.5 c 128,-1,38
 88 1065 88 1065 164 1141 c 128,-1,39
 240 1217 240 1217 342 1261 c 128,-1,40
 444 1305 444 1305 561 1305 c 0,41,42
 674 1305 674 1305 774 1263 c 128,-1,43
 874 1221 874 1221 951 1145 c 128,-1,44
 1028 1069 1028 1069 1073 966.5 c 128,-1,45
 1118 864 1118 864 1118 745 c 0,26,27
1053 745 m 0,46,47
 1053 846 1053 846 1015 935 c 128,-1,48
 977 1024 977 1024 910.5 1091.5 c 128,-1,49
 844 1159 844 1159 754 1199 c 128,-1,50
 664 1239 664 1239 561 1239 c 0,51,52
 459 1239 459 1239 369 1201 c 128,-1,53
 279 1163 279 1163 211 1096.5 c 128,-1,54
 143 1030 143 1030 104.5 940 c 128,-1,55
 66 850 66 850 66 745 c 0,56,57
 66 641 66 641 104.5 551 c 128,-1,58
 143 461 143 461 209.5 394.5 c 128,-1,59
 276 328 276 328 366.5 290 c 128,-1,60
 457 252 457 252 561 252 c 0,61,62
 662 252 662 252 752 290 c 128,-1,63
 842 328 842 328 908.5 394.5 c 128,-1,64
 975 461 975 461 1014 551 c 128,-1,65
 1053 641 1053 641 1053 745 c 0,46,47
EndSplineSet
EndChar

StartChar: trademark
Encoding: 8482 8482 138
Width: 1118
VWidth: 2048
Flags: W
LayerCount: 2
Fore
SplineSet
1120 932 m 1,0,-1
 1010 932 l 1,1,-1
 1010 1325 l 1,2,-1
 879 991 l 1,3,-1
 801 991 l 1,4,-1
 672 1325 l 1,5,-1
 672 932 l 1,6,-1
 561 932 l 1,7,-1
 561 1491 l 1,8,-1
 719 1491 l 1,9,-1
 840 1163 l 1,10,-1
 961 1491 l 1,11,-1
 1120 1491 l 1,12,-1
 1120 932 l 1,0,-1
465 1378 m 1,13,-1
 289 1378 l 1,14,-1
 289 932 l 1,15,-1
 176 932 l 1,16,-1
 176 1378 l 1,17,-1
 0 1378 l 1,18,-1
 0 1491 l 1,19,-1
 465 1491 l 1,20,-1
 465 1378 l 1,13,-1
EndSplineSet
EndChar

StartChar: acute
Encoding: 180 180 139
Width: 1118
VWidth: 2048
Flags: W
LayerCount: 2
Fore
SplineSet
711 1225 m 1,0,-1
 279 981 l 1,1,-1
 190 1118 l 1,2,-1
 594 1405 l 1,3,-1
 711 1225 l 1,0,-1
EndSplineSet
EndChar

StartChar: dieresis
Encoding: 168 168 140
Width: 1118
VWidth: 2048
Flags: W
LayerCount: 2
Fore
SplineSet
778 1053 m 1,0,-1
 526 1053 l 1,1,-1
 526 1305 l 1,2,-1
 778 1305 l 1,3,-1
 778 1053 l 1,0,-1
406 1053 m 1,4,-1
 154 1053 l 1,5,-1
 154 1305 l 1,6,-1
 406 1305 l 1,7,-1
 406 1053 l 1,4,-1
EndSplineSet
EndChar

StartChar: notequal
Encoding: 8800 8800 141
Width: 1118
VWidth: 2048
Flags: W
LayerCount: 2
Fore
SplineSet
334 385 m 1,0,-1
 424 572 l 1,1,-1
 0 572 l 1,2,-1
 0 758 l 1,3,-1
 514 758 l 1,4,-1
 604 944 l 1,5,-1
 776 944 l 1,6,-1
 686 758 l 1,7,-1
 932 758 l 1,8,-1
 932 572 l 1,9,-1
 596 572 l 1,10,-1
 506 385 l 1,11,-1
 932 385 l 1,12,-1
 932 199 l 1,13,-1
 418 199 l 1,14,-1
 328 13 l 1,15,-1
 156 13 l 1,16,-1
 246 199 l 1,17,-1
 0 199 l 1,18,-1
 0 385 l 1,19,-1
 334 385 l 1,0,-1
EndSplineSet
EndChar

StartChar: AE
Encoding: 198 198 142
Width: 1118
VWidth: 2048
Flags: W
LayerCount: 2
Fore
SplineSet
395 0 m 1,0,-1
 395 311 l 1,1,-1
 225 311 l 1,2,-1
 150 0 l 1,3,-1
 -63 0 l 1,4,-1
 301 1305 l 1,5,-1
 932 1305 l 1,6,-1
 932 1118 l 1,7,-1
 602 1118 l 1,8,-1
 602 758 l 1,9,-1
 883 758 l 1,10,-1
 883 571 l 1,11,-1
 602 571 l 1,12,-1
 602 186 l 1,13,-1
 932 186 l 1,14,-1
 932 0 l 1,15,-1
 395 0 l 1,0,-1
268 494 m 1,16,-1
 395 494 l 1,17,-1
 395 1010 l 1,18,-1
 268 494 l 1,16,-1
EndSplineSet
EndChar

StartChar: Oslash
Encoding: 216 216 143
Width: 1118
VWidth: 2048
Flags: W
LayerCount: 2
Fore
SplineSet
-33 653 m 0,0,1
 -33 784 -33 784 -5 906 c 128,-1,2
 23 1028 23 1028 82 1121 c 128,-1,3
 141 1214 141 1214 236.5 1270.5 c 128,-1,4
 332 1327 332 1327 467 1327 c 0,5,6
 600 1327 600 1327 693 1275 c 128,-1,7
 786 1223 786 1223 846 1133 c 1,8,-1
 979 1266 l 1,9,-1
 979 1044 l 1,10,-1
 918 983 l 1,11,12
 967 831 967 831 967 653 c 0,13,14
 967 522 967 522 940 400.5 c 128,-1,15
 913 279 913 279 854 184.5 c 128,-1,16
 795 90 795 90 699.5 33.5 c 128,-1,17
 604 -23 604 -23 467 -23 c 0,18,19
 338 -23 338 -23 247 25.5 c 128,-1,20
 156 74 156 74 96 158 c 1,21,-1
 -41 20 l 1,22,-1
 -41 242 l 1,23,-1
 20 303 l 1,24,25
 -8 381 -8 381 -20.5 470 c 128,-1,26
 -33 559 -33 559 -33 653 c 0,0,1
174 653 m 0,27,28
 174 606 174 606 176 561 c 128,-1,29
 178 516 178 516 186 471 c 1,30,-1
 700 985 l 1,31,32
 666 1055 666 1055 609.5 1098 c 128,-1,33
 553 1141 553 1141 467 1141 c 0,34,35
 324 1141 324 1141 249 1012 c 128,-1,36
 174 883 174 883 174 653 c 0,27,28
467 164 m 0,37,38
 555 164 555 164 611.5 207 c 128,-1,39
 668 250 668 250 700.5 319.5 c 128,-1,40
 733 389 733 389 746.5 477 c 128,-1,41
 760 565 760 565 760 653 c 0,42,43
 760 694 760 694 757 733 c 128,-1,44
 754 772 754 772 750 813 c 1,45,-1
 242 303 l 1,46,47
 276 240 276 240 329.5 202 c 128,-1,48
 383 164 383 164 467 164 c 0,37,38
EndSplineSet
EndChar

StartChar: infinity
Encoding: 8734 8734 144
Width: 1118
VWidth: 2048
Flags: W
LayerCount: 2
Fore
SplineSet
950 465 m 256,0,1
 950 414 950 414 932.5 369 c 128,-1,2
 915 324 915 324 883.5 291 c 128,-1,3
 852 258 852 258 808 239 c 128,-1,4
 764 220 764 220 713 220 c 0,5,6
 641 220 641 220 582.5 253.5 c 128,-1,7
 524 287 524 287 471 377 c 1,8,9
 418 289 418 289 362.5 254.5 c 128,-1,10
 307 220 307 220 229 220 c 0,11,12
 180 220 180 220 137 239 c 128,-1,13
 94 258 94 258 61.5 291 c 128,-1,14
 29 324 29 324 10.5 369 c 128,-1,15
 -8 414 -8 414 -8 465 c 256,16,17
 -8 516 -8 516 10.5 561.5 c 128,-1,18
 29 607 29 607 60.5 639.5 c 128,-1,19
 92 672 92 672 135 690.5 c 128,-1,20
 178 709 178 709 229 709 c 0,21,22
 307 709 307 709 362.5 674 c 128,-1,23
 418 639 418 639 471 549 c 1,24,25
 524 639 524 639 582.5 674 c 128,-1,26
 641 709 641 709 713 709 c 0,27,28
 762 709 762 709 805 690.5 c 128,-1,29
 848 672 848 672 880.5 639.5 c 128,-1,30
 913 607 913 607 931.5 561.5 c 128,-1,31
 950 516 950 516 950 465 c 256,0,1
387 465 m 1,32,33
 334 576 334 576 238 576 c 0,34,35
 193 576 193 576 160 544 c 128,-1,36
 127 512 127 512 127 465 c 256,37,38
 127 418 127 418 157.5 385.5 c 128,-1,39
 188 353 188 353 238 353 c 0,40,41
 336 353 336 353 387 465 c 1,32,33
555 465 m 1,42,43
 606 353 606 353 705 353 c 0,44,45
 754 353 754 353 784.5 385.5 c 128,-1,46
 815 418 815 418 815 465 c 256,47,48
 815 512 815 512 782.5 544 c 128,-1,49
 750 576 750 576 705 576 c 0,50,51
 606 576 606 576 555 465 c 1,42,43
EndSplineSet
EndChar

StartChar: plusminus
Encoding: 177 177 145
Width: 1118
VWidth: 2048
Flags: W
LayerCount: 2
Fore
SplineSet
932 385 m 1,0,-1
 559 385 l 1,1,-1
 559 62 l 1,2,-1
 373 62 l 1,3,-1
 373 385 l 1,4,-1
 0 385 l 1,5,-1
 0 572 l 1,6,-1
 373 572 l 1,7,-1
 373 944 l 1,8,-1
 559 944 l 1,9,-1
 559 572 l 1,10,-1
 932 572 l 1,11,-1
 932 385 l 1,0,-1
932 -186 m 1,12,-1
 0 -186 l 1,13,-1
 0 0 l 1,14,-1
 932 0 l 1,15,-1
 932 -186 l 1,12,-1
EndSplineSet
EndChar

StartChar: lessequal
Encoding: 8804 8804 146
Width: 1118
VWidth: 2048
Flags: W
LayerCount: 2
Fore
SplineSet
829 88 m 1,0,-1
 741 0 l 1,1,-1
 932 0 l 1,2,-1
 932 -186 l 1,3,-1
 186 -186 l 1,4,-1
 186 0 l 1,5,-1
 678 0 l 1,6,-1
 199 480 l 1,7,-1
 711 992 l 1,8,-1
 829 871 l 1,9,-1
 438 480 l 1,10,-1
 829 88 l 1,0,-1
EndSplineSet
EndChar

StartChar: greaterequal
Encoding: 8805 8805 147
Width: 1118
VWidth: 2048
Flags: W
LayerCount: 2
Fore
SplineSet
680 480 m 1,0,-1
 289 871 l 1,1,-1
 408 992 l 1,2,-1
 920 480 l 1,3,-1
 440 0 l 1,4,-1
 932 0 l 1,5,-1
 932 -186 l 1,6,-1
 186 -186 l 1,7,-1
 186 0 l 1,8,-1
 375 0 l 1,9,-1
 289 88 l 1,10,-1
 680 480 l 1,0,-1
EndSplineSet
EndChar

StartChar: yen
Encoding: 165 165 148
Width: 1118
VWidth: 2048
Flags: W
LayerCount: 2
Fore
SplineSet
365 559 m 1,0,-1
 365 563 l 1,1,-1
 281 745 l 1,2,-1
 0 745 l 1,3,-1
 0 932 l 1,4,-1
 197 932 l 1,5,-1
 29 1305 l 1,6,-1
 244 1305 l 1,7,-1
 469 750 l 1,8,-1
 692 1305 l 1,9,-1
 907 1305 l 1,10,-1
 737 932 l 1,11,-1
 932 932 l 1,12,-1
 932 745 l 1,13,-1
 653 745 l 1,14,-1
 571 563 l 1,15,-1
 571 559 l 1,16,-1
 932 559 l 1,17,-1
 932 373 l 1,18,-1
 571 373 l 1,19,-1
 571 0 l 1,20,-1
 365 0 l 1,21,-1
 365 373 l 1,22,-1
 0 373 l 1,23,-1
 0 559 l 1,24,-1
 365 559 l 1,0,-1
EndSplineSet
EndChar

StartChar: mu
Encoding: 181 181 149
Width: 1118
VWidth: 2048
Flags: W
LayerCount: 2
Fore
SplineSet
406 -23 m 0,0,1
 307 -23 307 -23 258 31 c 1,2,-1
 258 -373 l 1,3,-1
 49 -373 l 1,4,-1
 49 932 l 1,5,-1
 258 932 l 1,6,-1
 258 354 l 2,7,8
 258 246 258 246 299 205 c 128,-1,9
 340 164 340 164 418 164 c 0,10,11
 532 164 532 164 604 256 c 128,-1,12
 676 348 676 348 676 512 c 2,13,-1
 676 932 l 1,14,-1
 883 932 l 1,15,-1
 883 0 l 1,16,-1
 676 0 l 1,17,-1
 676 231 l 1,18,19
 645 111 645 111 568.5 44 c 128,-1,20
 492 -23 492 -23 406 -23 c 0,0,1
EndSplineSet
EndChar

StartChar: partialdiff
Encoding: 8706 8706 150
Width: 1118
VWidth: 2048
Flags: W
LayerCount: 2
Fore
SplineSet
-20 354 m 0,0,1
 -20 457 -20 457 28 537.5 c 128,-1,2
 76 618 76 618 165 679.5 c 128,-1,3
 254 741 254 741 379 783 c 128,-1,4
 504 825 504 825 657 850 c 1,5,6
 588 954 588 954 471 1022 c 128,-1,7
 354 1090 354 1090 201 1147 c 1,8,-1
 264 1327 l 1,9,10
 399 1274 399 1274 524 1205.5 c 128,-1,11
 649 1137 649 1137 743.5 1042.5 c 128,-1,12
 838 948 838 948 894 824 c 128,-1,13
 950 700 950 700 950 537 c 0,14,15
 950 408 950 408 914.5 304.5 c 128,-1,16
 879 201 879 201 811 128 c 128,-1,17
 743 55 743 55 647 16 c 128,-1,18
 551 -23 551 -23 430 -23 c 0,19,20
 225 -23 225 -23 102.5 73.5 c 128,-1,21
 -20 170 -20 170 -20 354 c 0,0,1
743 537 m 0,22,23
 743 608 743 608 731 670 c 1,24,25
 475 647 475 647 330.5 565 c 128,-1,26
 186 483 186 483 186 354 c 0,27,28
 186 262 186 262 250.5 213 c 128,-1,29
 315 164 315 164 430 164 c 0,30,31
 569 164 569 164 656 260 c 128,-1,32
 743 356 743 356 743 537 c 0,22,23
EndSplineSet
EndChar

StartChar: summation
Encoding: 8721 8721 151
Width: 1118
VWidth: 2048
Flags: W
LayerCount: 2
Fore
SplineSet
883 0 m 1,0,-1
 43 0 l 1,1,-1
 43 186 l 1,2,-1
 338 651 l 1,3,-1
 43 1118 l 1,4,-1
 43 1305 l 1,5,-1
 883 1305 l 1,6,-1
 883 864 l 1,7,-1
 696 864 l 1,8,-1
 696 1118 l 1,9,-1
 295 1118 l 1,10,-1
 582 651 l 1,11,-1
 295 186 l 1,12,-1
 696 186 l 1,13,-1
 696 442 l 1,14,-1
 883 442 l 1,15,-1
 883 0 l 1,0,-1
EndSplineSet
EndChar

StartChar: product
Encoding: 8719 8719 152
Width: 1118
VWidth: 2048
Flags: W
LayerCount: 2
Fore
SplineSet
932 1118 m 1,0,-1
 756 1118 l 1,1,-1
 756 0 l 1,2,-1
 549 0 l 1,3,-1
 549 1118 l 1,4,-1
 383 1118 l 1,5,-1
 383 0 l 1,6,-1
 176 0 l 1,7,-1
 176 1118 l 1,8,-1
 0 1118 l 1,9,-1
 0 1305 l 1,10,-1
 932 1305 l 1,11,-1
 932 1118 l 1,0,-1
EndSplineSet
EndChar

StartChar: pi
Encoding: 960 960 153
Width: 1118
VWidth: 2048
Flags: W
LayerCount: 2
Fore
SplineSet
766 268 m 2,0,1
 766 219 766 219 790.5 189.5 c 128,-1,2
 815 160 815 160 866 160 c 0,3,4
 895 160 895 160 912.5 164 c 128,-1,5
 930 168 930 168 944 176 c 1,6,-1
 971 2 l 1,7,8
 930 -23 930 -23 848 -23 c 0,9,10
 707 -23 707 -23 633 46 c 128,-1,11
 559 115 559 115 559 268 c 2,12,-1
 559 745 l 1,13,-1
 373 745 l 1,14,15
 373 647 373 647 370 556 c 128,-1,16
 367 465 367 465 361.5 376 c 128,-1,17
 356 287 356 287 348 194.5 c 128,-1,18
 340 102 340 102 330 0 c 1,19,-1
 121 0 l 1,20,21
 133 100 133 100 141.5 190.5 c 128,-1,22
 150 281 150 281 155 370 c 128,-1,23
 160 459 160 459 163 551 c 128,-1,24
 166 643 166 643 166 745 c 1,25,-1
 0 745 l 1,26,-1
 0 932 l 1,27,-1
 932 932 l 1,28,-1
 932 745 l 1,29,-1
 766 745 l 1,30,-1
 766 268 l 2,0,1
EndSplineSet
EndChar

StartChar: integral
Encoding: 8747 8747 154
Width: 1118
VWidth: 2048
Flags: W
LayerCount: 2
Fore
SplineSet
932 1497 m 1,0,1
 872 1503 872 1503 825 1503 c 0,2,3
 678 1503 678 1503 623.5 1457 c 128,-1,4
 569 1411 569 1411 569 1309 c 2,5,-1
 569 -16 l 2,6,7
 569 -207 569 -207 451.5 -301 c 128,-1,8
 334 -395 334 -395 133 -395 c 0,9,10
 102 -395 102 -395 68.5 -393 c 128,-1,11
 35 -391 35 -391 0 -387 c 1,12,-1
 0 -203 l 1,13,14
 57 -209 57 -209 106 -209 c 0,15,16
 252 -209 252 -209 307 -163 c 128,-1,17
 362 -117 362 -117 362 -16 c 2,18,-1
 362 1309 l 2,19,20
 362 1499 362 1499 481 1594.5 c 128,-1,21
 600 1690 600 1690 801 1690 c 0,22,23
 831 1690 831 1690 864 1686.5 c 128,-1,24
 897 1683 897 1683 932 1679 c 1,25,-1
 932 1497 l 1,0,1
EndSplineSet
EndChar

StartChar: ordfeminine
Encoding: 170 170 155
Width: 1118
VWidth: 2048
Flags: W
LayerCount: 2
Fore
SplineSet
-8 780 m 0,0,1
 -8 850 -8 850 26.5 899 c 128,-1,2
 61 948 61 948 119.5 977 c 128,-1,3
 178 1006 178 1006 251 1019 c 128,-1,4
 324 1032 324 1032 401 1032 c 0,5,6
 432 1032 432 1032 450.5 1032 c 128,-1,7
 469 1032 469 1032 484.5 1030 c 128,-1,8
 500 1028 500 1028 516 1026 c 128,-1,9
 532 1024 532 1024 559 1020 c 1,10,-1
 559 1079 l 2,11,12
 559 1128 559 1128 512 1152 c 128,-1,13
 465 1176 465 1176 389 1176 c 0,14,15
 317 1176 317 1176 240.5 1159.5 c 128,-1,16
 164 1143 164 1143 98 1106 c 1,17,-1
 35 1235 l 1,18,19
 96 1276 96 1276 185 1299.5 c 128,-1,20
 274 1323 274 1323 389 1323 c 0,21,22
 461 1323 461 1323 525.5 1309.5 c 128,-1,23
 590 1296 590 1296 639 1266.5 c 128,-1,24
 688 1237 688 1237 716.5 1191 c 128,-1,25
 745 1145 745 1145 745 1079 c 2,26,-1
 745 559 l 1,27,-1
 559 559 l 1,28,-1
 559 668 l 1,29,30
 512 616 512 616 442.5 578.5 c 128,-1,31
 373 541 373 541 268 541 c 0,32,33
 133 541 133 541 62.5 608.5 c 128,-1,34
 -8 676 -8 676 -8 780 c 0,0,1
313 688 m 0,35,36
 354 688 354 688 398 699.5 c 128,-1,37
 442 711 442 711 478 728 c 128,-1,38
 514 745 514 745 536.5 768 c 128,-1,39
 559 791 559 791 559 813 c 2,40,-1
 559 879 l 1,41,42
 506 887 506 887 472 888 c 128,-1,43
 438 889 438 889 401 889 c 0,44,45
 170 889 170 889 170 780 c 0,46,47
 170 745 170 745 198.5 716.5 c 128,-1,48
 227 688 227 688 313 688 c 0,35,36
745 199 m 1,49,-1
 0 199 l 1,50,-1
 0 385 l 1,51,-1
 745 385 l 1,52,-1
 745 199 l 1,49,-1
EndSplineSet
EndChar

StartChar: ordmasculine
Encoding: 186 186 156
Width: 1118
VWidth: 2048
Flags: W
LayerCount: 2
Fore
SplineSet
764 930 m 0,0,1
 764 844 764 844 735.5 771 c 128,-1,2
 707 698 707 698 655.5 647 c 128,-1,3
 604 596 604 596 531.5 567.5 c 128,-1,4
 459 539 459 539 373 539 c 256,5,6
 287 539 287 539 214 566.5 c 128,-1,7
 141 594 141 594 89 645 c 128,-1,8
 37 696 37 696 8.5 768 c 128,-1,9
 -20 840 -20 840 -20 930 c 0,10,11
 -20 1018 -20 1018 8.5 1091.5 c 128,-1,12
 37 1165 37 1165 89 1216.5 c 128,-1,13
 141 1268 141 1268 214 1296.5 c 128,-1,14
 287 1325 287 1325 373 1325 c 256,15,16
 459 1325 459 1325 531.5 1296.5 c 128,-1,17
 604 1268 604 1268 655.5 1216.5 c 128,-1,18
 707 1165 707 1165 735.5 1091.5 c 128,-1,19
 764 1018 764 1018 764 930 c 0,0,1
588 930 m 0,20,21
 588 1044 588 1044 528.5 1109 c 128,-1,22
 469 1174 469 1174 373 1174 c 0,23,24
 276 1174 276 1174 216 1109 c 128,-1,25
 156 1044 156 1044 156 930 c 0,26,27
 156 815 156 815 215 752.5 c 128,-1,28
 274 690 274 690 373 690 c 0,29,30
 471 690 471 690 529.5 752.5 c 128,-1,31
 588 815 588 815 588 930 c 0,20,21
745 199 m 1,32,-1
 0 199 l 1,33,-1
 0 385 l 1,34,-1
 745 385 l 1,35,-1
 745 199 l 1,32,-1
EndSplineSet
EndChar

StartChar: Omega
Encoding: 8486 8486 157
Width: 1118
VWidth: 2048
Flags: W
LayerCount: 2
Fore
SplineSet
952 741 m 0,0,1
 952 596 952 596 900 460 c 128,-1,2
 848 324 848 324 723 231 c 1,3,-1
 723 186 l 1,4,-1
 932 186 l 1,5,-1
 932 0 l 1,6,-1
 559 0 l 1,7,-1
 559 358 l 1,8,9
 614 383 614 383 650 425 c 128,-1,10
 686 467 686 467 707.5 519 c 128,-1,11
 729 571 729 571 737 629.5 c 128,-1,12
 745 688 745 688 745 741 c 0,13,14
 745 811 745 811 730 882.5 c 128,-1,15
 715 954 715 954 682 1011.5 c 128,-1,16
 649 1069 649 1069 596 1105 c 128,-1,17
 543 1141 543 1141 467 1141 c 0,18,19
 393 1141 393 1141 341 1105 c 128,-1,20
 289 1069 289 1069 254 1011.5 c 128,-1,21
 219 954 219 954 202.5 882.5 c 128,-1,22
 186 811 186 811 186 741 c 0,23,24
 186 688 186 688 194.5 629.5 c 128,-1,25
 203 571 203 571 224.5 519 c 128,-1,26
 246 467 246 467 281.5 425 c 128,-1,27
 317 383 317 383 373 358 c 1,28,-1
 373 0 l 1,29,-1
 0 0 l 1,30,-1
 0 186 l 1,31,-1
 213 186 l 1,32,-1
 213 231 l 1,33,34
 92 317 92 317 36 454.5 c 128,-1,35
 -20 592 -20 592 -20 741 c 0,36,37
 -20 854 -20 854 11.5 960.5 c 128,-1,38
 43 1067 43 1067 104.5 1148 c 128,-1,39
 166 1229 166 1229 257 1278 c 128,-1,40
 348 1327 348 1327 467 1327 c 256,41,42
 586 1327 586 1327 676 1278 c 128,-1,43
 766 1229 766 1229 827.5 1148 c 128,-1,44
 889 1067 889 1067 920.5 960.5 c 128,-1,45
 952 854 952 854 952 741 c 0,0,1
EndSplineSet
EndChar

StartChar: ae
Encoding: 230 230 158
Width: 1118
VWidth: 2048
Flags: W
LayerCount: 2
Fore
SplineSet
451 131 m 1,0,1
 412 66 412 66 360.5 21.5 c 128,-1,2
 309 -23 309 -23 229 -23 c 0,3,4
 168 -23 168 -23 122 0 c 128,-1,5
 76 23 76 23 44 60.5 c 128,-1,6
 12 98 12 98 -4 148.5 c 128,-1,7
 -20 199 -20 199 -20 254 c 0,8,9
 -20 334 -20 334 5.5 395.5 c 128,-1,10
 31 457 31 457 75 498 c 128,-1,11
 119 539 119 539 176 559.5 c 128,-1,12
 233 580 233 580 297 580 c 0,13,14
 319 580 319 580 334.5 579 c 128,-1,15
 350 578 350 578 373 573 c 1,16,-1
 373 633 l 2,17,18
 373 707 373 707 345 738.5 c 128,-1,19
 317 770 317 770 272 770 c 0,20,21
 238 770 238 770 195 751.5 c 128,-1,22
 152 733 152 733 117 674 c 1,23,-1
 -8 793 l 1,24,25
 47 879 47 879 124 916.5 c 128,-1,26
 201 954 201 954 262 954 c 0,27,28
 334 954 334 954 390 925.5 c 128,-1,29
 446 897 446 897 471 825 c 1,30,31
 506 893 506 893 556 923.5 c 128,-1,32
 606 954 606 954 676 954 c 0,33,34
 770 954 770 954 823.5 904 c 128,-1,35
 877 854 877 854 904.5 774 c 128,-1,36
 932 694 932 694 939 593 c 128,-1,37
 946 492 946 492 946 387 c 1,38,-1
 559 387 l 1,39,40
 559 262 559 262 594 215 c 128,-1,41
 629 168 629 168 674 168 c 0,42,43
 707 168 707 168 729.5 186.5 c 128,-1,44
 752 205 752 205 762 248 c 1,45,-1
 936 190 l 1,46,47
 901 82 901 82 838.5 29.5 c 128,-1,48
 776 -23 776 -23 674 -23 c 0,49,50
 645 -23 645 -23 613.5 -15.5 c 128,-1,51
 582 -8 582 -8 552 9.5 c 128,-1,52
 522 27 522 27 495.5 56.5 c 128,-1,53
 469 86 469 86 451 131 c 1,0,1
739 569 m 1,54,55
 735 688 735 688 713.5 729 c 128,-1,56
 692 770 692 770 653 770 c 0,57,58
 610 770 610 770 586.5 725 c 128,-1,59
 563 680 563 680 559 569 c 1,60,-1
 739 569 l 1,54,55
373 391 m 1,61,62
 360 393 360 393 346 394 c 128,-1,63
 332 395 332 395 309 395 c 0,64,65
 260 395 260 395 222 360.5 c 128,-1,66
 184 326 184 326 184 264 c 0,67,68
 184 213 184 213 204.5 189.5 c 128,-1,69
 225 166 225 166 258 166 c 0,70,71
 313 166 313 166 343 215 c 128,-1,72
 373 264 373 264 373 330 c 2,73,-1
 373 391 l 1,61,62
EndSplineSet
EndChar

StartChar: oslash
Encoding: 248 248 159
Width: 1118
VWidth: 2048
Flags: W
LayerCount: 2
Fore
SplineSet
0 180 m 1,0,-1
 39 213 l 1,1,2
 10 266 10 266 -6.5 329.5 c 128,-1,3
 -23 393 -23 393 -23 465 c 0,4,5
 -23 571 -23 571 13 661.5 c 128,-1,6
 49 752 49 752 113.5 817.5 c 128,-1,7
 178 883 178 883 268 918.5 c 128,-1,8
 358 954 358 954 467 954 c 0,9,10
 565 954 565 954 648 923.5 c 128,-1,11
 731 893 731 893 795 840 c 1,12,-1
 932 954 l 1,13,-1
 932 752 l 1,14,-1
 893 719 l 1,15,16
 922 664 922 664 938 600.5 c 128,-1,17
 954 537 954 537 954 465 c 0,18,19
 954 356 954 356 919.5 267 c 128,-1,20
 885 178 885 178 820.5 113.5 c 128,-1,21
 756 49 756 49 667 13 c 128,-1,22
 578 -23 578 -23 467 -23 c 0,23,24
 367 -23 367 -23 284 7 c 128,-1,25
 201 37 201 37 137 90 c 1,26,-1
 0 -23 l 1,27,-1
 0 180 l 1,0,-1
748 465 m 0,28,29
 748 528 748 528 729 584 c 1,30,-1
 291 219 l 1,31,32
 326 193 326 193 370 178.5 c 128,-1,33
 414 164 414 164 467 164 c 0,34,35
 532 164 532 164 584.5 186.5 c 128,-1,36
 637 209 637 209 673 250 c 128,-1,37
 709 291 709 291 728.5 345 c 128,-1,38
 748 399 748 399 748 465 c 0,28,29
184 465 m 0,39,40
 184 399 184 399 203 348 c 1,41,-1
 639 711 l 1,42,43
 569 768 569 768 467 768 c 0,44,45
 401 768 401 768 349 744.5 c 128,-1,46
 297 721 297 721 260 681 c 128,-1,47
 223 641 223 641 203.5 584.5 c 128,-1,48
 184 528 184 528 184 465 c 0,39,40
EndSplineSet
EndChar

StartChar: questiondown
Encoding: 191 191 160
Width: 1118
VWidth: 2048
Flags: W
LayerCount: 2
Fore
SplineSet
209 301 m 0,0,1
 209 375 209 375 235.5 430 c 128,-1,2
 262 485 262 485 301 532.5 c 128,-1,3
 340 580 340 580 387 622 c 128,-1,4
 434 664 434 664 473 709 c 128,-1,5
 512 754 512 754 538.5 808 c 128,-1,6
 565 862 565 862 565 932 c 1,7,-1
 778 932 l 1,8,9
 778 848 778 848 751.5 784.5 c 128,-1,10
 725 721 725 721 684 668.5 c 128,-1,11
 643 616 643 616 597 572 c 128,-1,12
 551 528 551 528 510 485 c 128,-1,13
 469 442 469 442 442.5 397 c 128,-1,14
 416 352 416 352 416 299 c 0,15,16
 416 233 416 233 455 198.5 c 128,-1,17
 494 164 494 164 559 164 c 0,18,19
 657 164 657 164 702.5 218 c 128,-1,20
 748 272 748 272 758 369 c 1,21,-1
 950 340 l 1,22,23
 932 172 932 172 834.5 74.5 c 128,-1,24
 737 -23 737 -23 561 -23 c 0,25,26
 395 -23 395 -23 302 65.5 c 128,-1,27
 209 154 209 154 209 301 c 0,0,1
526 1305 m 1,28,-1
 778 1305 l 1,29,-1
 778 1053 l 1,30,-1
 526 1053 l 1,31,-1
 526 1305 l 1,28,-1
EndSplineSet
EndChar

StartChar: exclamdown
Encoding: 161 161 161
Width: 1118
VWidth: 2048
Flags: W
LayerCount: 2
Fore
SplineSet
516 0 m 1,0,-1
 567 932 l 1,1,-1
 737 932 l 1,2,-1
 788 0 l 1,3,-1
 516 0 l 1,0,-1
778 1053 m 1,4,-1
 526 1053 l 1,5,-1
 526 1305 l 1,6,-1
 778 1305 l 1,7,-1
 778 1053 l 1,4,-1
EndSplineSet
EndChar

StartChar: logicalnot
Encoding: 172 172 162
Width: 1118
VWidth: 2048
Flags: W
LayerCount: 2
Fore
SplineSet
932 13 m 1,0,-1
 745 13 l 1,1,-1
 745 385 l 1,2,-1
 0 385 l 1,3,-1
 0 572 l 1,4,-1
 932 572 l 1,5,-1
 932 13 l 1,0,-1
EndSplineSet
EndChar

StartChar: radical
Encoding: 8730 8730 163
Width: 1118
VWidth: 2048
Flags: W
LayerCount: 2
Fore
SplineSet
932 932 m 1,0,-1
 662 932 l 1,1,-1
 412 0 l 1,2,-1
 190 0 l 1,3,-1
 2 725 l 1,4,-1
 182 774 l 1,5,-1
 303 305 l 1,6,-1
 512 1118 l 1,7,-1
 932 1118 l 1,8,-1
 932 932 l 1,0,-1
EndSplineSet
EndChar

StartChar: florin
Encoding: 402 402 164
Width: 1118
VWidth: 2048
Flags: W
LayerCount: 2
Fore
SplineSet
362 745 m 1,0,-1
 156 745 l 1,1,-1
 156 932 l 1,2,-1
 362 932 l 1,3,4
 362 1124 362 1124 480 1225.5 c 128,-1,5
 598 1327 598 1327 799 1327 c 0,6,7
 829 1327 829 1327 863 1324 c 128,-1,8
 897 1321 897 1321 932 1317 c 1,9,-1
 932 1135 l 1,10,11
 872 1141 872 1141 823 1141 c 0,12,13
 743 1141 743 1141 694 1129.5 c 128,-1,14
 645 1118 645 1118 617.5 1092.5 c 128,-1,15
 590 1067 590 1067 579.5 1027 c 128,-1,16
 569 987 569 987 569 932 c 1,17,-1
 932 932 l 1,18,-1
 932 745 l 1,19,-1
 569 745 l 1,20,-1
 569 -16 l 2,21,22
 569 -207 569 -207 451.5 -301 c 128,-1,23
 334 -395 334 -395 133 -395 c 0,24,25
 102 -395 102 -395 68.5 -393 c 128,-1,26
 35 -391 35 -391 0 -387 c 1,27,-1
 0 -203 l 1,28,29
 57 -209 57 -209 106 -209 c 0,30,31
 252 -209 252 -209 307 -163 c 128,-1,32
 362 -117 362 -117 362 -16 c 2,33,-1
 362 745 l 1,0,-1
EndSplineSet
EndChar

StartChar: approxequal
Encoding: 8776 8776 165
Width: 1118
VWidth: 2048
Flags: W
LayerCount: 2
Fore
SplineSet
989 738 m 1,0,1
 930 615 930 615 844 546.5 c 128,-1,2
 758 478 758 478 641 478 c 0,3,4
 580 478 580 478 534.5 500.5 c 128,-1,5
 489 523 489 523 451.5 550.5 c 128,-1,6
 414 578 414 578 376 601.5 c 128,-1,7
 338 625 338 625 291 625 c 0,8,9
 225 625 225 625 181 586 c 128,-1,10
 137 547 137 547 96 476 c 1,11,-1
 -57 564 l 1,12,13
 2 682 2 682 88 752 c 128,-1,14
 174 822 174 822 291 822 c 0,15,16
 352 822 352 822 397 798.5 c 128,-1,17
 442 775 442 775 480 747 c 128,-1,18
 518 719 518 719 556 695.5 c 128,-1,19
 594 672 594 672 641 672 c 0,20,21
 707 672 707 672 751 713 c 128,-1,22
 795 754 795 754 836 826 c 1,23,-1
 989 738 l 1,0,1
989 367 m 1,24,25
 930 244 930 244 844 175.5 c 128,-1,26
 758 107 758 107 641 107 c 0,27,28
 580 107 580 107 534.5 129.5 c 128,-1,29
 489 152 489 152 451.5 179.5 c 128,-1,30
 414 207 414 207 376 230.5 c 128,-1,31
 338 254 338 254 291 254 c 0,32,33
 225 254 225 254 181 215 c 128,-1,34
 137 176 137 176 96 105 c 1,35,-1
 -57 193 l 1,36,37
 2 312 2 312 88 381.5 c 128,-1,38
 174 451 174 451 291 451 c 0,39,40
 352 451 352 451 397 427.5 c 128,-1,41
 442 404 442 404 480 376.5 c 128,-1,42
 518 349 518 349 556 325 c 128,-1,43
 594 301 594 301 641 301 c 0,44,45
 707 301 707 301 751 342 c 128,-1,46
 795 383 795 383 836 455 c 1,47,-1
 989 367 l 1,24,25
EndSplineSet
EndChar

StartChar: Delta
Encoding: 8710 8710 166
Width: 1118
VWidth: 2048
Flags: W
LayerCount: 2
Fore
SplineSet
-59 0 m 1,0,-1
 348 1305 l 1,1,-1
 586 1305 l 1,2,-1
 993 0 l 1,3,-1
 -59 0 l 1,0,-1
213 184 m 1,4,-1
 721 184 l 1,5,-1
 467 1032 l 1,6,-1
 213 184 l 1,4,-1
EndSplineSet
EndChar

StartChar: guillemotleft
Encoding: 171 171 167
Width: 1118
VWidth: 2048
Flags: W
LayerCount: 2
Fore
SplineSet
457 444 m 1,0,-1
 338 324 l 1,1,-1
 14 651 l 1,2,-1
 338 981 l 1,3,-1
 457 860 l 1,4,-1
 254 651 l 1,5,-1
 457 444 l 1,0,-1
827 444 m 1,6,-1
 709 324 l 1,7,-1
 385 651 l 1,8,-1
 709 981 l 1,9,-1
 827 860 l 1,10,-1
 625 651 l 1,11,-1
 827 444 l 1,6,-1
EndSplineSet
EndChar

StartChar: guillemotright
Encoding: 187 187 168
Width: 1118
VWidth: 2048
Flags: W
LayerCount: 2
Fore
SplineSet
680 651 m 1,0,-1
 477 860 l 1,1,-1
 596 981 l 1,2,-1
 920 651 l 1,3,-1
 596 324 l 1,4,-1
 477 444 l 1,5,-1
 680 651 l 1,0,-1
309 651 m 1,6,-1
 106 860 l 1,7,-1
 225 981 l 1,8,-1
 549 651 l 1,9,-1
 225 324 l 1,10,-1
 106 444 l 1,11,-1
 309 651 l 1,6,-1
EndSplineSet
EndChar

StartChar: ellipsis
Encoding: 8230 8230 169
Width: 1118
VWidth: 2048
Flags: W
LayerCount: 2
Fore
SplineSet
592 0 m 1,0,-1
 340 0 l 1,1,-1
 340 252 l 1,2,-1
 592 252 l 1,3,-1
 592 0 l 1,0,-1
965 0 m 1,4,-1
 713 0 l 1,5,-1
 713 252 l 1,6,-1
 965 252 l 1,7,-1
 965 0 l 1,4,-1
219 0 m 1,8,-1
 -33 0 l 1,9,-1
 -33 252 l 1,10,-1
 219 252 l 1,11,-1
 219 0 l 1,8,-1
EndSplineSet
EndChar

StartChar: OE
Encoding: 338 338 174
Width: 1118
VWidth: 2048
Flags: W
LayerCount: 2
Fore
SplineSet
932 0 m 1,0,-1
 459 0 l 1,1,-1
 459 123 l 1,2,3
 406 -23 406 -23 276 -23 c 0,4,5
 -16 -23 -16 -23 -16 651 c 0,6,7
 -16 1327 -16 1327 276 1327 c 0,8,9
 340 1327 340 1327 386 1288 c 128,-1,10
 432 1249 432 1249 459 1178 c 1,11,-1
 459 1305 l 1,12,-1
 932 1305 l 1,13,-1
 932 1118 l 1,14,-1
 596 1118 l 1,15,-1
 596 758 l 1,16,-1
 842 758 l 1,17,-1
 842 571 l 1,18,-1
 596 571 l 1,19,-1
 596 186 l 1,20,-1
 932 186 l 1,21,-1
 932 0 l 1,0,-1
395 651 m 0,22,23
 395 760 395 760 391 850 c 128,-1,24
 387 940 387 940 377 1004.5 c 128,-1,25
 367 1069 367 1069 346.5 1105 c 128,-1,26
 326 1141 326 1141 295 1141 c 256,27,28
 264 1141 264 1141 243.5 1105 c 128,-1,29
 223 1069 223 1069 211 1004.5 c 128,-1,30
 199 940 199 940 194.5 850 c 128,-1,31
 190 760 190 760 190 651 c 0,32,33
 190 543 190 543 194.5 452.5 c 128,-1,34
 199 362 199 362 211 297.5 c 128,-1,35
 223 233 223 233 243.5 198.5 c 128,-1,36
 264 164 264 164 295 164 c 256,37,38
 326 164 326 164 346.5 198.5 c 128,-1,39
 367 233 367 233 377 297.5 c 128,-1,40
 387 362 387 362 391 452.5 c 128,-1,41
 395 543 395 543 395 651 c 0,22,23
EndSplineSet
EndChar

StartChar: oe
Encoding: 339 339 175
Width: 1118
VWidth: 2048
Flags: W
LayerCount: 2
Fore
SplineSet
569 385 m 1,0,1
 569 289 569 289 595 226.5 c 128,-1,2
 621 164 621 164 674 164 c 0,3,4
 715 164 715 164 737.5 189.5 c 128,-1,5
 760 215 760 215 770 274 c 1,6,-1
 952 221 l 1,7,8
 924 98 924 98 855 37.5 c 128,-1,9
 786 -23 786 -23 694 -23 c 0,10,11
 514 -23 514 -23 465 180 c 1,12,13
 422 -23 422 -23 254 -23 c 0,14,15
 -27 -23 -27 -23 -27 467 c 0,16,17
 -27 954 -27 954 254 954 c 0,18,19
 418 954 418 954 463 762 c 1,20,21
 506 954 506 954 682 954 c 0,22,23
 782 954 782 954 838.5 901 c 128,-1,24
 895 848 895 848 922.5 765 c 128,-1,25
 950 682 950 682 957.5 580.5 c 128,-1,26
 965 479 965 479 965 385 c 1,27,-1
 569 385 l 1,0,1
758 571 m 1,28,29
 758 664 758 664 739.5 716 c 128,-1,30
 721 768 721 768 666 768 c 0,31,32
 610 768 610 768 591.5 716 c 128,-1,33
 573 664 573 664 569 571 c 1,34,-1
 758 571 l 1,28,29
362 467 m 0,35,36
 362 768 362 768 272 768 c 0,37,38
 180 768 180 768 180 467 c 0,39,40
 180 164 180 164 272 164 c 0,41,42
 362 164 362 164 362 467 c 0,35,36
EndSplineSet
EndChar

StartChar: endash
Encoding: 8211 8211 176
Width: 1118
VWidth: 2048
Flags: W
LayerCount: 2
Fore
SplineSet
0 385 m 1,0,-1
 0 571 l 1,1,-1
 932 571 l 1,2,-1
 932 385 l 1,3,-1
 0 385 l 1,0,-1
EndSplineSet
EndChar

StartChar: emdash
Encoding: 8212 8212 177
Width: 1118
VWidth: 2048
Flags: W
LayerCount: 2
Fore
SplineSet
-92 385 m 1,0,-1
 -92 571 l 1,1,-1
 1026 571 l 1,2,-1
 1026 385 l 1,3,-1
 -92 385 l 1,0,-1
EndSplineSet
EndChar

StartChar: quotedblleft
Encoding: 8220 8220 178
Width: 1118
VWidth: 2048
Flags: W
LayerCount: 2
Fore
SplineSet
373 680 m 1,0,-1
 0 680 l 1,1,-1
 0 946 l 2,2,3
 0 1016 0 1016 18.5 1080.5 c 128,-1,4
 37 1145 37 1145 81 1195 c 128,-1,5
 125 1245 125 1245 196.5 1275 c 128,-1,6
 268 1305 268 1305 373 1305 c 1,7,-1
 373 1133 l 1,8,9
 313 1133 313 1133 273 1119.5 c 128,-1,10
 233 1106 233 1106 209.5 1081.5 c 128,-1,11
 186 1057 186 1057 176 1023 c 128,-1,12
 166 989 166 989 166 946 c 2,13,-1
 166 932 l 1,14,-1
 373 932 l 1,15,-1
 373 680 l 1,0,-1
932 680 m 1,16,-1
 559 680 l 1,17,-1
 559 946 l 2,18,19
 559 1016 559 1016 577.5 1080.5 c 128,-1,20
 596 1145 596 1145 640 1195 c 128,-1,21
 684 1245 684 1245 755.5 1275 c 128,-1,22
 827 1305 827 1305 932 1305 c 1,23,-1
 932 1133 l 1,24,25
 872 1133 872 1133 832.5 1119.5 c 128,-1,26
 793 1106 793 1106 769 1081.5 c 128,-1,27
 745 1057 745 1057 735 1023 c 128,-1,28
 725 989 725 989 725 946 c 2,29,-1
 725 932 l 1,30,-1
 932 932 l 1,31,-1
 932 680 l 1,16,-1
EndSplineSet
EndChar

StartChar: quotedblright
Encoding: 8221 8221 179
Width: 1118
VWidth: 2048
Flags: W
LayerCount: 2
Fore
SplineSet
559 1305 m 1,0,-1
 932 1305 l 1,1,-1
 932 1038 l 2,2,3
 932 969 932 969 913.5 904.5 c 128,-1,4
 895 840 895 840 851 789.5 c 128,-1,5
 807 739 807 739 735.5 709.5 c 128,-1,6
 664 680 664 680 559 680 c 1,7,-1
 559 852 l 1,8,9
 678 852 678 852 722 903 c 128,-1,10
 766 954 766 954 766 1038 c 2,11,-1
 766 1053 l 1,12,-1
 559 1053 l 1,13,-1
 559 1305 l 1,0,-1
0 1305 m 1,14,-1
 373 1305 l 1,15,-1
 373 1038 l 2,16,17
 373 969 373 969 354.5 904.5 c 128,-1,18
 336 840 336 840 292 789.5 c 128,-1,19
 248 739 248 739 176 709.5 c 128,-1,20
 104 680 104 680 0 680 c 1,21,-1
 0 852 l 1,22,23
 119 852 119 852 163 903 c 128,-1,24
 207 954 207 954 207 1038 c 2,25,-1
 207 1053 l 1,26,-1
 0 1053 l 1,27,-1
 0 1305 l 1,14,-1
EndSplineSet
EndChar

StartChar: quoteleft
Encoding: 8216 8216 180
Width: 1118
VWidth: 2048
Flags: W
LayerCount: 2
Fore
SplineSet
745 680 m 1,0,-1
 373 680 l 1,1,-1
 373 946 l 2,2,3
 373 1016 373 1016 391.5 1080.5 c 128,-1,4
 410 1145 410 1145 454 1195 c 128,-1,5
 498 1245 498 1245 569.5 1275 c 128,-1,6
 641 1305 641 1305 745 1305 c 1,7,-1
 745 1133 l 1,8,9
 686 1133 686 1133 646 1119.5 c 128,-1,10
 606 1106 606 1106 582.5 1081.5 c 128,-1,11
 559 1057 559 1057 549 1023 c 128,-1,12
 539 989 539 989 539 946 c 2,13,-1
 539 932 l 1,14,-1
 745 932 l 1,15,-1
 745 680 l 1,0,-1
EndSplineSet
EndChar

StartChar: quoteright
Encoding: 8217 8217 181
Width: 1118
VWidth: 2048
Flags: W
LayerCount: 2
Fore
SplineSet
186 1305 m 1,0,-1
 559 1305 l 1,1,-1
 559 1038 l 2,2,3
 559 969 559 969 540.5 904.5 c 128,-1,4
 522 840 522 840 478 789.5 c 128,-1,5
 434 739 434 739 362.5 709.5 c 128,-1,6
 291 680 291 680 186 680 c 1,7,-1
 186 852 l 1,8,9
 305 852 305 852 349 903 c 128,-1,10
 393 954 393 954 393 1038 c 2,11,-1
 393 1053 l 1,12,-1
 186 1053 l 1,13,-1
 186 1305 l 1,0,-1
EndSplineSet
EndChar

StartChar: divide
Encoding: 247 247 182
Width: 1118
VWidth: 2048
Flags: W
LayerCount: 2
Fore
SplineSet
592 725 m 1,0,-1
 340 725 l 1,1,-1
 340 977 l 1,2,-1
 592 977 l 1,3,-1
 592 725 l 1,0,-1
592 -20 m 1,4,-1
 340 -20 l 1,5,-1
 340 232 l 1,6,-1
 592 232 l 1,7,-1
 592 -20 l 1,4,-1
932 385 m 1,8,-1
 0 385 l 1,9,-1
 0 572 l 1,10,-1
 932 572 l 1,11,-1
 932 385 l 1,8,-1
EndSplineSet
EndChar

StartChar: lozenge
Encoding: 9674 9674 183
Width: 1118
VWidth: 2048
Flags: W
LayerCount: 2
Fore
SplineSet
950 467 m 1,0,-1
 467 -16 l 1,1,-1
 -18 467 l 1,2,-1
 467 952 l 1,3,-1
 950 467 l 1,0,-1
756 467 m 1,4,-1
 467 758 l 1,5,-1
 174 467 l 1,6,-1
 467 176 l 1,7,-1
 756 467 l 1,4,-1
EndSplineSet
EndChar

StartChar: fraction
Encoding: 8260 8260 186
Width: 1118
VWidth: 2048
Flags: W
LayerCount: 2
Fore
SplineSet
954 1257 m 1,0,-1
 119 -41 l 1,1,-1
 -18 47 l 1,2,-1
 819 1350 l 1,3,-1
 954 1257 l 1,0,-1
EndSplineSet
EndChar

StartChar: Euro
Encoding: 8364 8364 187
Width: 1118
VWidth: 2048
Flags: W
LayerCount: 2
Fore
SplineSet
0 907 m 1,0,-1
 172 907 l 1,1,2
 188 995 188 995 220 1072 c 128,-1,3
 252 1149 252 1149 300 1206.5 c 128,-1,4
 348 1264 348 1264 413.5 1295.5 c 128,-1,5
 479 1327 479 1327 563 1327 c 0,6,7
 645 1327 645 1327 708.5 1296.5 c 128,-1,8
 772 1266 772 1266 820 1210.5 c 128,-1,9
 868 1155 868 1155 900 1077 c 128,-1,10
 932 999 932 999 952 903 c 1,11,-1
 770 866 l 1,12,13
 745 1006 745 1006 701 1073.5 c 128,-1,14
 657 1141 657 1141 565 1141 c 0,15,16
 485 1141 485 1141 441 1073.5 c 128,-1,17
 397 1006 397 1006 377 907 c 1,18,-1
 559 907 l 1,19,-1
 559 733 l 1,20,-1
 358 733 l 1,21,22
 356 713 356 713 356 693.5 c 128,-1,23
 356 674 356 674 356 653 c 0,24,25
 356 631 356 631 356 611.5 c 128,-1,26
 356 592 356 592 358 571 c 1,27,-1
 559 571 l 1,28,-1
 559 397 l 1,29,-1
 377 397 l 1,30,31
 397 297 397 297 441 230.5 c 128,-1,32
 485 164 485 164 565 164 c 0,33,34
 655 164 655 164 698 231.5 c 128,-1,35
 741 299 741 299 770 436 c 1,36,-1
 952 399 l 1,37,38
 932 303 932 303 900 225 c 128,-1,39
 868 147 868 147 820 92 c 128,-1,40
 772 37 772 37 708.5 7 c 128,-1,41
 645 -23 645 -23 563 -23 c 0,42,43
 479 -23 479 -23 413.5 9 c 128,-1,44
 348 41 348 41 300 97.5 c 128,-1,45
 252 154 252 154 220 230.5 c 128,-1,46
 188 307 188 307 172 397 c 1,47,-1
 0 397 l 1,48,-1
 0 571 l 1,49,-1
 152 571 l 1,50,51
 150 592 150 592 150 611.5 c 128,-1,52
 150 631 150 631 150 653 c 0,53,54
 150 674 150 674 150 693.5 c 128,-1,55
 150 713 150 713 152 733 c 1,56,-1
 0 733 l 1,57,-1
 0 907 l 1,0,-1
EndSplineSet
EndChar

StartChar: guilsinglleft
Encoding: 8249 8249 188
Width: 1118
VWidth: 2048
Flags: W
LayerCount: 2
Fore
SplineSet
641 444 m 1,0,-1
 522 324 l 1,1,-1
 199 651 l 1,2,-1
 522 981 l 1,3,-1
 641 860 l 1,4,-1
 438 651 l 1,5,-1
 641 444 l 1,0,-1
EndSplineSet
EndChar

StartChar: guilsinglright
Encoding: 8250 8250 189
Width: 1118
VWidth: 2048
Flags: W
LayerCount: 2
Fore
SplineSet
494 651 m 1,0,-1
 291 860 l 1,1,-1
 410 981 l 1,2,-1
 733 651 l 1,3,-1
 410 324 l 1,4,-1
 291 444 l 1,5,-1
 494 651 l 1,0,-1
EndSplineSet
EndChar

StartChar: fi
Encoding: 64257 64257 190
Width: 1118
VWidth: 2048
Flags: W
LayerCount: 2
Fore
SplineSet
735 186 m 1,0,-1
 735 745 l 1,1,-1
 383 745 l 1,2,-1
 383 186 l 1,3,-1
 735 186 l 1,0,-1
942 932 m 1,4,-1
 942 186 l 1,5,-1
 1118 186 l 1,6,-1
 1118 0 l 1,7,-1
 0 0 l 1,8,-1
 0 186 l 1,9,-1
 176 186 l 1,10,-1
 176 745 l 1,11,-1
 0 745 l 1,12,-1
 0 932 l 1,13,-1
 176 932 l 1,14,15
 176 1124 176 1124 294 1225.5 c 128,-1,16
 412 1327 412 1327 612 1327 c 0,17,18
 643 1327 643 1327 677 1324 c 128,-1,19
 711 1321 711 1321 745 1317 c 1,20,-1
 745 1135 l 1,21,22
 686 1141 686 1141 637 1141 c 0,23,24
 557 1141 557 1141 508 1129.5 c 128,-1,25
 459 1118 459 1118 431 1092.5 c 128,-1,26
 403 1067 403 1067 393 1027 c 128,-1,27
 383 987 383 987 383 932 c 1,28,-1
 942 932 l 1,4,-1
EndSplineSet
EndChar

StartChar: fl
Encoding: 64258 64258 191
Width: 1118
VWidth: 2048
Flags: W
LayerCount: 2
Fore
SplineSet
0 0 m 1,0,-1
 0 186 l 1,1,-1
 176 186 l 1,2,-1
 176 745 l 1,3,-1
 0 745 l 1,4,-1
 0 932 l 1,5,-1
 176 932 l 1,6,7
 176 1124 176 1124 294 1225.5 c 128,-1,8
 412 1327 412 1327 612 1327 c 0,9,10
 709 1327 709 1327 793 1320 c 128,-1,11
 877 1313 877 1313 942 1300 c 1,12,-1
 942 186 l 1,13,-1
 1118 186 l 1,14,-1
 1118 0 l 1,15,-1
 0 0 l 1,0,-1
735 1135 m 1,16,17
 711 1139 711 1139 685 1140 c 128,-1,18
 659 1141 659 1141 637 1141 c 0,19,20
 557 1141 557 1141 508 1129.5 c 128,-1,21
 459 1118 459 1118 431 1092.5 c 128,-1,22
 403 1067 403 1067 393 1027 c 128,-1,23
 383 987 383 987 383 932 c 1,24,-1
 625 932 l 1,25,-1
 625 745 l 1,26,-1
 383 745 l 1,27,-1
 383 186 l 1,28,-1
 735 186 l 1,29,-1
 735 1135 l 1,16,17
EndSplineSet
EndChar

StartChar: daggerdbl
Encoding: 8225 8225 192
Width: 1118
VWidth: 2048
Flags: W
LayerCount: 2
Fore
SplineSet
778 410 m 1,0,-1
 541 424 l 1,1,-1
 553 186 l 1,2,-1
 381 186 l 1,3,-1
 395 424 l 1,4,-1
 158 410 l 1,5,-1
 158 582 l 1,6,-1
 395 569 l 1,7,-1
 395 922 l 1,8,-1
 158 907 l 1,9,-1
 158 1081 l 1,10,-1
 395 1067 l 1,11,-1
 381 1305 l 1,12,-1
 553 1305 l 1,13,-1
 541 1067 l 1,14,-1
 778 1081 l 1,15,-1
 778 907 l 1,16,-1
 541 922 l 1,17,-1
 541 569 l 1,18,-1
 778 582 l 1,19,-1
 778 410 l 1,0,-1
EndSplineSet
EndChar

StartChar: periodcentered
Encoding: 183 183 193
Width: 1118
VWidth: 2048
Flags: W
LayerCount: 2
Fore
SplineSet
592 352 m 1,0,-1
 340 352 l 1,1,-1
 340 604 l 1,2,-1
 592 604 l 1,3,-1
 592 352 l 1,0,-1
EndSplineSet
EndChar

StartChar: quotesinglbase
Encoding: 8218 8218 194
Width: 1118
VWidth: 2048
Flags: W
LayerCount: 2
Fore
SplineSet
558 252 m 1,0,-1
 931 252 l 1,1,-1
 931 -15 l 2,2,3
 931 -84 931 -84 912.5 -148.5 c 128,-1,4
 894 -213 894 -213 850 -263.5 c 128,-1,5
 806 -314 806 -314 734.5 -343.5 c 128,-1,6
 663 -373 663 -373 558 -373 c 1,7,-1
 558 -201 l 1,8,9
 677 -201 677 -201 721 -150 c 128,-1,10
 765 -99 765 -99 765 -15 c 2,11,-1
 765 0 l 1,12,-1
 558 0 l 1,13,-1
 558 252 l 1,0,-1
EndSplineSet
EndChar

StartChar: quotedblbase
Encoding: 8222 8222 195
Width: 1118
VWidth: 2048
Flags: W
LayerCount: 2
Fore
SplineSet
559 252 m 1,0,-1
 932 252 l 1,1,-1
 932 -15 l 2,2,3
 932 -84 932 -84 913.5 -148.5 c 128,-1,4
 895 -213 895 -213 851 -263.5 c 128,-1,5
 807 -314 807 -314 735.5 -343.5 c 128,-1,6
 664 -373 664 -373 559 -373 c 1,7,-1
 559 -201 l 1,8,9
 678 -201 678 -201 722 -150 c 128,-1,10
 766 -99 766 -99 766 -15 c 2,11,-1
 766 0 l 1,12,-1
 559 0 l 1,13,-1
 559 252 l 1,0,-1
0 252 m 1,14,-1
 373 252 l 1,15,-1
 373 -15 l 2,16,17
 373 -84 373 -84 354.5 -148.5 c 128,-1,18
 336 -213 336 -213 292 -263.5 c 128,-1,19
 248 -314 248 -314 176 -343.5 c 128,-1,20
 104 -373 104 -373 0 -373 c 1,21,-1
 0 -201 l 1,22,23
 119 -201 119 -201 163 -150 c 128,-1,24
 207 -99 207 -99 207 -15 c 2,25,-1
 207 0 l 1,26,-1
 0 0 l 1,27,-1
 0 252 l 1,14,-1
EndSplineSet
EndChar

StartChar: perthousand
Encoding: 8240 8240 196
Width: 1118
VWidth: 2048
Flags: W
LayerCount: 2
Fore
SplineSet
694 1274 m 1,0,-1
 123 -39 l 1,1,-1
 -27 27 l 1,2,-1
 545 1343 l 1,3,-1
 694 1274 l 1,0,-1
-25 1073 m 0,4,5
 -25 1124 -25 1124 -13.5 1171.5 c 128,-1,6
 -2 1219 -2 1219 22.5 1252.5 c 128,-1,7
 47 1286 47 1286 85 1306.5 c 128,-1,8
 123 1327 123 1327 176 1327 c 256,9,10
 229 1327 229 1327 267 1306.5 c 128,-1,11
 305 1286 305 1286 329.5 1252.5 c 128,-1,12
 354 1219 354 1219 365.5 1171.5 c 128,-1,13
 377 1124 377 1124 377 1073 c 0,14,15
 377 1020 377 1020 365.5 974 c 128,-1,16
 354 928 354 928 329.5 894 c 128,-1,17
 305 860 305 860 267 839.5 c 128,-1,18
 229 819 229 819 176 819 c 256,19,20
 123 819 123 819 85 839.5 c 128,-1,21
 47 860 47 860 22.5 894 c 128,-1,22
 -2 928 -2 928 -13.5 974 c 128,-1,23
 -25 1020 -25 1020 -25 1073 c 0,4,5
125 1075 m 256,24,25
 125 1020 125 1020 139.5 995.5 c 128,-1,26
 154 971 154 971 176 971 c 0,27,28
 199 971 199 971 214 995.5 c 128,-1,29
 229 1020 229 1020 229 1075 c 256,30,31
 229 1130 229 1130 214 1155 c 128,-1,32
 199 1180 199 1180 176 1180 c 0,33,34
 154 1180 154 1180 139.5 1155 c 128,-1,35
 125 1130 125 1130 125 1075 c 256,24,25
442 236 m 0,36,37
 442 180 442 180 456.5 155.5 c 128,-1,38
 471 131 471 131 494 131 c 0,39,40
 516 131 516 131 531.5 155.5 c 128,-1,41
 547 180 547 180 547 236 c 0,42,43
 547 291 547 291 531.5 315.5 c 128,-1,44
 516 340 516 340 494 340 c 0,45,46
 471 340 471 340 456.5 315.5 c 128,-1,47
 442 291 442 291 442 236 c 0,36,37
864 236 m 0,48,49
 864 180 864 180 878.5 155.5 c 128,-1,50
 893 131 893 131 915 131 c 0,51,52
 938 131 938 131 953.5 155.5 c 128,-1,53
 969 180 969 180 969 236 c 0,54,55
 969 291 969 291 953.5 315.5 c 128,-1,56
 938 340 938 340 915 340 c 0,57,58
 893 340 893 340 878.5 315.5 c 128,-1,59
 864 291 864 291 864 236 c 0,48,49
293 231 m 0,60,61
 293 283 293 283 304 330 c 128,-1,62
 315 377 315 377 340 410.5 c 128,-1,63
 365 444 365 444 402.5 464.5 c 128,-1,64
 440 485 440 485 494 485 c 0,65,66
 547 485 547 485 585 464.5 c 128,-1,67
 623 444 623 444 647.5 410.5 c 128,-1,68
 672 377 672 377 683 330 c 128,-1,69
 694 283 694 283 694 231 c 0,70,71
 694 178 694 178 683 132 c 128,-1,72
 672 86 672 86 647.5 52 c 128,-1,73
 623 18 623 18 585 -2.5 c 128,-1,74
 547 -23 547 -23 494 -23 c 0,75,76
 440 -23 440 -23 402.5 -2.5 c 128,-1,77
 365 18 365 18 340 52 c 128,-1,78
 315 86 315 86 304 132 c 128,-1,79
 293 178 293 178 293 231 c 0,60,61
715 231 m 0,80,81
 715 283 715 283 726 330 c 128,-1,82
 737 377 737 377 761.5 410.5 c 128,-1,83
 786 444 786 444 824 464.5 c 128,-1,84
 862 485 862 485 915 485 c 0,85,86
 969 485 969 485 1006.5 464.5 c 128,-1,87
 1044 444 1044 444 1069 410.5 c 128,-1,88
 1094 377 1094 377 1105 330 c 128,-1,89
 1116 283 1116 283 1116 231 c 0,90,91
 1116 178 1116 178 1105 132 c 128,-1,92
 1094 86 1094 86 1069 52 c 128,-1,93
 1044 18 1044 18 1006.5 -2.5 c 128,-1,94
 969 -23 969 -23 915 -23 c 0,95,96
 862 -23 862 -23 824 -2.5 c 128,-1,97
 786 18 786 18 761.5 52 c 128,-1,98
 737 86 737 86 726 132 c 128,-1,99
 715 178 715 178 715 231 c 0,80,81
EndSplineSet
EndChar

StartChar: apple
Encoding: 63743 63743 208
Width: 1118
VWidth: 2048
Flags: W
LayerCount: 2
Fore
SplineSet
819 1343 m 1,0,1
 819 1194 819 1194 745.5 1111 c 128,-1,2
 672 1028 672 1028 555 1018 c 1,3,4
 557 1284 557 1284 819 1343 c 1,0,1
1128 362 m 1,5,6
 1114 319 1114 319 1085.5 258 c 128,-1,7
 1057 197 1057 197 1017 140.5 c 128,-1,8
 977 84 977 84 927 43 c 128,-1,9
 877 2 877 2 821 2 c 0,10,11
 791 2 791 2 762 10 c 128,-1,12
 733 18 733 18 704.5 28.5 c 128,-1,13
 676 39 676 39 646 47 c 128,-1,14
 616 55 616 55 586 55 c 0,15,16
 555 55 555 55 526.5 47 c 128,-1,17
 498 39 498 39 471 27.5 c 128,-1,18
 444 16 444 16 417.5 8 c 128,-1,19
 391 0 391 0 365 0 c 0,20,21
 297 0 297 0 231.5 61.5 c 128,-1,22
 166 123 166 123 114.5 216 c 128,-1,23
 63 309 63 309 32.5 416.5 c 128,-1,24
 2 524 2 524 2 616 c 0,25,26
 2 690 2 690 21.5 765 c 128,-1,27
 41 840 41 840 80 899 c 128,-1,28
 119 958 119 958 179.5 996 c 128,-1,29
 240 1034 240 1034 324 1034 c 0,30,31
 360 1034 360 1034 395 1027 c 128,-1,32
 430 1020 430 1020 461 1010.5 c 128,-1,33
 492 1001 492 1001 520.5 994 c 128,-1,34
 549 987 549 987 578 987 c 0,35,36
 610 987 610 987 641 995.5 c 128,-1,37
 672 1004 672 1004 703.5 1014 c 128,-1,38
 735 1024 735 1024 767 1032 c 128,-1,39
 799 1040 799 1040 834 1040 c 0,40,41
 981 1040 981 1040 1090 907 c 1,42,43
 944 784 944 784 944 645 c 0,44,45
 944 602 944 602 956.5 558 c 128,-1,46
 969 514 969 514 992.5 475 c 128,-1,47
 1016 436 1016 436 1050.5 406.5 c 128,-1,48
 1085 377 1085 377 1128 362 c 1,5,6
EndSplineSet
EndChar

StartChar: dotlessi
Encoding: 305 305 213
Width: 1118
VWidth: 2048
Flags: W
LayerCount: 2
Fore
SplineSet
782 0 m 1,0,-1
 156 0 l 1,1,-1
 156 186 l 1,2,-1
 362 186 l 1,3,-1
 362 745 l 1,4,-1
 156 745 l 1,5,-1
 156 932 l 1,6,-1
 569 932 l 1,7,-1
 569 186 l 1,8,-1
 782 186 l 1,9,-1
 782 0 l 1,0,-1
EndSplineSet
EndChar

StartChar: circumflex
Encoding: 710 710 214
Width: 1118
VWidth: 2048
Flags: W
LayerCount: 2
Fore
SplineSet
791 1085 m 1,0,-1
 711 983 l 1,1,-1
 469 1188 l 1,2,-1
 223 981 l 1,3,-1
 143 1081 l 1,4,-1
 467 1399 l 1,5,-1
 791 1085 l 1,0,-1
EndSplineSet
EndChar

StartChar: tilde
Encoding: 732 732 215
Width: 1118
VWidth: 2048
Flags: W
LayerCount: 2
Fore
SplineSet
874 1245 m 1,0,1
 827 1149 827 1149 759.5 1094.5 c 128,-1,2
 692 1040 692 1040 600 1040 c 0,3,4
 551 1040 551 1040 516 1058.5 c 128,-1,5
 481 1077 481 1077 450.5 1098.5 c 128,-1,6
 420 1120 420 1120 390 1138.5 c 128,-1,7
 360 1157 360 1157 324 1157 c 0,8,9
 272 1157 272 1157 237.5 1125.5 c 128,-1,10
 203 1094 203 1094 170 1038 c 1,11,-1
 49 1108 l 1,12,13
 96 1202 96 1202 163.5 1256.5 c 128,-1,14
 231 1311 231 1311 324 1311 c 0,15,16
 373 1311 373 1311 407.5 1292.5 c 128,-1,17
 442 1274 442 1274 473 1252.5 c 128,-1,18
 504 1231 504 1231 533.5 1212.5 c 128,-1,19
 563 1194 563 1194 600 1194 c 0,20,21
 651 1194 651 1194 686 1225.5 c 128,-1,22
 721 1257 721 1257 754 1315 c 1,23,-1
 874 1245 l 1,0,1
EndSplineSet
EndChar

StartChar: macron
Encoding: 175 175 216
Width: 1118
VWidth: 2048
Flags: W
LayerCount: 2
Fore
SplineSet
745 1044 m 1,0,-1
 186 1044 l 1,1,-1
 186 1219 l 1,2,-1
 745 1219 l 1,3,-1
 745 1044 l 1,0,-1
EndSplineSet
EndChar

StartChar: breve
Encoding: 728 728 217
Width: 1118
VWidth: 2048
Flags: W
LayerCount: 2
Fore
SplineSet
795 1167 m 1,0,1
 659 1032 659 1032 467 1032 c 0,2,3
 274 1032 274 1032 139 1167 c 1,4,-1
 260 1286 l 1,5,6
 354 1192 354 1192 467 1192 c 256,7,8
 580 1192 580 1192 674 1286 c 1,9,-1
 795 1167 l 1,0,1
EndSplineSet
EndChar

StartChar: dotaccent
Encoding: 729 729 218
Width: 1118
VWidth: 2048
Flags: W
LayerCount: 2
Fore
SplineSet
592 1053 m 1,0,-1
 340 1053 l 1,1,-1
 340 1305 l 1,2,-1
 592 1305 l 1,3,-1
 592 1053 l 1,0,-1
EndSplineSet
EndChar

StartChar: ring
Encoding: 730 730 219
Width: 1118
VWidth: 2048
Flags: W
LayerCount: 2
Fore
SplineSet
242 1257 m 0,0,1
 242 1305 242 1305 259 1345.5 c 128,-1,2
 276 1386 276 1386 307 1417 c 128,-1,3
 338 1448 338 1448 379 1465.5 c 128,-1,4
 420 1483 420 1483 467 1483 c 256,5,6
 514 1483 514 1483 555 1465.5 c 128,-1,7
 596 1448 596 1448 626.5 1417 c 128,-1,8
 657 1386 657 1386 674.5 1345.5 c 128,-1,9
 692 1305 692 1305 692 1257 c 0,10,11
 692 1210 692 1210 674.5 1169 c 128,-1,12
 657 1128 657 1128 626.5 1097.5 c 128,-1,13
 596 1067 596 1067 555 1049.5 c 128,-1,14
 514 1032 514 1032 467 1032 c 256,15,16
 420 1032 420 1032 379 1049.5 c 128,-1,17
 338 1067 338 1067 307 1097.5 c 128,-1,18
 276 1128 276 1128 259 1169 c 128,-1,19
 242 1210 242 1210 242 1257 c 0,0,1
375 1257 m 0,20,21
 375 1219 375 1219 401.5 1192 c 128,-1,22
 428 1165 428 1165 467 1165 c 256,23,24
 506 1165 506 1165 532.5 1192 c 128,-1,25
 559 1219 559 1219 559 1257 c 0,26,27
 559 1296 559 1296 532.5 1323 c 128,-1,28
 506 1350 506 1350 467 1350 c 256,29,30
 428 1350 428 1350 401.5 1323 c 128,-1,31
 375 1296 375 1296 375 1257 c 0,20,21
EndSplineSet
EndChar

StartChar: cedilla
Encoding: 184 184 220
Width: 1118
VWidth: 2048
Flags: W
LayerCount: 2
Fore
SplineSet
590 -41 m 2,0,1
 590 -111 590 -111 566.5 -171 c 128,-1,2
 543 -231 543 -231 498 -275 c 128,-1,3
 453 -319 453 -319 388.5 -345 c 128,-1,4
 324 -371 324 -371 242 -371 c 1,5,-1
 242 -193 l 1,6,7
 330 -193 330 -193 372 -153 c 128,-1,8
 414 -113 414 -113 414 -41 c 2,9,-1
 414 0 l 1,10,-1
 590 0 l 1,11,-1
 590 -41 l 2,0,1
EndSplineSet
EndChar

StartChar: hungarumlaut
Encoding: 733 733 221
Width: 1118
VWidth: 2048
Flags: W
LayerCount: 2
Fore
SplineSet
698 1024 m 1,0,-1
 526 1024 l 1,1,-1
 668 1399 l 1,2,-1
 885 1399 l 1,3,-1
 698 1024 l 1,0,-1
326 1024 m 1,4,-1
 156 1024 l 1,5,-1
 295 1399 l 1,6,-1
 512 1399 l 1,7,-1
 326 1024 l 1,4,-1
EndSplineSet
EndChar

StartChar: ogonek
Encoding: 731 731 222
Width: 1118
VWidth: 2048
Flags: W
LayerCount: 2
Fore
SplineSet
993 -379 m 1,0,1
 858 -379 858 -379 779 -319.5 c 128,-1,2
 700 -260 700 -260 700 -141 c 0,3,4
 700 -76 700 -76 735 -24.5 c 128,-1,5
 770 27 770 27 817 55 c 1,6,-1
 881 0 l 1,7,8
 842 -43 842 -43 842 -104 c 0,9,10
 842 -168 842 -168 886 -199.5 c 128,-1,11
 930 -231 930 -231 993 -231 c 1,12,-1
 993 -379 l 1,0,1
EndSplineSet
EndChar

StartChar: caron
Encoding: 711 711 223
Width: 1118
VWidth: 2048
Flags: W
LayerCount: 2
Fore
SplineSet
467 981 m 1,0,-1
 143 1298 l 1,1,-1
 223 1399 l 1,2,-1
 469 1192 l 1,3,-1
 711 1397 l 1,4,-1
 791 1294 l 1,5,-1
 467 981 l 1,0,-1
EndSplineSet
EndChar

StartChar: quotedbl
Encoding: 34 34 224
Width: 1118
VWidth: 2048
Flags: W
LayerCount: 2
Fore
SplineSet
776 1305 m 1,0,-1
 731 805 l 1,1,-1
 573 805 l 1,2,-1
 528 1305 l 1,3,-1
 776 1305 l 1,0,-1
403 1305 m 1,4,-1
 358 805 l 1,5,-1
 201 805 l 1,6,-1
 156 1305 l 1,7,-1
 403 1305 l 1,4,-1
EndSplineSet
EndChar

StartChar: exclam
Encoding: 33 33 225
Width: 1118
VWidth: 2048
Flags: W
LayerCount: 2
Fore
SplineSet
602 1305 m 1,0,-1
 551 373 l 1,1,-1
 381 373 l 1,2,-1
 330 1305 l 1,3,-1
 602 1305 l 1,0,-1
592 0 m 1,4,-1
 340 0 l 1,5,-1
 340 252 l 1,6,-1
 592 252 l 1,7,-1
 592 0 l 1,4,-1
EndSplineSet
EndChar

StartChar: commaaccent
Encoding: 63171 63171 226
Width: 1118
VWidth: 2048
Flags: W
LayerCount: 2
Fore
SplineSet
684 -109 m 1,0,-1
 492 -373 l 1,1,-1
 301 -373 l 1,2,-1
 406 -109 l 1,3,-1
 684 -109 l 1,0,-1
EndSplineSet
EndChar

StartChar: currency
Encoding: 164 164 227
Width: 1118
VWidth: 2048
Flags: W
LayerCount: 2
Fore
SplineSet
872 938 m 1,0,1
 911 879 911 879 932.5 807 c 128,-1,2
 954 735 954 735 954 651 c 256,3,4
 954 567 954 567 932.5 495.5 c 128,-1,5
 911 424 911 424 872 365 c 1,6,-1
 991 246 l 1,7,-1
 870 125 l 1,8,-1
 752 244 l 1,9,10
 635 164 635 164 465 164 c 256,11,12
 295 164 295 164 178 244 c 1,13,-1
 59 125 l 1,14,-1
 -61 246 l 1,15,-1
 57 365 l 1,16,17
 18 424 18 424 -2.5 495.5 c 128,-1,18
 -23 567 -23 567 -23 651 c 0,19,20
 -23 815 -23 815 57 936 c 1,21,-1
 -61 1057 l 1,22,-1
 59 1178 l 1,23,-1
 178 1059 l 1,24,25
 297 1141 297 1141 465 1141 c 0,26,27
 549 1141 549 1141 620.5 1119.5 c 128,-1,28
 692 1098 692 1098 752 1059 c 1,29,-1
 870 1178 l 1,30,-1
 991 1057 l 1,31,-1
 872 938 l 1,0,1
748 651 m 0,32,33
 748 715 748 715 728.5 771 c 128,-1,34
 709 827 709 827 672 867 c 128,-1,35
 635 907 635 907 582.5 930.5 c 128,-1,36
 530 954 530 954 465 954 c 0,37,38
 399 954 399 954 347 930.5 c 128,-1,39
 295 907 295 907 259 867 c 128,-1,40
 223 827 223 827 203.5 771 c 128,-1,41
 184 715 184 715 184 651 c 0,42,43
 184 586 184 586 203.5 531.5 c 128,-1,44
 223 477 223 477 259 436 c 128,-1,45
 295 395 295 395 347 372.5 c 128,-1,46
 399 350 399 350 465 350 c 0,47,48
 530 350 530 350 582.5 372.5 c 128,-1,49
 635 395 635 395 672 436 c 128,-1,50
 709 477 709 477 728.5 531.5 c 128,-1,51
 748 586 748 586 748 651 c 0,32,33
EndSplineSet
EndChar

StartChar: brokenbar
Encoding: 166 166 228
Width: 1118
VWidth: 2048
Flags: W
LayerCount: 2
Fore
SplineSet
569 -186 m 1,0,-1
 362 -186 l 1,1,-1
 362 578 l 1,2,-1
 569 578 l 1,3,-1
 569 -186 l 1,0,-1
569 727 m 1,4,-1
 362 727 l 1,5,-1
 362 1491 l 1,6,-1
 569 1491 l 1,7,-1
 569 727 l 1,4,-1
EndSplineSet
EndChar

StartChar: uni00AD
Encoding: 173 173 229
Width: 1118
VWidth: 2048
Flags: W
LayerCount: 2
Fore
SplineSet
932 385 m 1,0,-1
 0 385 l 1,1,-1
 0 572 l 1,2,-1
 932 572 l 1,3,-1
 932 385 l 1,0,-1
EndSplineSet
EndChar

StartChar: twosuperior
Encoding: 178 178 230
Width: 1118
VWidth: 2048
Flags: W
LayerCount: 2
Fore
SplineSet
449 1149 m 256,0,1
 449 1106 449 1106 430.5 1070 c 128,-1,2
 412 1034 412 1034 381 1006 c 2,3,-1
 242 872 l 1,4,-1
 446 872 l 1,5,-1
 446 745 l 1,6,-1
 43 745 l 1,7,-1
 43 872 l 1,8,-1
 258 1081 l 2,9,10
 276 1098 276 1098 283.5 1111 c 128,-1,11
 291 1124 291 1124 291 1145 c 0,12,13
 291 1163 291 1163 276.5 1173.5 c 128,-1,14
 262 1184 262 1184 244 1184 c 0,15,16
 211 1184 211 1184 195.5 1162.5 c 128,-1,17
 180 1141 180 1141 180 1083 c 1,18,-1
 27 1083 l 1,19,20
 27 1315 27 1315 244 1315 c 0,21,22
 281 1315 281 1315 317.5 1304.5 c 128,-1,23
 354 1294 354 1294 384 1273.5 c 128,-1,24
 414 1253 414 1253 431.5 1222.5 c 128,-1,25
 449 1192 449 1192 449 1149 c 256,0,1
EndSplineSet
EndChar

StartChar: threesuperior
Encoding: 179 179 231
Width: 1118
VWidth: 2048
Flags: W
LayerCount: 2
Fore
SplineSet
449 915 m 0,0,1
 449 848 449 848 392.5 795.5 c 128,-1,2
 336 743 336 743 248 743 c 0,3,4
 45 743 45 743 25 940 c 1,5,-1
 176 954 l 1,6,7
 184 870 184 870 246 870 c 0,8,9
 266 870 266 870 280.5 883.5 c 128,-1,10
 295 897 295 897 295 920 c 0,11,12
 295 958 295 958 273.5 973.5 c 128,-1,13
 252 989 252 989 205 989 c 1,14,-1
 205 1087 l 1,15,16
 285 1087 285 1087 285 1143 c 0,17,18
 285 1184 285 1184 240 1184 c 0,19,20
 217 1184 217 1184 201.5 1163.5 c 128,-1,21
 186 1143 186 1143 186 1102 c 1,22,-1
 37 1102 l 1,23,24
 37 1206 37 1206 98 1260 c 0,25,26
 156 1309 156 1309 248 1309 c 0,27,28
 336 1309 336 1309 387 1265 c 128,-1,29
 438 1221 438 1221 438 1151 c 0,30,31
 438 1077 438 1077 375 1042 c 1,32,33
 449 989 449 989 449 915 c 0,0,1
EndSplineSet
EndChar

StartChar: onesuperior
Encoding: 185 185 232
Width: 1118
VWidth: 2048
Flags: W
LayerCount: 2
Fore
SplineSet
414 745 m 1,0,-1
 76 745 l 1,1,-1
 76 872 l 1,2,-1
 166 872 l 1,3,-1
 166 1106 l 1,4,5
 150 1087 150 1087 110 1067 c 128,-1,6
 70 1047 70 1047 0 1047 c 1,7,-1
 0 1182 l 1,8,9
 27 1182 27 1182 55.5 1191 c 128,-1,10
 84 1200 84 1200 108.5 1216.5 c 128,-1,11
 133 1233 133 1233 149.5 1255.5 c 128,-1,12
 166 1278 166 1278 166 1305 c 1,13,-1
 324 1305 l 1,14,-1
 324 872 l 1,15,-1
 414 872 l 1,16,-1
 414 745 l 1,0,-1
EndSplineSet
EndChar

StartChar: onequarter
Encoding: 188 188 233
Width: 1118
VWidth: 2048
Flags: W
LayerCount: 2
Fore
SplineSet
954 1257 m 1,0,-1
 119 -41 l 1,1,-1
 -18 47 l 1,2,-1
 819 1350 l 1,3,-1
 954 1257 l 1,0,-1
414 745 m 1,4,-1
 76 745 l 1,5,-1
 76 872 l 1,6,-1
 166 872 l 1,7,-1
 166 1106 l 1,8,9
 150 1087 150 1087 110 1067 c 128,-1,10
 70 1047 70 1047 0 1047 c 1,11,-1
 0 1182 l 1,12,13
 27 1182 27 1182 55.5 1191 c 128,-1,14
 84 1200 84 1200 108.5 1216.5 c 128,-1,15
 133 1233 133 1233 149.5 1255.5 c 128,-1,16
 166 1278 166 1278 166 1305 c 1,17,-1
 324 1305 l 1,18,-1
 324 872 l 1,19,-1
 414 872 l 1,20,-1
 414 745 l 1,4,-1
852 0 m 1,21,-1
 696 0 l 1,22,-1
 696 113 l 1,23,-1
 498 113 l 1,24,-1
 498 264 l 1,25,-1
 711 559 l 1,26,-1
 852 559 l 1,27,-1
 852 242 l 1,28,-1
 942 242 l 1,29,-1
 942 113 l 1,30,-1
 852 113 l 1,31,-1
 852 0 l 1,21,-1
696 242 m 1,32,-1
 696 346 l 1,33,-1
 616 242 l 1,34,-1
 696 242 l 1,32,-1
EndSplineSet
EndChar

StartChar: onehalf
Encoding: 189 189 234
Width: 1118
VWidth: 2048
Flags: W
LayerCount: 2
Fore
SplineSet
944 403 m 256,0,1
 944 360 944 360 925.5 324.5 c 128,-1,2
 907 289 907 289 877 260 c 2,3,-1
 737 127 l 1,4,-1
 942 127 l 1,5,-1
 942 0 l 1,6,-1
 539 0 l 1,7,-1
 539 127 l 1,8,-1
 754 336 l 2,9,10
 772 352 772 352 779 365.5 c 128,-1,11
 786 379 786 379 786 399 c 0,12,13
 786 418 786 418 772 428 c 128,-1,14
 758 438 758 438 739 438 c 0,15,16
 707 438 707 438 691.5 416.5 c 128,-1,17
 676 395 676 395 676 338 c 1,18,-1
 522 338 l 1,19,20
 522 569 522 569 739 569 c 0,21,22
 776 569 776 569 813 559 c 128,-1,23
 850 549 850 549 879.5 528.5 c 128,-1,24
 909 508 909 508 926.5 477 c 128,-1,25
 944 446 944 446 944 403 c 256,0,1
954 1257 m 1,26,-1
 119 -41 l 1,27,-1
 -18 47 l 1,28,-1
 819 1350 l 1,29,-1
 954 1257 l 1,26,-1
414 745 m 1,30,-1
 76 745 l 1,31,-1
 76 872 l 1,32,-1
 166 872 l 1,33,-1
 166 1106 l 1,34,35
 150 1087 150 1087 110 1067 c 128,-1,36
 70 1047 70 1047 0 1047 c 1,37,-1
 0 1182 l 1,38,39
 27 1182 27 1182 55.5 1191 c 128,-1,40
 84 1200 84 1200 108.5 1216.5 c 128,-1,41
 133 1233 133 1233 149.5 1255.5 c 128,-1,42
 166 1278 166 1278 166 1305 c 1,43,-1
 324 1305 l 1,44,-1
 324 872 l 1,45,-1
 414 872 l 1,46,-1
 414 745 l 1,30,-1
EndSplineSet
EndChar

StartChar: threequarters
Encoding: 190 190 235
Width: 1118
VWidth: 2048
Flags: W
LayerCount: 2
Fore
SplineSet
449 915 m 0,0,1
 449 848 449 848 392.5 795.5 c 128,-1,2
 336 743 336 743 248 743 c 0,3,4
 45 743 45 743 25 940 c 1,5,-1
 176 954 l 1,6,7
 184 870 184 870 246 870 c 0,8,9
 266 870 266 870 280.5 883.5 c 128,-1,10
 295 897 295 897 295 920 c 0,11,12
 295 958 295 958 273.5 973.5 c 128,-1,13
 252 989 252 989 205 989 c 1,14,-1
 205 1087 l 1,15,16
 285 1087 285 1087 285 1143 c 0,17,18
 285 1184 285 1184 240 1184 c 0,19,20
 217 1184 217 1184 201.5 1163.5 c 128,-1,21
 186 1143 186 1143 186 1102 c 1,22,-1
 37 1102 l 1,23,24
 37 1206 37 1206 98 1260 c 0,25,26
 156 1309 156 1309 248 1309 c 0,27,28
 336 1309 336 1309 387 1265 c 128,-1,29
 438 1221 438 1221 438 1151 c 0,30,31
 438 1077 438 1077 375 1042 c 1,32,33
 449 989 449 989 449 915 c 0,0,1
852 0 m 1,34,-1
 696 0 l 1,35,-1
 696 113 l 1,36,-1
 498 113 l 1,37,-1
 498 264 l 1,38,-1
 711 559 l 1,39,-1
 852 559 l 1,40,-1
 852 242 l 1,41,-1
 942 242 l 1,42,-1
 942 113 l 1,43,-1
 852 113 l 1,44,-1
 852 0 l 1,34,-1
696 242 m 1,45,-1
 696 346 l 1,46,-1
 616 242 l 1,47,-1
 696 242 l 1,45,-1
954 1257 m 1,48,-1
 119 -41 l 1,49,-1
 -18 47 l 1,50,-1
 819 1350 l 1,51,-1
 954 1257 l 1,48,-1
EndSplineSet
EndChar

StartChar: Eth
Encoding: 208 208 236
Width: 1118
VWidth: 2048
Flags: W
LayerCount: 2
Fore
SplineSet
-117 758 m 1,0,-1
 49 758 l 1,1,-1
 49 1305 l 1,2,-1
 473 1305 l 2,3,4
 606 1305 606 1305 701.5 1251.5 c 128,-1,5
 797 1198 797 1198 857.5 1109 c 128,-1,6
 918 1020 918 1020 946.5 902 c 128,-1,7
 975 784 975 784 975 653 c 256,8,9
 975 522 975 522 947.5 403.5 c 128,-1,10
 920 285 920 285 859.5 195.5 c 128,-1,11
 799 106 799 106 703.5 53 c 128,-1,12
 608 0 608 0 473 0 c 2,13,-1
 49 0 l 1,14,-1
 49 571 l 1,15,-1
 -117 571 l 1,16,-1
 -117 758 l 1,0,-1
768 653 m 0,17,18
 768 879 768 879 691 998.5 c 128,-1,19
 614 1118 614 1118 473 1118 c 2,20,-1
 256 1118 l 1,21,-1
 256 758 l 1,22,-1
 440 758 l 1,23,-1
 440 571 l 1,24,-1
 256 571 l 1,25,-1
 256 186 l 1,26,-1
 473 186 l 2,27,28
 614 186 614 186 691 308 c 128,-1,29
 768 430 768 430 768 653 c 0,17,18
EndSplineSet
EndChar

StartChar: multiply
Encoding: 215 215 237
Width: 1118
VWidth: 2048
Flags: W
LayerCount: 2
Fore
SplineSet
856 748 m 1,0,-1
 586 478 l 1,1,-1
 856 207 l 1,2,-1
 735 88 l 1,3,-1
 467 359 l 1,4,-1
 197 88 l 1,5,-1
 78 207 l 1,6,-1
 346 478 l 1,7,-1
 78 748 l 1,8,-1
 197 867 l 1,9,-1
 467 596 l 1,10,-1
 735 867 l 1,11,-1
 856 748 l 1,0,-1
EndSplineSet
EndChar

StartChar: Thorn
Encoding: 222 222 239
Width: 1118
VWidth: 2048
Flags: W
LayerCount: 2
Fore
SplineSet
932 664 m 0,0,1
 932 467 932 467 813 373 c 128,-1,2
 694 279 694 279 481 279 c 2,3,-1
 256 279 l 1,4,-1
 256 0 l 1,5,-1
 49 0 l 1,6,-1
 49 1305 l 1,7,-1
 256 1305 l 1,8,-1
 256 1049 l 1,9,-1
 479 1049 l 2,10,11
 694 1049 694 1049 813 952.5 c 128,-1,12
 932 856 932 856 932 664 c 0,0,1
727 664 m 0,13,14
 727 764 727 764 660.5 813 c 128,-1,15
 594 862 594 862 481 862 c 2,16,-1
 256 862 l 1,17,-1
 256 465 l 1,18,-1
 481 465 l 2,19,20
 594 465 594 465 660.5 513 c 128,-1,21
 727 561 727 561 727 664 c 0,13,14
EndSplineSet
EndChar

StartChar: eth
Encoding: 240 240 240
Width: 1118
VWidth: 2048
Flags: W
LayerCount: 2
Fore
SplineSet
233 977 m 1,0,-1
 344 1087 l 1,1,2
 309 1104 309 1104 274.5 1118.5 c 128,-1,3
 240 1133 240 1133 201 1147 c 1,4,-1
 264 1327 l 1,5,6
 322 1305 322 1305 376 1280 c 128,-1,7
 430 1255 430 1255 483 1227 c 1,8,-1
 629 1372 l 1,9,-1
 748 1251 l 1,10,-1
 633 1137 l 1,11,12
 702 1085 702 1085 760.5 1024 c 128,-1,13
 819 963 819 963 861 889 c 128,-1,14
 903 815 903 815 926.5 728 c 128,-1,15
 950 641 950 641 950 537 c 0,16,17
 950 408 950 408 914.5 304.5 c 128,-1,18
 879 201 879 201 811 128 c 128,-1,19
 743 55 743 55 647 16 c 128,-1,20
 551 -23 551 -23 430 -23 c 0,21,22
 225 -23 225 -23 102.5 73.5 c 128,-1,23
 -20 170 -20 170 -20 354 c 0,24,25
 -20 457 -20 457 28 537.5 c 128,-1,26
 76 618 76 618 165 679.5 c 128,-1,27
 254 741 254 741 379 783 c 128,-1,28
 504 825 504 825 657 850 c 1,29,30
 596 938 596 938 500 1004 c 1,31,-1
 352 856 l 1,32,-1
 233 977 l 1,0,-1
743 537 m 0,33,34
 743 608 743 608 731 670 c 1,35,36
 475 647 475 647 330.5 565 c 128,-1,37
 186 483 186 483 186 354 c 0,38,39
 186 262 186 262 250.5 213 c 128,-1,40
 315 164 315 164 430 164 c 0,41,42
 569 164 569 164 656 260 c 128,-1,43
 743 356 743 356 743 537 c 0,33,34
EndSplineSet
EndChar

StartChar: thorn
Encoding: 254 254 242
Width: 1118
VWidth: 2048
Flags: W
LayerCount: 2
Fore
SplineSet
49 1305 m 1,0,-1
 256 1305 l 1,1,-1
 256 848 l 1,2,3
 315 901 315 901 375.5 927.5 c 128,-1,4
 436 954 436 954 514 954 c 0,5,6
 604 954 604 954 681 917.5 c 128,-1,7
 758 881 758 881 813 816.5 c 128,-1,8
 868 752 868 752 900 661.5 c 128,-1,9
 932 571 932 571 932 465 c 0,10,11
 932 358 932 358 900 268 c 128,-1,12
 868 178 868 178 813 113.5 c 128,-1,13
 758 49 758 49 681 13 c 128,-1,14
 604 -23 604 -23 514 -23 c 0,15,16
 436 -23 436 -23 375.5 5 c 128,-1,17
 315 33 315 33 256 86 c 1,18,-1
 256 -373 l 1,19,-1
 49 -373 l 1,20,-1
 49 1305 l 1,0,-1
256 248 m 1,21,22
 293 207 293 207 350.5 185.5 c 128,-1,23
 408 164 408 164 461 164 c 0,24,25
 578 164 578 164 651.5 247 c 128,-1,26
 725 330 725 330 725 465 c 256,27,28
 725 600 725 600 651.5 684 c 128,-1,29
 578 768 578 768 461 768 c 0,30,31
 408 768 408 768 350.5 746.5 c 128,-1,32
 293 725 293 725 256 684 c 1,33,-1
 256 248 l 1,21,22
EndSplineSet
EndChar

StartChar: Aogonek
Encoding: 260 260 247
Width: 1118
VWidth: 2048
Flags: W
LayerCount: 2
Fore
SplineSet
1106 -379 m 1,0,1
 971 -379 971 -379 892 -319.5 c 128,-1,2
 813 -260 813 -260 813 -141 c 0,3,4
 813 -100 813 -100 827.5 -64.5 c 128,-1,5
 842 -29 842 -29 866 0 c 1,6,-1
 776 0 l 1,7,-1
 682 311 l 1,8,-1
 250 311 l 1,9,-1
 158 0 l 1,10,-1
 -59 0 l 1,11,-1
 348 1305 l 1,12,-1
 586 1305 l 1,13,-1
 993 0 l 1,14,15
 954 -43 954 -43 954 -104 c 0,16,17
 954 -168 954 -168 998 -199.5 c 128,-1,18
 1042 -231 1042 -231 1106 -231 c 1,19,-1
 1106 -379 l 1,0,1
305 494 m 1,20,-1
 627 494 l 1,21,-1
 467 1032 l 1,22,-1
 305 494 l 1,20,-1
EndSplineSet
EndChar

StartChar: aogonek
Encoding: 261 261 248
Width: 1118
VWidth: 2048
Flags: W
LayerCount: 2
Fore
SplineSet
676 137 m 1,0,1
 627 61 627 61 531.5 19 c 128,-1,2
 436 -23 436 -23 326 -23 c 0,3,4
 258 -23 258 -23 197.5 -4.5 c 128,-1,5
 137 14 137 14 93 51 c 128,-1,6
 49 88 49 88 22.5 142.5 c 128,-1,7
 -4 197 -4 197 -4 268 c 0,8,9
 -4 350 -4 350 40 411.5 c 128,-1,10
 84 473 84 473 155.5 514 c 128,-1,11
 227 555 227 555 319.5 575.5 c 128,-1,12
 412 596 412 596 508 596 c 0,13,14
 561 596 561 596 599 594 c 128,-1,15
 637 592 637 592 676 588 c 1,16,-1
 676 625 l 2,17,18
 676 698 676 698 619.5 734 c 128,-1,19
 563 770 563 770 471 770 c 0,20,21
 387 770 387 770 300 746.5 c 128,-1,22
 213 723 213 723 135 678 c 1,23,-1
 51 840 l 1,24,25
 143 893 143 893 248.5 923.5 c 128,-1,26
 354 954 354 954 471 954 c 0,27,28
 547 954 547 954 620.5 937 c 128,-1,29
 694 920 694 920 752.5 881 c 128,-1,30
 811 842 811 842 846 779.5 c 128,-1,31
 881 717 881 717 881 625 c 2,32,-1
 881 0 l 1,33,34
 842 -43 842 -43 842 -104 c 0,35,36
 842 -168 842 -168 886 -199.5 c 128,-1,37
 930 -231 930 -231 993 -231 c 1,38,-1
 993 -379 l 1,39,40
 858 -379 858 -379 779 -319.5 c 128,-1,41
 700 -260 700 -260 700 -141 c 0,42,43
 700 -100 700 -100 714.5 -64.5 c 128,-1,44
 729 -29 729 -29 754 0 c 1,45,-1
 676 0 l 1,46,-1
 676 137 l 1,0,1
379 162 m 0,47,48
 440 162 440 162 493.5 177.5 c 128,-1,49
 547 193 547 193 588 220.5 c 128,-1,50
 629 248 629 248 652.5 287 c 128,-1,51
 676 326 676 326 676 373 c 2,52,-1
 676 408 l 1,53,54
 627 416 627 416 584 417 c 128,-1,55
 541 418 541 418 508 418 c 0,56,57
 356 418 356 418 278.5 378 c 128,-1,58
 201 338 201 338 201 279 c 0,59,60
 201 162 201 162 379 162 c 0,47,48
EndSplineSet
EndChar

StartChar: dcaron
Encoding: 271 271 258
Width: 1118
VWidth: 2048
Flags: W
LayerCount: 2
Fore
SplineSet
766 0 m 1,0,-1
 559 0 l 1,1,-1
 559 86 l 1,2,3
 508 33 508 33 454.5 5 c 128,-1,4
 401 -23 401 -23 336 -23 c 0,5,6
 258 -23 258 -23 193.5 13 c 128,-1,7
 129 49 129 49 81 113.5 c 128,-1,8
 33 178 33 178 6.5 268 c 128,-1,9
 -20 358 -20 358 -20 465 c 0,10,11
 -20 571 -20 571 6.5 661.5 c 128,-1,12
 33 752 33 752 81 816.5 c 128,-1,13
 129 881 129 881 193.5 917.5 c 128,-1,14
 258 954 258 954 336 954 c 0,15,16
 401 954 401 954 454.5 927.5 c 128,-1,17
 508 901 508 901 559 848 c 1,18,-1
 559 1118 l 1,19,-1
 373 1118 l 1,20,-1
 373 1305 l 1,21,-1
 766 1305 l 1,22,-1
 766 0 l 1,0,-1
559 684 m 1,23,24
 530 725 530 725 484 746.5 c 128,-1,25
 438 768 438 768 395 768 c 0,26,27
 303 768 303 768 244.5 684 c 128,-1,28
 186 600 186 600 186 465 c 256,29,30
 186 330 186 330 244.5 247 c 128,-1,31
 303 164 303 164 395 164 c 0,32,33
 438 164 438 164 484 185.5 c 128,-1,34
 530 207 530 207 559 248 c 1,35,-1
 559 684 l 1,23,24
1118 1304 m 1,36,-1
 1035 747 l 1,37,-1
 873 747 l 1,38,-1
 873 1304 l 1,39,-1
 1118 1304 l 1,36,-1
EndSplineSet
EndChar

StartChar: dcroat
Encoding: 273 273 260
Width: 1118
VWidth: 2048
Flags: W
LayerCount: 2
Fore
SplineSet
1055 989 m 1,0,-1
 883 989 l 1,1,-1
 883 0 l 1,2,-1
 676 0 l 1,3,-1
 676 86 l 1,4,5
 616 33 616 33 555 5 c 128,-1,6
 494 -23 494 -23 416 -23 c 0,7,8
 326 -23 326 -23 249 13 c 128,-1,9
 172 49 172 49 116.5 113.5 c 128,-1,10
 61 178 61 178 29.5 268 c 128,-1,11
 -2 358 -2 358 -2 465 c 0,12,13
 -2 571 -2 571 29.5 661.5 c 128,-1,14
 61 752 61 752 116.5 816.5 c 128,-1,15
 172 881 172 881 249 917.5 c 128,-1,16
 326 954 326 954 416 954 c 0,17,18
 494 954 494 954 555 927.5 c 128,-1,19
 616 901 616 901 676 848 c 1,20,-1
 676 989 l 1,21,-1
 496 989 l 1,22,-1
 496 1163 l 1,23,-1
 676 1163 l 1,24,-1
 676 1305 l 1,25,-1
 883 1305 l 1,26,-1
 883 1163 l 1,27,-1
 1055 1163 l 1,28,-1
 1055 989 l 1,0,-1
676 684 m 1,29,30
 639 725 639 725 580.5 746.5 c 128,-1,31
 522 768 522 768 469 768 c 0,32,33
 352 768 352 768 278.5 684 c 128,-1,34
 205 600 205 600 205 465 c 256,35,36
 205 330 205 330 278.5 247 c 128,-1,37
 352 164 352 164 469 164 c 0,38,39
 522 164 522 164 580.5 185.5 c 128,-1,40
 639 207 639 207 676 248 c 1,41,-1
 676 684 l 1,29,30
EndSplineSet
EndChar

StartChar: Eogonek
Encoding: 280 280 267
Width: 1118
VWidth: 2048
Flags: W
LayerCount: 2
Fore
SplineSet
995 -379 m 1,0,1
 860 -379 860 -379 781 -319.5 c 128,-1,2
 702 -260 702 -260 702 -141 c 0,3,4
 702 -100 702 -100 716.5 -64.5 c 128,-1,5
 731 -29 731 -29 756 0 c 1,6,-1
 49 0 l 1,7,-1
 49 1305 l 1,8,-1
 883 1305 l 1,9,-1
 883 1118 l 1,10,-1
 256 1118 l 1,11,-1
 256 758 l 1,12,-1
 745 758 l 1,13,-1
 745 571 l 1,14,-1
 256 571 l 1,15,-1
 256 186 l 1,16,-1
 883 186 l 1,17,-1
 883 0 l 1,18,19
 844 -43 844 -43 844 -104 c 0,20,21
 844 -168 844 -168 888 -199.5 c 128,-1,22
 932 -231 932 -231 995 -231 c 1,23,-1
 995 -379 l 1,0,1
EndSplineSet
EndChar

StartChar: eogonek
Encoding: 281 281 268
Width: 1118
VWidth: 2048
Flags: W
LayerCount: 2
Fore
SplineSet
784 -379 m 1,0,1
 649 -379 649 -379 570.5 -319.5 c 128,-1,2
 492 -260 492 -260 492 -141 c 0,3,4
 492 -106 492 -106 502 -76.5 c 128,-1,5
 512 -47 512 -47 528 -20 c 1,6,7
 518 -23 518 -23 508 -23 c 128,-1,8
 498 -23 498 -23 487 -23 c 0,9,10
 379 -23 379 -23 286 13 c 128,-1,11
 193 49 193 49 125 113.5 c 128,-1,12
 57 178 57 178 18.5 267 c 128,-1,13
 -20 356 -20 356 -20 465 c 0,14,15
 -20 571 -20 571 15.5 660.5 c 128,-1,16
 51 750 51 750 115.5 815.5 c 128,-1,17
 180 881 180 881 270 917.5 c 128,-1,18
 360 954 360 954 469 954 c 0,19,20
 582 954 582 954 674 915.5 c 128,-1,21
 766 877 766 877 831.5 804 c 128,-1,22
 897 731 897 731 934 625.5 c 128,-1,23
 971 520 971 520 971 387 c 1,24,-1
 190 387 l 1,25,26
 205 291 205 291 281.5 227.5 c 128,-1,27
 358 164 358 164 487 164 c 0,28,29
 588 164 588 164 662.5 195.5 c 128,-1,30
 737 227 737 227 791 279 c 1,31,-1
 897 133 l 1,32,33
 844 80 844 80 787.5 48 c 128,-1,34
 731 16 731 16 672 0 c 1,35,36
 633 -43 633 -43 633 -104 c 0,37,38
 633 -168 633 -168 677 -199.5 c 128,-1,39
 721 -231 721 -231 784 -231 c 1,40,-1
 784 -379 l 1,0,1
737 569 m 1,41,42
 721 659 721 659 644 713.5 c 128,-1,43
 567 768 567 768 469 768 c 256,44,45
 371 768 371 768 293 713.5 c 128,-1,46
 215 659 215 659 199 569 c 1,47,-1
 737 569 l 1,41,42
EndSplineSet
EndChar

StartChar: gcommaaccent
Encoding: 291 291 278
Width: 1118
VWidth: 2048
Flags: W
LayerCount: 2
Fore
SplineSet
270 1118 m 1,0,-1
 442 1491 l 1,1,-1
 600 1491 l 1,2,-1
 516 1118 l 1,3,-1
 270 1118 l 1,0,-1
883 10 m 2,4,5
 883 -86 883 -86 850 -161 c 128,-1,6
 817 -236 817 -236 757.5 -288 c 128,-1,7
 698 -340 698 -340 617.5 -367.5 c 128,-1,8
 537 -395 537 -395 438 -395 c 0,9,10
 195 -395 195 -395 23 -248 c 1,11,-1
 121 -88 l 1,12,13
 264 -211 264 -211 438 -211 c 0,14,15
 545 -211 545 -211 610.5 -158.5 c 128,-1,16
 676 -106 676 -106 676 6 c 2,17,-1
 676 106 l 1,18,19
 612 51 612 51 553 24.5 c 128,-1,20
 494 -2 494 -2 416 -2 c 0,21,22
 326 -2 326 -2 249 36 c 128,-1,23
 172 74 172 74 116.5 139.5 c 128,-1,24
 61 205 61 205 29.5 292 c 128,-1,25
 -2 379 -2 379 -2 477 c 256,26,27
 -2 575 -2 575 29.5 662.5 c 128,-1,28
 61 750 61 750 116.5 814.5 c 128,-1,29
 172 879 172 879 249 916.5 c 128,-1,30
 326 954 326 954 416 954 c 0,31,32
 494 954 494 954 555 927.5 c 128,-1,33
 616 901 616 901 676 848 c 1,34,-1
 676 932 l 1,35,-1
 883 932 l 1,36,-1
 883 10 l 2,4,5
676 684 m 1,37,38
 639 725 639 725 580.5 746.5 c 128,-1,39
 522 768 522 768 467 768 c 0,40,41
 350 768 350 768 277.5 686 c 128,-1,42
 205 604 205 604 205 477 c 0,43,44
 205 414 205 414 224.5 360.5 c 128,-1,45
 244 307 244 307 278.5 268 c 128,-1,46
 313 229 313 229 361.5 206.5 c 128,-1,47
 410 184 410 184 467 184 c 0,48,49
 522 184 522 184 580.5 206.5 c 128,-1,50
 639 229 639 229 676 270 c 1,51,-1
 676 684 l 1,37,38
EndSplineSet
EndChar

StartChar: Hbar
Encoding: 294 294 281
Width: 1118
VWidth: 2048
Flags: W
LayerCount: 2
Fore
SplineSet
883 1118 m 1,0,-1
 1069 1118 l 1,1,-1
 1069 944 l 1,2,-1
 883 944 l 1,3,-1
 883 0 l 1,4,-1
 676 0 l 1,5,-1
 676 571 l 1,6,-1
 256 571 l 1,7,-1
 256 0 l 1,8,-1
 49 0 l 1,9,-1
 49 944 l 1,10,-1
 -137 944 l 1,11,-1
 -137 1118 l 1,12,-1
 49 1118 l 1,13,-1
 49 1305 l 1,14,-1
 256 1305 l 1,15,-1
 256 1118 l 1,16,-1
 676 1118 l 1,17,-1
 676 1305 l 1,18,-1
 883 1305 l 1,19,-1
 883 1118 l 1,0,-1
676 758 m 1,20,-1
 676 944 l 1,21,-1
 256 944 l 1,22,-1
 256 758 l 1,23,-1
 676 758 l 1,20,-1
EndSplineSet
EndChar

StartChar: hbar
Encoding: 295 295 282
Width: 1118
VWidth: 2048
Flags: W
LayerCount: 2
Fore
SplineSet
883 0 m 1,0,-1
 676 0 l 1,1,-1
 676 575 l 2,2,3
 676 684 676 684 635 726 c 128,-1,4
 594 768 594 768 516 768 c 0,5,6
 401 768 401 768 328.5 675 c 128,-1,7
 256 582 256 582 256 418 c 2,8,-1
 256 0 l 1,9,-1
 49 0 l 1,10,-1
 49 989 l 1,11,-1
 -123 989 l 1,12,-1
 -123 1163 l 1,13,-1
 49 1163 l 1,14,-1
 49 1305 l 1,15,-1
 256 1305 l 1,16,-1
 256 1163 l 1,17,-1
 436 1163 l 1,18,-1
 436 989 l 1,19,-1
 256 989 l 1,20,-1
 256 698 l 1,21,22
 287 819 287 819 371 886.5 c 128,-1,23
 455 954 455 954 578 954 c 0,24,25
 721 954 721 954 802 861 c 128,-1,26
 883 768 883 768 883 575 c 2,27,-1
 883 0 l 1,0,-1
EndSplineSet
EndChar

StartChar: Iogonek
Encoding: 302 302 289
Width: 1118
VWidth: 2048
Flags: W
LayerCount: 2
Fore
SplineSet
895 -379 m 1,0,1
 760 -379 760 -379 681 -319.5 c 128,-1,2
 602 -260 602 -260 602 -141 c 0,3,4
 602 -100 602 -100 616.5 -64.5 c 128,-1,5
 631 -29 631 -29 655 0 c 1,6,-1
 156 0 l 1,7,-1
 156 186 l 1,8,-1
 362 186 l 1,9,-1
 362 1118 l 1,10,-1
 156 1118 l 1,11,-1
 156 1305 l 1,12,-1
 782 1305 l 1,13,-1
 782 1118 l 1,14,-1
 569 1118 l 1,15,-1
 569 186 l 1,16,-1
 782 186 l 1,17,-1
 782 0 l 1,18,19
 743 -43 743 -43 743 -104 c 0,20,21
 743 -168 743 -168 787 -199.5 c 128,-1,22
 831 -231 831 -231 895 -231 c 1,23,-1
 895 -379 l 1,0,1
EndSplineSet
EndChar

StartChar: iogonek
Encoding: 303 303 290
Width: 1118
VWidth: 2048
Flags: W
LayerCount: 2
Fore
SplineSet
895 -379 m 1,0,1
 760 -379 760 -379 681 -319.5 c 128,-1,2
 602 -260 602 -260 602 -141 c 0,3,4
 602 -100 602 -100 616.5 -64.5 c 128,-1,5
 631 -29 631 -29 655 0 c 1,6,-1
 156 0 l 1,7,-1
 156 186 l 1,8,-1
 362 186 l 1,9,-1
 362 745 l 1,10,-1
 156 745 l 1,11,-1
 156 932 l 1,12,-1
 569 932 l 1,13,-1
 569 186 l 1,14,-1
 782 186 l 1,15,-1
 782 0 l 1,16,17
 743 -43 743 -43 743 -104 c 0,18,19
 743 -168 743 -168 787 -199.5 c 128,-1,20
 831 -231 831 -231 895 -231 c 1,21,-1
 895 -379 l 1,0,1
592 1053 m 1,22,-1
 340 1053 l 1,23,-1
 340 1305 l 1,24,-1
 592 1305 l 1,25,-1
 592 1053 l 1,22,-1
EndSplineSet
EndChar

StartChar: IJ
Encoding: 306 306 292
Width: 1118
VWidth: 2048
Flags: W
LayerCount: 2
Fore
SplineSet
342 -135 m 1,0,1
 412 -209 412 -209 524 -209 c 0,2,3
 592 -209 592 -209 635 -181.5 c 128,-1,4
 678 -154 678 -154 702.5 -107.5 c 128,-1,5
 727 -61 727 -61 736 -1 c 128,-1,6
 745 59 745 59 745 125 c 2,7,-1
 745 1305 l 1,8,-1
 952 1305 l 1,9,-1
 952 125 l 2,10,11
 952 -123 952 -123 846.5 -259 c 128,-1,12
 741 -395 741 -395 524 -395 c 0,13,14
 340 -395 340 -395 217 -291 c 1,15,-1
 342 -135 l 1,0,1
596 0 m 1,16,-1
 -30 0 l 1,17,-1
 -30 186 l 1,18,-1
 176 186 l 1,19,-1
 176 1118 l 1,20,-1
 -30 1118 l 1,21,-1
 -30 1305 l 1,22,-1
 596 1305 l 1,23,-1
 596 1118 l 1,24,-1
 383 1118 l 1,25,-1
 383 186 l 1,26,-1
 596 186 l 1,27,-1
 596 0 l 1,16,-1
EndSplineSet
EndChar

StartChar: jcircumflex
Encoding: 309 309 295
Width: 1118
VWidth: 2048
Flags: W
LayerCount: 2
Fore
SplineSet
344 -395 m 0,0,1
 131 -395 131 -395 0 -236 c 1,2,-1
 123 -98 l 1,3,4
 170 -154 170 -154 223 -181.5 c 128,-1,5
 276 -209 276 -209 344 -209 c 0,6,7
 449 -209 449 -209 499 -151.5 c 128,-1,8
 549 -94 549 -94 549 0 c 2,9,-1
 549 745 l 1,10,-1
 338 745 l 1,11,-1
 338 932 l 1,12,-1
 756 932 l 1,13,-1
 756 0 l 2,14,15
 756 -90 756 -90 726 -163 c 128,-1,16
 696 -236 696 -236 642 -288 c 128,-1,17
 588 -340 588 -340 512 -367.5 c 128,-1,18
 436 -395 436 -395 344 -395 c 0,0,1
883 1085 m 1,19,-1
 803 983 l 1,20,-1
 561 1188 l 1,21,-1
 315 981 l 1,22,-1
 235 1081 l 1,23,-1
 559 1399 l 1,24,-1
 883 1085 l 1,19,-1
EndSplineSet
EndChar

StartChar: kgreenlandic
Encoding: 312 312 298
Width: 1118
VWidth: 2048
Flags: W
LayerCount: 2
Fore
SplineSet
930 0 m 1,0,-1
 662 0 l 1,1,-1
 350 377 l 1,2,-1
 256 281 l 1,3,-1
 256 0 l 1,4,-1
 49 0 l 1,5,-1
 49 932 l 1,6,-1
 256 932 l 1,7,-1
 256 537 l 1,8,-1
 629 932 l 1,9,-1
 913 932 l 1,10,-1
 483 504 l 1,11,-1
 930 0 l 1,0,-1
EndSplineSet
EndChar

StartChar: Lslash
Encoding: 321 321 307
Width: 1118
VWidth: 2048
Flags: W
LayerCount: 2
Fore
SplineSet
883 0 m 1,0,-1
 49 0 l 1,1,-1
 49 520 l 1,2,-1
 -125 463 l 1,3,-1
 -125 651 l 1,4,-1
 49 709 l 1,5,-1
 49 1305 l 1,6,-1
 256 1305 l 1,7,-1
 256 776 l 1,8,-1
 434 838 l 1,9,-1
 434 649 l 1,10,-1
 256 588 l 1,11,-1
 256 186 l 1,12,-1
 883 186 l 1,13,-1
 883 0 l 1,0,-1
EndSplineSet
EndChar

StartChar: lslash
Encoding: 322 322 308
Width: 1118
VWidth: 2048
Flags: W
LayerCount: 2
Fore
SplineSet
784 0 m 1,0,-1
 158 0 l 1,1,-1
 158 186 l 1,2,-1
 362 186 l 1,3,-1
 362 520 l 1,4,-1
 184 461 l 1,5,-1
 184 649 l 1,6,-1
 362 709 l 1,7,-1
 362 1118 l 1,8,-1
 158 1118 l 1,9,-1
 158 1305 l 1,10,-1
 569 1305 l 1,11,-1
 569 776 l 1,12,-1
 743 836 l 1,13,-1
 743 647 l 1,14,-1
 569 588 l 1,15,-1
 569 186 l 1,16,-1
 784 186 l 1,17,-1
 784 0 l 1,0,-1
EndSplineSet
EndChar

StartChar: Eng
Encoding: 330 330 316
Width: 1118
VWidth: 2048
Flags: W
LayerCount: 2
Fore
SplineSet
883 125 m 2,0,1
 883 -123 883 -123 777.5 -259 c 128,-1,2
 672 -395 672 -395 455 -395 c 0,3,4
 270 -395 270 -395 147 -291 c 1,5,-1
 272 -135 l 1,6,7
 342 -209 342 -209 455 -209 c 0,8,9
 543 -209 543 -209 590 -161 c 128,-1,10
 637 -113 637 -113 657 -41 c 1,11,-1
 256 946 l 1,12,-1
 256 0 l 1,13,-1
 49 0 l 1,14,-1
 49 1305 l 1,15,-1
 309 1305 l 1,16,-1
 676 406 l 1,17,-1
 676 1305 l 1,18,-1
 883 1305 l 1,19,-1
 883 125 l 2,0,1
EndSplineSet
EndChar

StartChar: eng
Encoding: 331 331 317
Width: 1118
VWidth: 2048
Flags: W
LayerCount: 2
Fore
SplineSet
330 -164 m 1,0,1
 393 -209 393 -209 471 -209 c 0,2,3
 575 -209 575 -209 625.5 -151.5 c 128,-1,4
 676 -94 676 -94 676 0 c 2,5,-1
 676 575 l 2,6,7
 676 684 676 684 635 726 c 128,-1,8
 594 768 594 768 516 768 c 0,9,10
 401 768 401 768 328.5 675 c 128,-1,11
 256 582 256 582 256 418 c 2,12,-1
 256 0 l 1,13,-1
 49 0 l 1,14,-1
 49 932 l 1,15,-1
 256 932 l 1,16,-1
 256 698 l 1,17,18
 287 819 287 819 371 886.5 c 128,-1,19
 455 954 455 954 578 954 c 0,20,21
 721 954 721 954 802 861 c 128,-1,22
 883 768 883 768 883 575 c 2,23,-1
 883 0 l 2,24,25
 883 -90 883 -90 853 -163 c 128,-1,26
 823 -236 823 -236 769 -288 c 128,-1,27
 715 -340 715 -340 639 -367.5 c 128,-1,28
 563 -395 563 -395 471 -395 c 0,29,30
 344 -395 344 -395 246 -338 c 1,31,-1
 330 -164 l 1,0,1
EndSplineSet
EndChar

StartChar: Scedilla
Encoding: 350 350 334
Width: 1118
VWidth: 2048
Flags: W
LayerCount: 2
Fore
SplineSet
899 358 m 0,0,1
 899 281 899 281 875.5 217.5 c 128,-1,2
 852 154 852 154 811 105.5 c 128,-1,3
 770 57 770 57 713.5 27.5 c 128,-1,4
 657 -2 657 -2 590 -14 c 1,5,-1
 590 -41 l 2,6,7
 590 -111 590 -111 566.5 -171 c 128,-1,8
 543 -231 543 -231 498 -275 c 128,-1,9
 453 -319 453 -319 388.5 -345 c 128,-1,10
 324 -371 324 -371 242 -371 c 1,11,-1
 242 -193 l 1,12,13
 330 -193 330 -193 372 -153 c 128,-1,14
 414 -113 414 -113 414 -41 c 2,15,-1
 414 -14 l 1,16,17
 291 10 291 10 213 119 c 1,18,-1
 213 0 l 1,19,-1
 27 0 l 1,20,-1
 27 426 l 1,21,-1
 213 426 l 1,22,23
 213 362 213 362 235.5 313 c 128,-1,24
 258 264 258 264 295 230.5 c 128,-1,25
 332 197 332 197 381 179.5 c 128,-1,26
 430 162 430 162 485 162 c 0,27,28
 578 162 578 162 635 205 c 128,-1,29
 692 248 692 248 692 342 c 0,30,31
 692 391 692 391 674.5 426 c 128,-1,32
 657 461 657 461 624.5 488.5 c 128,-1,33
 592 516 592 516 545 536.5 c 128,-1,34
 498 557 498 557 438 580 c 0,35,36
 367 604 367 604 296 634 c 128,-1,37
 225 664 225 664 169 708 c 128,-1,38
 113 752 113 752 78 816.5 c 128,-1,39
 43 881 43 881 43 979 c 0,40,41
 43 1065 43 1065 74.5 1129.5 c 128,-1,42
 106 1194 106 1194 158.5 1238 c 128,-1,43
 211 1282 211 1282 280.5 1304.5 c 128,-1,44
 350 1327 350 1327 428 1327 c 0,45,46
 518 1327 518 1327 582.5 1289 c 128,-1,47
 647 1251 647 1251 682 1188 c 1,48,-1
 682 1305 l 1,49,-1
 868 1305 l 1,50,-1
 868 899 l 1,51,-1
 682 899 l 1,52,53
 682 1014 682 1014 621.5 1078.5 c 128,-1,54
 561 1143 561 1143 459 1143 c 0,55,56
 369 1143 369 1143 309.5 1101 c 128,-1,57
 250 1059 250 1059 250 983 c 0,58,59
 250 944 250 944 265.5 916.5 c 128,-1,60
 281 889 281 889 310.5 866.5 c 128,-1,61
 340 844 340 844 385 824.5 c 128,-1,62
 430 805 430 805 489 782 c 0,63,64
 563 756 563 756 636 723 c 128,-1,65
 709 690 709 690 767 642 c 128,-1,66
 825 594 825 594 862 525.5 c 128,-1,67
 899 457 899 457 899 358 c 0,0,1
EndSplineSet
EndChar

StartChar: scedilla
Encoding: 351 351 335
Width: 1118
VWidth: 2048
Flags: W
LayerCount: 2
Fore
SplineSet
907 279 m 0,0,1
 907 207 907 207 880.5 156.5 c 128,-1,2
 854 106 854 106 810 71.5 c 128,-1,3
 766 37 766 37 708.5 16.5 c 128,-1,4
 651 -4 651 -4 590 -12 c 1,5,-1
 590 -41 l 2,6,7
 590 -111 590 -111 566.5 -171 c 128,-1,8
 543 -231 543 -231 498 -275 c 128,-1,9
 453 -319 453 -319 388.5 -345 c 128,-1,10
 324 -371 324 -371 242 -371 c 1,11,-1
 242 -193 l 1,12,13
 330 -193 330 -193 372 -153 c 128,-1,14
 414 -113 414 -113 414 -41 c 2,15,-1
 414 -20 l 1,16,17
 297 -14 297 -14 185.5 20.5 c 128,-1,18
 74 55 74 55 -10 111 c 1,19,-1
 76 281 l 1,20,21
 186 217 186 217 277.5 190.5 c 128,-1,22
 369 164 369 164 461 164 c 0,23,24
 586 164 586 164 643 190.5 c 128,-1,25
 700 217 700 217 700 264 c 0,26,27
 700 287 700 287 684 302 c 128,-1,28
 668 317 668 317 631 329.5 c 128,-1,29
 594 342 594 342 533.5 354.5 c 128,-1,30
 473 367 473 367 383 381 c 0,31,32
 311 393 311 393 246.5 410.5 c 128,-1,33
 182 428 182 428 133 460 c 128,-1,34
 84 492 84 492 54.5 541 c 128,-1,35
 25 590 25 590 25 664 c 0,36,37
 25 739 25 739 63.5 794.5 c 128,-1,38
 102 850 102 850 164.5 886 c 128,-1,39
 227 922 227 922 305 938 c 128,-1,40
 383 954 383 954 461 954 c 0,41,42
 571 954 571 954 674.5 925.5 c 128,-1,43
 778 897 778 897 856 844 c 1,44,-1
 774 684 l 1,45,46
 696 733 696 733 622.5 750.5 c 128,-1,47
 549 768 549 768 461 768 c 0,48,49
 424 768 424 768 384 764 c 128,-1,50
 344 760 344 760 310 748.5 c 128,-1,51
 276 737 276 737 253.5 717.5 c 128,-1,52
 231 698 231 698 231 670 c 0,53,54
 231 633 231 633 296.5 609.5 c 128,-1,55
 362 586 362 586 520 563 c 0,56,57
 606 551 606 551 677 532.5 c 128,-1,58
 748 514 748 514 799 482.5 c 128,-1,59
 850 451 850 451 878.5 401.5 c 128,-1,60
 907 352 907 352 907 279 c 0,0,1
EndSplineSet
EndChar

StartChar: Tbar
Encoding: 358 358 342
Width: 1118
VWidth: 2048
Flags: W
LayerCount: 2
Fore
SplineSet
745 571 m 1,0,-1
 569 571 l 1,1,-1
 569 186 l 1,2,-1
 776 186 l 1,3,-1
 776 0 l 1,4,-1
 156 0 l 1,5,-1
 156 186 l 1,6,-1
 362 186 l 1,7,-1
 362 571 l 1,8,-1
 186 571 l 1,9,-1
 186 745 l 1,10,-1
 362 745 l 1,11,-1
 362 1118 l 1,12,-1
 184 1118 l 1,13,-1
 184 829 l 1,14,-1
 0 829 l 1,15,-1
 0 1305 l 1,16,-1
 930 1305 l 1,17,-1
 930 829 l 1,18,-1
 745 829 l 1,19,-1
 745 1118 l 1,20,-1
 569 1118 l 1,21,-1
 569 745 l 1,22,-1
 745 745 l 1,23,-1
 745 571 l 1,0,-1
EndSplineSet
EndChar

StartChar: tbar
Encoding: 359 359 343
Width: 1118
VWidth: 2048
Flags: W
LayerCount: 2
Fore
SplineSet
942 297 m 1,0,1
 926 150 926 150 826.5 63.5 c 128,-1,2
 727 -23 727 -23 578 -23 c 0,3,4
 496 -23 496 -23 428 4 c 128,-1,5
 360 31 360 31 312 79 c 128,-1,6
 264 127 264 127 237.5 194.5 c 128,-1,7
 211 262 211 262 211 342 c 2,8,-1
 211 385 l 1,9,-1
 0 385 l 1,10,-1
 0 559 l 1,11,-1
 211 559 l 1,12,-1
 211 745 l 1,13,-1
 0 745 l 1,14,-1
 0 932 l 1,15,-1
 211 932 l 1,16,-1
 211 1305 l 1,17,-1
 418 1305 l 1,18,-1
 418 932 l 1,19,-1
 809 932 l 1,20,-1
 809 745 l 1,21,-1
 418 745 l 1,22,-1
 418 559 l 1,23,-1
 627 559 l 1,24,-1
 627 385 l 1,25,-1
 418 385 l 1,26,-1
 418 342 l 2,27,28
 418 252 418 252 462 208 c 128,-1,29
 506 164 506 164 578 164 c 0,30,31
 666 164 666 164 709 215 c 128,-1,32
 752 266 752 266 760 338 c 1,33,-1
 942 297 l 1,0,1
EndSplineSet
EndChar

StartChar: Uogonek
Encoding: 370 370 354
Width: 1118
VWidth: 2048
Flags: W
LayerCount: 2
Fore
SplineSet
731 -379 m 1,0,1
 596 -379 596 -379 517 -319.5 c 128,-1,2
 438 -260 438 -260 438 -141 c 0,3,4
 438 -76 438 -76 475 -23 c 1,5,-1
 465 -23 l 2,6,7
 356 -23 356 -23 278.5 12 c 128,-1,8
 201 47 201 47 149.5 110.5 c 128,-1,9
 98 174 98 174 73.5 265 c 128,-1,10
 49 356 49 356 49 467 c 2,11,-1
 49 1305 l 1,12,-1
 256 1305 l 1,13,-1
 256 465 l 2,14,15
 256 416 256 416 263 363.5 c 128,-1,16
 270 311 270 311 291.5 266 c 128,-1,17
 313 221 313 221 355 192.5 c 128,-1,18
 397 164 397 164 465 164 c 0,19,20
 532 164 532 164 574 192.5 c 128,-1,21
 616 221 616 221 639 265 c 128,-1,22
 662 309 662 309 669 362.5 c 128,-1,23
 676 416 676 416 676 465 c 2,24,-1
 676 1305 l 1,25,-1
 883 1305 l 1,26,-1
 883 465 l 2,27,28
 883 285 883 285 818.5 164 c 128,-1,29
 754 43 754 43 618 0 c 1,30,31
 580 -43 580 -43 580 -104 c 0,32,33
 580 -168 580 -168 624 -199.5 c 128,-1,34
 668 -231 668 -231 731 -231 c 1,35,-1
 731 -379 l 1,0,1
EndSplineSet
EndChar

StartChar: uogonek
Encoding: 371 371 355
Width: 1118
VWidth: 2048
Flags: W
LayerCount: 2
Fore
SplineSet
995 -379 m 1,0,1
 860 -379 860 -379 781 -319.5 c 128,-1,2
 702 -260 702 -260 702 -141 c 0,3,4
 702 -100 702 -100 716.5 -64.5 c 128,-1,5
 731 -29 731 -29 756 0 c 1,6,-1
 676 0 l 1,7,-1
 676 233 l 1,8,9
 645 113 645 113 561 45 c 128,-1,10
 477 -23 477 -23 354 -23 c 0,11,12
 211 -23 211 -23 130 70.5 c 128,-1,13
 49 164 49 164 49 356 c 2,14,-1
 49 932 l 1,15,-1
 256 932 l 1,16,-1
 256 356 l 2,17,18
 256 248 256 248 297 206 c 128,-1,19
 338 164 338 164 416 164 c 0,20,21
 530 164 530 164 603 257 c 128,-1,22
 676 350 676 350 676 514 c 2,23,-1
 676 932 l 1,24,-1
 883 932 l 1,25,-1
 883 0 l 1,26,27
 844 -43 844 -43 844 -104 c 0,28,29
 844 -168 844 -168 888 -199.5 c 128,-1,30
 932 -231 932 -231 995 -231 c 1,31,-1
 995 -379 l 1,0,1
EndSplineSet
EndChar

StartChar: longs
Encoding: 383 383 366
Width: 1118
VWidth: 2048
Flags: W
LayerCount: 2
Fore
SplineSet
569 186 m 1,0,-1
 782 186 l 1,1,-1
 782 0 l 1,2,-1
 156 0 l 1,3,-1
 156 186 l 1,4,-1
 362 186 l 1,5,-1
 362 745 l 1,6,-1
 156 745 l 1,7,-1
 156 932 l 1,8,-1
 362 932 l 1,9,10
 362 1124 362 1124 480 1225.5 c 128,-1,11
 598 1327 598 1327 799 1327 c 0,12,13
 829 1327 829 1327 863 1324 c 128,-1,14
 897 1321 897 1321 932 1317 c 1,15,-1
 932 1135 l 1,16,17
 872 1141 872 1141 823 1141 c 0,18,19
 743 1141 743 1141 694 1129.5 c 128,-1,20
 645 1118 645 1118 617.5 1092.5 c 128,-1,21
 590 1067 590 1067 579.5 1027 c 128,-1,22
 569 987 569 987 569 932 c 2,23,-1
 569 186 l 1,0,-1
EndSplineSet
EndChar

StartChar: tonos
Encoding: 900 900 375
Width: 1118
VWidth: 2048
Flags: W
LayerCount: 2
Fore
SplineSet
618 1675 m 1,0,-1
 535 1118 l 1,1,-1
 373 1118 l 1,2,-1
 373 1675 l 1,3,-1
 618 1675 l 1,0,-1
EndSplineSet
EndChar

StartChar: dieresistonos
Encoding: 901 901 376
Width: 1118
VWidth: 2048
Flags: W
LayerCount: 2
Fore
SplineSet
932 1118 m 1,0,-1
 680 1118 l 1,1,-1
 680 1370 l 1,2,-1
 932 1370 l 1,3,-1
 932 1118 l 1,0,-1
252 1118 m 1,4,-1
 0 1118 l 1,5,-1
 0 1370 l 1,6,-1
 252 1370 l 1,7,-1
 252 1118 l 1,4,-1
618 1675 m 1,8,-1
 535 1118 l 1,9,-1
 373 1118 l 1,10,-1
 373 1675 l 1,11,-1
 618 1675 l 1,8,-1
EndSplineSet
EndChar

StartChar: Iotatonos
Encoding: 906 906 380
Width: 1118
VWidth: 2048
Flags: W
LayerCount: 2
Fore
SplineSet
782 0 m 1,0,-1
 156 0 l 1,1,-1
 156 186 l 1,2,-1
 362 186 l 1,3,-1
 362 1118 l 1,4,-1
 238 1118 l 1,5,-1
 238 1305 l 1,6,-1
 782 1305 l 1,7,-1
 782 1118 l 1,8,-1
 569 1118 l 1,9,-1
 569 186 l 1,10,-1
 782 186 l 1,11,-1
 782 0 l 1,0,-1
245 1675 m 1,12,-1
 162 1118 l 1,13,-1
 0 1118 l 1,14,-1
 0 1675 l 1,15,-1
 245 1675 l 1,12,-1
EndSplineSet
EndChar

StartChar: Upsilontonos
Encoding: 910 910 382
Width: 1118
VWidth: 2048
Flags: W
LayerCount: 2
Fore
SplineSet
952 1118 m 1,0,-1
 858 1118 l 1,1,-1
 569 532 l 1,2,-1
 569 186 l 1,3,-1
 778 186 l 1,4,-1
 778 0 l 1,5,-1
 154 0 l 1,6,-1
 154 186 l 1,7,-1
 362 186 l 1,8,-1
 362 532 l 1,9,-1
 74 1118 l 1,10,-1
 49 1118 l 1,11,-1
 49 1305 l 1,12,-1
 391 1305 l 1,13,-1
 391 1118 l 1,14,-1
 301 1118 l 1,15,-1
 467 735 l 1,16,-1
 631 1118 l 1,17,-1
 541 1118 l 1,18,-1
 541 1305 l 1,19,-1
 952 1305 l 1,20,-1
 952 1118 l 1,0,-1
59 1675 m 1,21,-1
 -24 1118 l 1,22,-1
 -186 1118 l 1,23,-1
 -186 1675 l 1,24,-1
 59 1675 l 1,21,-1
EndSplineSet
EndChar

StartChar: Alpha
Encoding: 913 913 385
Width: 1118
VWidth: 2048
Flags: W
LayerCount: 2
Fore
SplineSet
776 0 m 1,0,-1
 682 311 l 1,1,-1
 250 311 l 1,2,-1
 158 0 l 1,3,-1
 -59 0 l 1,4,-1
 348 1305 l 1,5,-1
 586 1305 l 1,6,-1
 993 0 l 1,7,-1
 776 0 l 1,0,-1
305 494 m 1,8,-1
 627 494 l 1,9,-1
 467 1032 l 1,10,-1
 305 494 l 1,8,-1
EndSplineSet
EndChar

StartChar: Beta
Encoding: 914 914 386
Width: 1118
VWidth: 2048
Flags: W
LayerCount: 2
Fore
SplineSet
930 358 m 0,0,1
 930 180 930 180 809 90 c 128,-1,2
 688 0 688 0 465 0 c 2,3,-1
 49 0 l 1,4,-1
 49 1305 l 1,5,-1
 442 1305 l 2,6,7
 524 1305 524 1305 603 1291.5 c 128,-1,8
 682 1278 682 1278 744.5 1241 c 128,-1,9
 807 1204 807 1204 846 1137.5 c 128,-1,10
 885 1071 885 1071 885 965 c 0,11,12
 885 866 885 866 834.5 784 c 128,-1,13
 784 702 784 702 682 666 c 1,14,15
 807 627 807 627 868.5 557 c 128,-1,16
 930 487 930 487 930 358 c 0,0,1
680 938 m 256,17,18
 680 995 680 995 658.5 1031 c 128,-1,19
 637 1067 637 1067 603 1086.5 c 128,-1,20
 569 1106 569 1106 527 1112 c 128,-1,21
 485 1118 485 1118 442 1118 c 2,22,-1
 256 1118 l 1,23,-1
 256 758 l 1,24,-1
 442 758 l 2,25,26
 485 758 485 758 527 764 c 128,-1,27
 569 770 569 770 603 789.5 c 128,-1,28
 637 809 637 809 658.5 845 c 128,-1,29
 680 881 680 881 680 938 c 256,17,18
725 379 m 256,30,31
 725 477 725 477 656.5 524 c 128,-1,32
 588 571 588 571 465 571 c 2,33,-1
 256 571 l 1,34,-1
 256 186 l 1,35,-1
 465 186 l 2,36,37
 588 186 588 186 656.5 233.5 c 128,-1,38
 725 281 725 281 725 379 c 256,30,31
EndSplineSet
EndChar

StartChar: Gamma
Encoding: 915 915 387
Width: 1118
VWidth: 2048
Flags: W
LayerCount: 2
Fore
SplineSet
49 1305 m 1,0,-1
 932 1305 l 1,1,-1
 932 1118 l 1,2,-1
 256 1118 l 1,3,-1
 256 0 l 1,4,-1
 49 0 l 1,5,-1
 49 1305 l 1,0,-1
EndSplineSet
EndChar

StartChar: uni0394
Encoding: 916 916 388
Width: 1118
VWidth: 2048
Flags: W
LayerCount: 2
Fore
SplineSet
-59 0 m 1,0,-1
 348 1305 l 1,1,-1
 586 1305 l 1,2,-1
 993 0 l 1,3,-1
 -59 0 l 1,0,-1
213 184 m 1,4,-1
 721 184 l 1,5,-1
 467 1032 l 1,6,-1
 213 184 l 1,4,-1
EndSplineSet
EndChar

StartChar: Epsilon
Encoding: 917 917 389
Width: 1118
VWidth: 2048
Flags: W
LayerCount: 2
Fore
SplineSet
883 0 m 1,0,-1
 49 0 l 1,1,-1
 49 1305 l 1,2,-1
 883 1305 l 1,3,-1
 883 1118 l 1,4,-1
 256 1118 l 1,5,-1
 256 758 l 1,6,-1
 745 758 l 1,7,-1
 745 571 l 1,8,-1
 256 571 l 1,9,-1
 256 186 l 1,10,-1
 883 186 l 1,11,-1
 883 0 l 1,0,-1
EndSplineSet
EndChar

StartChar: Zeta
Encoding: 918 918 390
Width: 1118
VWidth: 2048
Flags: W
LayerCount: 2
Fore
SplineSet
883 0 m 1,0,-1
 49 0 l 1,1,-1
 49 184 l 1,2,-1
 633 1118 l 1,3,-1
 236 1118 l 1,4,-1
 236 834 l 1,5,-1
 49 834 l 1,6,-1
 49 1305 l 1,7,-1
 866 1305 l 1,8,-1
 866 1118 l 1,9,-1
 299 186 l 1,10,-1
 700 186 l 1,11,-1
 700 473 l 1,12,-1
 883 473 l 1,13,-1
 883 0 l 1,0,-1
EndSplineSet
EndChar

StartChar: Eta
Encoding: 919 919 391
Width: 1118
VWidth: 2048
Flags: W
LayerCount: 2
Fore
SplineSet
883 0 m 1,0,-1
 676 0 l 1,1,-1
 676 571 l 1,2,-1
 256 571 l 1,3,-1
 256 0 l 1,4,-1
 49 0 l 1,5,-1
 49 1305 l 1,6,-1
 256 1305 l 1,7,-1
 256 758 l 1,8,-1
 676 758 l 1,9,-1
 676 1305 l 1,10,-1
 883 1305 l 1,11,-1
 883 0 l 1,0,-1
EndSplineSet
EndChar

StartChar: Theta
Encoding: 920 920 392
Width: 1118
VWidth: 2048
Flags: W
LayerCount: 2
Fore
SplineSet
229 758 m 1,0,-1
 700 758 l 1,1,-1
 700 571 l 1,2,-1
 229 571 l 1,3,-1
 229 758 l 1,0,-1
-33 653 m 256,4,5
 -33 784 -33 784 -5 906 c 128,-1,6
 23 1028 23 1028 82 1121 c 128,-1,7
 141 1214 141 1214 236.5 1270.5 c 128,-1,8
 332 1327 332 1327 467 1327 c 256,9,10
 602 1327 602 1327 697.5 1270.5 c 128,-1,11
 793 1214 793 1214 853 1121 c 128,-1,12
 913 1028 913 1028 940 906 c 128,-1,13
 967 784 967 784 967 653 c 256,14,15
 967 522 967 522 940 400.5 c 128,-1,16
 913 279 913 279 854 184.5 c 128,-1,17
 795 90 795 90 699.5 33.5 c 128,-1,18
 604 -23 604 -23 467 -23 c 256,19,20
 330 -23 330 -23 234.5 33.5 c 128,-1,21
 139 90 139 90 79.5 184.5 c 128,-1,22
 20 279 20 279 -6.5 400.5 c 128,-1,23
 -33 522 -33 522 -33 653 c 256,4,5
174 653 m 0,24,25
 174 565 174 565 187.5 477 c 128,-1,26
 201 389 201 389 233.5 319.5 c 128,-1,27
 266 250 266 250 322.5 207 c 128,-1,28
 379 164 379 164 467 164 c 256,29,30
 555 164 555 164 611.5 207 c 128,-1,31
 668 250 668 250 700.5 319.5 c 128,-1,32
 733 389 733 389 746.5 477 c 128,-1,33
 760 565 760 565 760 653 c 256,34,35
 760 741 760 741 746.5 828 c 128,-1,36
 733 915 733 915 700.5 985 c 128,-1,37
 668 1055 668 1055 610.5 1098 c 128,-1,38
 553 1141 553 1141 467 1141 c 0,39,40
 324 1141 324 1141 249 1012 c 128,-1,41
 174 883 174 883 174 653 c 0,24,25
EndSplineSet
EndChar

StartChar: Iota
Encoding: 921 921 393
Width: 1118
VWidth: 2048
Flags: W
LayerCount: 2
Fore
SplineSet
782 0 m 1,0,-1
 156 0 l 1,1,-1
 156 186 l 1,2,-1
 362 186 l 1,3,-1
 362 1118 l 1,4,-1
 156 1118 l 1,5,-1
 156 1305 l 1,6,-1
 782 1305 l 1,7,-1
 782 1118 l 1,8,-1
 569 1118 l 1,9,-1
 569 186 l 1,10,-1
 782 186 l 1,11,-1
 782 0 l 1,0,-1
EndSplineSet
EndChar

StartChar: Kappa
Encoding: 922 922 394
Width: 1118
VWidth: 2048
Flags: W
LayerCount: 2
Fore
SplineSet
926 0 m 1,0,-1
 684 0 l 1,1,-1
 342 608 l 1,2,-1
 256 506 l 1,3,-1
 256 0 l 1,4,-1
 49 0 l 1,5,-1
 49 1305 l 1,6,-1
 256 1305 l 1,7,-1
 256 793 l 1,8,-1
 662 1305 l 1,9,-1
 928 1305 l 1,10,-1
 473 764 l 1,11,-1
 926 0 l 1,0,-1
EndSplineSet
EndChar

StartChar: Lambda
Encoding: 923 923 395
Width: 1118
VWidth: 2048
Flags: W
LayerCount: 2
Fore
SplineSet
774 0 m 1,0,-1
 467 1032 l 1,1,-1
 158 0 l 1,2,-1
 -59 0 l 1,3,-1
 348 1305 l 1,4,-1
 584 1305 l 1,5,-1
 991 0 l 1,6,-1
 774 0 l 1,0,-1
EndSplineSet
EndChar

StartChar: Mu
Encoding: 924 924 396
Width: 1118
VWidth: 2048
Flags: W
LayerCount: 2
Fore
SplineSet
883 0 m 1,0,-1
 676 0 l 1,1,-1
 676 883 l 1,2,-1
 545 414 l 1,3,-1
 385 414 l 1,4,-1
 256 883 l 1,5,-1
 256 0 l 1,6,-1
 49 0 l 1,7,-1
 49 1305 l 1,8,-1
 295 1305 l 1,9,-1
 465 715 l 1,10,-1
 635 1305 l 1,11,-1
 883 1305 l 1,12,-1
 883 0 l 1,0,-1
EndSplineSet
EndChar

StartChar: Nu
Encoding: 925 925 397
Width: 1118
VWidth: 2048
Flags: W
LayerCount: 2
Fore
SplineSet
883 0 m 1,0,-1
 643 0 l 1,1,-1
 256 946 l 1,2,-1
 256 0 l 1,3,-1
 49 0 l 1,4,-1
 49 1305 l 1,5,-1
 309 1305 l 1,6,-1
 676 406 l 1,7,-1
 676 1305 l 1,8,-1
 883 1305 l 1,9,-1
 883 0 l 1,0,-1
EndSplineSet
EndChar

StartChar: Xi
Encoding: 926 926 398
Width: 1118
VWidth: 2048
Flags: W
LayerCount: 2
Fore
SplineSet
0 334 m 1,0,-1
 186 334 l 1,1,-1
 186 186 l 1,2,-1
 745 186 l 1,3,-1
 745 334 l 1,4,-1
 932 334 l 1,5,-1
 932 0 l 1,6,-1
 0 0 l 1,7,-1
 0 334 l 1,0,-1
745 1118 m 1,8,-1
 186 1118 l 1,9,-1
 186 969 l 1,10,-1
 0 969 l 1,11,-1
 0 1305 l 1,12,-1
 932 1305 l 1,13,-1
 932 969 l 1,14,-1
 745 969 l 1,15,-1
 745 1118 l 1,8,-1
186 758 m 1,16,-1
 745 758 l 1,17,-1
 745 571 l 1,18,-1
 186 571 l 1,19,-1
 186 758 l 1,16,-1
EndSplineSet
EndChar

StartChar: Omicron
Encoding: 927 927 399
Width: 1118
VWidth: 2048
Flags: W
LayerCount: 2
Fore
SplineSet
-33 653 m 256,0,1
 -33 784 -33 784 -5 906 c 128,-1,2
 23 1028 23 1028 82 1121 c 128,-1,3
 141 1214 141 1214 236.5 1270.5 c 128,-1,4
 332 1327 332 1327 467 1327 c 256,5,6
 602 1327 602 1327 697.5 1270.5 c 128,-1,7
 793 1214 793 1214 853 1121 c 128,-1,8
 913 1028 913 1028 940 906 c 128,-1,9
 967 784 967 784 967 653 c 256,10,11
 967 522 967 522 940 400.5 c 128,-1,12
 913 279 913 279 854 184.5 c 128,-1,13
 795 90 795 90 699.5 33.5 c 128,-1,14
 604 -23 604 -23 467 -23 c 256,15,16
 330 -23 330 -23 234.5 33.5 c 128,-1,17
 139 90 139 90 79.5 184.5 c 128,-1,18
 20 279 20 279 -6.5 400.5 c 128,-1,19
 -33 522 -33 522 -33 653 c 256,0,1
174 653 m 0,20,21
 174 565 174 565 187.5 477 c 128,-1,22
 201 389 201 389 233.5 319.5 c 128,-1,23
 266 250 266 250 322.5 207 c 128,-1,24
 379 164 379 164 467 164 c 256,25,26
 555 164 555 164 611.5 207 c 128,-1,27
 668 250 668 250 700.5 319.5 c 128,-1,28
 733 389 733 389 746.5 477 c 128,-1,29
 760 565 760 565 760 653 c 256,30,31
 760 741 760 741 746.5 828 c 128,-1,32
 733 915 733 915 700.5 985 c 128,-1,33
 668 1055 668 1055 610.5 1098 c 128,-1,34
 553 1141 553 1141 467 1141 c 0,35,36
 324 1141 324 1141 249 1012 c 128,-1,37
 174 883 174 883 174 653 c 0,20,21
EndSplineSet
EndChar

StartChar: Pi
Encoding: 928 928 400
Width: 1118
VWidth: 2048
Flags: W
LayerCount: 2
Fore
SplineSet
883 0 m 1,0,-1
 676 0 l 1,1,-1
 676 1118 l 1,2,-1
 256 1118 l 1,3,-1
 256 0 l 1,4,-1
 49 0 l 1,5,-1
 49 1305 l 1,6,-1
 883 1305 l 1,7,-1
 883 0 l 1,0,-1
EndSplineSet
EndChar

StartChar: Rho
Encoding: 929 929 401
Width: 1118
VWidth: 2048
Flags: W
LayerCount: 2
Fore
SplineSet
932 915 m 0,0,1
 932 719 932 719 813 623.5 c 128,-1,2
 694 528 694 528 481 528 c 2,3,-1
 256 528 l 1,4,-1
 256 0 l 1,5,-1
 49 0 l 1,6,-1
 49 1305 l 1,7,-1
 479 1305 l 2,8,9
 694 1305 694 1305 813 1206.5 c 128,-1,10
 932 1108 932 1108 932 915 c 0,0,1
725 918 m 0,11,12
 725 1018 725 1018 659.5 1068 c 128,-1,13
 594 1118 594 1118 481 1118 c 2,14,-1
 256 1118 l 1,15,-1
 256 715 l 1,16,-1
 481 715 l 2,17,18
 594 715 594 715 659.5 765 c 128,-1,19
 725 815 725 815 725 918 c 0,11,12
EndSplineSet
EndChar

StartChar: Sigma
Encoding: 931 931 402
Width: 1118
VWidth: 2048
Flags: W
LayerCount: 2
Fore
SplineSet
883 0 m 1,0,-1
 43 0 l 1,1,-1
 43 186 l 1,2,-1
 338 651 l 1,3,-1
 43 1118 l 1,4,-1
 43 1305 l 1,5,-1
 883 1305 l 1,6,-1
 883 864 l 1,7,-1
 696 864 l 1,8,-1
 696 1118 l 1,9,-1
 295 1118 l 1,10,-1
 582 651 l 1,11,-1
 295 186 l 1,12,-1
 696 186 l 1,13,-1
 696 442 l 1,14,-1
 883 442 l 1,15,-1
 883 0 l 1,0,-1
EndSplineSet
EndChar

StartChar: Tau
Encoding: 932 932 403
Width: 1118
VWidth: 2048
Flags: W
LayerCount: 2
Fore
SplineSet
930 829 m 1,0,-1
 745 829 l 1,1,-1
 745 1118 l 1,2,-1
 569 1118 l 1,3,-1
 569 186 l 1,4,-1
 776 186 l 1,5,-1
 776 0 l 1,6,-1
 156 0 l 1,7,-1
 156 186 l 1,8,-1
 362 186 l 1,9,-1
 362 1118 l 1,10,-1
 184 1118 l 1,11,-1
 184 829 l 1,12,-1
 0 829 l 1,13,-1
 0 1305 l 1,14,-1
 930 1305 l 1,15,-1
 930 829 l 1,0,-1
EndSplineSet
EndChar

StartChar: Upsilon
Encoding: 933 933 404
Width: 1118
VWidth: 2048
Flags: W
LayerCount: 2
Fore
SplineSet
952 1118 m 1,0,-1
 858 1118 l 1,1,-1
 569 532 l 1,2,-1
 569 186 l 1,3,-1
 778 186 l 1,4,-1
 778 0 l 1,5,-1
 154 0 l 1,6,-1
 154 186 l 1,7,-1
 362 186 l 1,8,-1
 362 532 l 1,9,-1
 74 1118 l 1,10,-1
 -20 1118 l 1,11,-1
 -20 1305 l 1,12,-1
 391 1305 l 1,13,-1
 391 1118 l 1,14,-1
 301 1118 l 1,15,-1
 467 735 l 1,16,-1
 631 1118 l 1,17,-1
 541 1118 l 1,18,-1
 541 1305 l 1,19,-1
 952 1305 l 1,20,-1
 952 1118 l 1,0,-1
EndSplineSet
EndChar

StartChar: Phi
Encoding: 934 934 405
Width: 1118
VWidth: 2048
Flags: W
LayerCount: 2
Fore
SplineSet
956 666 m 0,0,1
 956 569 956 569 928.5 488.5 c 128,-1,2
 901 408 901 408 850 346.5 c 128,-1,3
 799 285 799 285 727 243 c 128,-1,4
 655 201 655 201 567 186 c 1,5,-1
 567 0 l 1,6,-1
 362 0 l 1,7,-1
 362 186 l 1,8,9
 186 219 186 219 83 347 c 128,-1,10
 -20 475 -20 475 -20 666 c 0,11,12
 -20 760 -20 760 6.5 840 c 128,-1,13
 33 920 33 920 83 982 c 128,-1,14
 133 1044 133 1044 203.5 1086 c 128,-1,15
 274 1128 274 1128 362 1145 c 1,16,-1
 362 1305 l 1,17,-1
 567 1305 l 1,18,-1
 567 1147 l 1,19,20
 655 1130 655 1130 727 1089.5 c 128,-1,21
 799 1049 799 1049 850 985.5 c 128,-1,22
 901 922 901 922 928.5 841 c 128,-1,23
 956 760 956 760 956 666 c 0,0,1
750 666 m 0,24,25
 750 768 750 768 701.5 845 c 128,-1,26
 653 922 653 922 567 952 c 1,27,-1
 567 379 l 1,28,29
 653 410 653 410 701.5 485.5 c 128,-1,30
 750 561 750 561 750 666 c 0,24,25
186 666 m 0,31,32
 186 563 186 563 231 487.5 c 128,-1,33
 276 412 276 412 362 381 c 1,34,-1
 362 950 l 1,35,36
 276 920 276 920 231 843 c 128,-1,37
 186 766 186 766 186 666 c 0,31,32
EndSplineSet
EndChar

StartChar: Chi
Encoding: 935 935 406
Width: 1118
VWidth: 2048
Flags: W
LayerCount: 2
Fore
SplineSet
952 0 m 1,0,-1
 526 0 l 1,1,-1
 526 186 l 1,2,-1
 600 186 l 1,3,-1
 463 481 l 1,4,-1
 326 186 l 1,5,-1
 399 186 l 1,6,-1
 399 0 l 1,7,-1
 -23 0 l 1,8,-1
 -23 186 l 1,9,-1
 90 186 l 1,10,-1
 344 659 l 1,11,-1
 94 1118 l 1,12,-1
 0 1118 l 1,13,-1
 0 1305 l 1,14,-1
 414 1305 l 1,15,-1
 414 1118 l 1,16,-1
 330 1118 l 1,17,-1
 463 829 l 1,18,-1
 598 1118 l 1,19,-1
 516 1118 l 1,20,-1
 516 1305 l 1,21,-1
 932 1305 l 1,22,-1
 932 1118 l 1,23,-1
 831 1118 l 1,24,-1
 582 659 l 1,25,-1
 836 186 l 1,26,-1
 952 186 l 1,27,-1
 952 0 l 1,0,-1
EndSplineSet
EndChar

StartChar: Psi
Encoding: 936 936 407
Width: 1118
VWidth: 2048
Flags: W
LayerCount: 2
Fore
SplineSet
932 856 m 2,0,1
 932 729 932 729 907.5 636 c 128,-1,2
 883 543 883 543 835.5 478.5 c 128,-1,3
 788 414 788 414 720.5 376 c 128,-1,4
 653 338 653 338 569 326 c 1,5,-1
 569 0 l 1,6,-1
 362 0 l 1,7,-1
 362 326 l 1,8,9
 193 352 193 352 96.5 479 c 128,-1,10
 0 606 0 606 0 856 c 2,11,-1
 0 1305 l 1,12,-1
 207 1305 l 1,13,-1
 207 856 l 2,14,15
 207 731 207 731 243 642 c 128,-1,16
 279 553 279 553 362 518 c 1,17,-1
 362 1305 l 1,18,-1
 569 1305 l 1,19,-1
 569 518 l 1,20,21
 653 553 653 553 690 641 c 128,-1,22
 727 729 727 729 727 856 c 2,23,-1
 727 1305 l 1,24,-1
 932 1305 l 1,25,-1
 932 856 l 2,0,1
EndSplineSet
EndChar

StartChar: alpha
Encoding: 945 945 415
Width: 1118
VWidth: 2048
Flags: W
LayerCount: 2
Fore
SplineSet
186 465 m 256,0,1
 186 412 186 412 197.5 358.5 c 128,-1,2
 209 305 209 305 233.5 262 c 128,-1,3
 258 219 258 219 295 191.5 c 128,-1,4
 332 164 332 164 385 164 c 0,5,6
 430 164 430 164 467 191.5 c 128,-1,7
 504 219 504 219 532.5 262 c 128,-1,8
 561 305 561 305 581.5 358.5 c 128,-1,9
 602 412 602 412 618 465 c 1,10,11
 602 518 602 518 581.5 572.5 c 128,-1,12
 561 627 561 627 532.5 670 c 128,-1,13
 504 713 504 713 467 740.5 c 128,-1,14
 430 768 430 768 385 768 c 0,15,16
 332 768 332 768 295 740.5 c 128,-1,17
 258 713 258 713 233.5 670 c 128,-1,18
 209 627 209 627 197.5 572.5 c 128,-1,19
 186 518 186 518 186 465 c 256,0,1
-20 465 m 256,20,21
 -20 559 -20 559 4.5 647 c 128,-1,22
 29 735 29 735 79 803.5 c 128,-1,23
 129 872 129 872 204 913 c 128,-1,24
 279 954 279 954 379 954 c 0,25,26
 500 954 500 954 569.5 898 c 128,-1,27
 639 842 639 842 686 733 c 1,28,-1
 729 932 l 1,29,-1
 938 932 l 1,30,-1
 807 465 l 1,31,-1
 938 0 l 1,32,-1
 729 0 l 1,33,-1
 686 197 l 1,34,35
 639 88 639 88 569.5 32.5 c 128,-1,36
 500 -23 500 -23 379 -23 c 0,37,38
 279 -23 279 -23 204 18 c 128,-1,39
 129 59 129 59 79 127 c 128,-1,40
 29 195 29 195 4.5 283 c 128,-1,41
 -20 371 -20 371 -20 465 c 256,20,21
EndSplineSet
EndChar

StartChar: beta
Encoding: 946 946 416
Width: 1118
VWidth: 2048
Flags: W
LayerCount: 2
Fore
SplineSet
535 -23 m 0,0,1
 446 -23 446 -23 380.5 1 c 128,-1,2
 315 25 315 25 256 74 c 1,3,-1
 256 -373 l 1,4,-1
 49 -373 l 1,5,-1
 49 926 l 2,6,7
 49 1014 49 1014 82 1088.5 c 128,-1,8
 115 1163 115 1163 171 1215.5 c 128,-1,9
 227 1268 227 1268 305 1297.5 c 128,-1,10
 383 1327 383 1327 473 1327 c 0,11,12
 569 1327 569 1327 646 1296.5 c 128,-1,13
 723 1266 723 1266 775 1216.5 c 128,-1,14
 827 1167 827 1167 855 1104.5 c 128,-1,15
 883 1042 883 1042 883 979 c 0,16,17
 883 874 883 874 824.5 791.5 c 128,-1,18
 766 709 766 709 657 672 c 1,19,20
 791 631 791 631 865.5 551 c 128,-1,21
 940 471 940 471 940 348 c 0,22,23
 940 266 940 266 910.5 198.5 c 128,-1,24
 881 131 881 131 826.5 82 c 128,-1,25
 772 33 772 33 697.5 5 c 128,-1,26
 623 -23 623 -23 535 -23 c 0,0,1
498 164 m 0,27,28
 610 164 610 164 671.5 217 c 128,-1,29
 733 270 733 270 733 365 c 0,30,31
 733 459 733 459 668.5 515 c 128,-1,32
 604 571 604 571 471 571 c 2,33,-1
 373 571 l 1,34,-1
 373 758 l 1,35,-1
 465 758 l 2,36,37
 578 758 578 758 627 814 c 128,-1,38
 676 870 676 870 676 956 c 0,39,40
 676 985 676 985 665.5 1018 c 128,-1,41
 655 1051 655 1051 630.5 1078.5 c 128,-1,42
 606 1106 606 1106 567 1123.5 c 128,-1,43
 528 1141 528 1141 473 1141 c 0,44,45
 432 1141 432 1141 393 1127.5 c 128,-1,46
 354 1114 354 1114 323.5 1087.5 c 128,-1,47
 293 1061 293 1061 274.5 1021 c 128,-1,48
 256 981 256 981 256 926 c 2,49,-1
 256 274 l 1,50,51
 342 164 342 164 498 164 c 0,27,28
EndSplineSet
EndChar

StartChar: gamma
Encoding: 947 947 417
Width: 1118
VWidth: 2048
Flags: W
LayerCount: 2
Fore
SplineSet
899 932 m 1,0,1
 883 813 883 813 856 688 c 128,-1,2
 829 563 829 563 789.5 440 c 128,-1,3
 750 317 750 317 693.5 199.5 c 128,-1,4
 637 82 637 82 559 -25 c 1,5,-1
 559 -373 l 1,6,-1
 354 -373 l 1,7,-1
 354 -25 l 1,8,-1
 0 932 l 1,9,-1
 221 932 l 1,10,-1
 479 193 l 1,11,12
 565 338 565 338 611 527.5 c 128,-1,13
 657 717 657 717 682 932 c 1,14,-1
 899 932 l 1,0,1
EndSplineSet
EndChar

StartChar: delta
Encoding: 948 948 418
Width: 1118
VWidth: 2048
Flags: W
LayerCount: 2
Fore
SplineSet
39 406 m 0,0,1
 39 514 39 514 108.5 624.5 c 128,-1,2
 178 735 178 735 326 827 c 1,3,4
 270 870 270 870 233.5 923.5 c 128,-1,5
 197 977 197 977 197 1057 c 0,6,7
 197 1112 197 1112 217.5 1161 c 128,-1,8
 238 1210 238 1210 276.5 1247 c 128,-1,9
 315 1284 315 1284 373.5 1305.5 c 128,-1,10
 432 1327 432 1327 506 1327 c 256,11,12
 580 1327 580 1327 644.5 1310.5 c 128,-1,13
 709 1294 709 1294 770 1253 c 1,14,-1
 684 1098 l 1,15,16
 637 1130 637 1130 589 1143.5 c 128,-1,17
 541 1157 541 1157 506 1157 c 0,18,19
 459 1157 459 1157 429 1133.5 c 128,-1,20
 399 1110 399 1110 399 1069 c 0,21,22
 399 1022 399 1022 436 983 c 128,-1,23
 473 944 473 944 527.5 905 c 128,-1,24
 582 866 582 866 646.5 822 c 128,-1,25
 711 778 711 778 765 720 c 128,-1,26
 819 662 819 662 856 585 c 128,-1,27
 893 508 893 508 893 406 c 0,28,29
 893 309 893 309 862 231.5 c 128,-1,30
 831 154 831 154 775 96.5 c 128,-1,31
 719 39 719 39 640 8 c 128,-1,32
 561 -23 561 -23 463 -23 c 0,33,34
 367 -23 367 -23 288 8 c 128,-1,35
 209 39 209 39 153.5 96.5 c 128,-1,36
 98 154 98 154 68.5 231.5 c 128,-1,37
 39 309 39 309 39 406 c 0,0,1
686 406 m 0,38,39
 686 463 686 463 669.5 510 c 128,-1,40
 653 557 653 557 625.5 594 c 128,-1,41
 598 631 598 631 561 661.5 c 128,-1,42
 524 692 524 692 485 719 c 1,43,44
 360 651 360 651 303 574.5 c 128,-1,45
 246 498 246 498 246 403 c 0,46,47
 246 299 246 299 305.5 231.5 c 128,-1,48
 365 164 365 164 463 164 c 0,49,50
 571 164 571 164 628.5 231.5 c 128,-1,51
 686 299 686 299 686 406 c 0,38,39
EndSplineSet
EndChar

StartChar: epsilon
Encoding: 949 949 419
Width: 1118
VWidth: 2048
Flags: W
LayerCount: 2
Fore
SplineSet
2 676 m 0,0,1
 2 739 2 739 37 791.5 c 128,-1,2
 72 844 72 844 132.5 879.5 c 128,-1,3
 193 915 193 915 275.5 934.5 c 128,-1,4
 358 954 358 954 455 954 c 0,5,6
 608 954 608 954 708.5 904 c 128,-1,7
 809 854 809 854 870 754 c 1,8,-1
 719 649 l 1,9,10
 643 768 643 768 453 768 c 0,11,12
 342 768 342 768 275.5 738.5 c 128,-1,13
 209 709 209 709 209 659 c 0,14,15
 209 625 209 625 261 598 c 128,-1,16
 313 571 313 571 418 571 c 2,17,-1
 614 571 l 1,18,-1
 614 385 l 1,19,-1
 416 385 l 2,20,21
 311 385 311 385 259 352 c 128,-1,22
 207 319 207 319 207 281 c 0,23,24
 207 227 207 227 277.5 195.5 c 128,-1,25
 348 164 348 164 463 164 c 0,26,27
 561 164 561 164 634 197.5 c 128,-1,28
 707 231 707 231 735 285 c 1,29,-1
 897 176 l 1,30,31
 834 76 834 76 730.5 26.5 c 128,-1,32
 627 -23 627 -23 467 -23 c 0,33,34
 367 -23 367 -23 282 -3.5 c 128,-1,35
 197 16 197 16 134.5 53 c 128,-1,36
 72 90 72 90 36 143.5 c 128,-1,37
 0 197 0 197 0 264 c 0,38,39
 0 336 0 336 56.5 395.5 c 128,-1,40
 113 455 113 455 205 473 c 1,41,42
 106 489 106 489 54 548.5 c 128,-1,43
 2 608 2 608 2 676 c 0,0,1
EndSplineSet
EndChar

StartChar: zeta
Encoding: 950 950 420
Width: 1118
VWidth: 2048
Flags: W
LayerCount: 2
Fore
SplineSet
549 2 m 0,0,1
 291 14 291 14 145.5 131 c 128,-1,2
 0 248 0 248 0 475 c 0,3,4
 0 588 0 588 44 682 c 128,-1,5
 88 776 88 776 167 856 c 128,-1,6
 246 936 246 936 352.5 1000.5 c 128,-1,7
 459 1065 459 1065 584 1118 c 1,8,-1
 186 1118 l 1,9,-1
 186 1305 l 1,10,-1
 932 1305 l 1,11,-1
 932 1118 l 1,12,13
 731 1059 731 1059 593 987 c 128,-1,14
 455 915 455 915 369 832.5 c 128,-1,15
 283 750 283 750 245 659.5 c 128,-1,16
 207 569 207 569 207 475 c 0,17,18
 207 201 207 201 573 180 c 0,19,20
 748 170 748 170 831.5 96.5 c 128,-1,21
 915 23 915 23 915 -94 c 0,22,23
 915 -145 915 -145 897 -194.5 c 128,-1,24
 879 -244 879 -244 840 -283 c 128,-1,25
 801 -322 801 -322 741.5 -346.5 c 128,-1,26
 682 -371 682 -371 602 -373 c 1,27,-1
 578 -195 l 1,28,29
 649 -186 649 -186 679 -161.5 c 128,-1,30
 709 -137 709 -137 709 -94 c 0,31,32
 709 -45 709 -45 665 -23.5 c 128,-1,33
 621 -2 621 -2 549 2 c 0,0,1
EndSplineSet
EndChar

StartChar: eta
Encoding: 951 951 421
Width: 1118
VWidth: 2048
Flags: W
LayerCount: 2
Fore
SplineSet
350 774 m 1,0,1
 373 852 373 852 445.5 903 c 128,-1,2
 518 954 518 954 606 954 c 0,3,4
 750 954 750 954 816.5 861 c 128,-1,5
 883 768 883 768 883 578 c 2,6,-1
 883 -373 l 1,7,-1
 676 -373 l 1,8,-1
 676 578 l 2,9,10
 676 692 676 692 643 730 c 128,-1,11
 610 768 610 768 559 768 c 0,12,13
 473 768 473 768 423 694.5 c 128,-1,14
 373 621 373 621 373 479 c 2,15,-1
 373 0 l 1,16,-1
 166 0 l 1,17,-1
 166 682 l 2,18,19
 166 725 166 725 143.5 746.5 c 128,-1,20
 121 768 121 768 86 768 c 0,21,22
 66 768 66 768 51.5 765 c 128,-1,23
 37 762 37 762 20 758 c 1,24,-1
 -20 926 l 1,25,26
 12 940 12 940 57 947 c 128,-1,27
 102 954 102 954 147 954 c 0,28,29
 186 954 186 954 222 943 c 128,-1,30
 258 932 258 932 285.5 910.5 c 128,-1,31
 313 889 313 889 330.5 854 c 128,-1,32
 348 819 348 819 350 774 c 1,0,1
EndSplineSet
EndChar

StartChar: theta
Encoding: 952 952 422
Width: 1118
VWidth: 2048
Flags: W
LayerCount: 2
Fore
SplineSet
895 651 m 0,0,1
 895 502 895 502 870.5 378 c 128,-1,2
 846 254 846 254 794.5 165 c 128,-1,3
 743 76 743 76 661.5 26.5 c 128,-1,4
 580 -23 580 -23 467 -23 c 0,5,6
 352 -23 352 -23 272.5 26.5 c 128,-1,7
 193 76 193 76 140.5 165 c 128,-1,8
 88 254 88 254 64.5 378 c 128,-1,9
 41 502 41 502 41 651 c 0,10,11
 41 799 41 799 64.5 923 c 128,-1,12
 88 1047 88 1047 140.5 1137 c 128,-1,13
 193 1227 193 1227 272.5 1277 c 128,-1,14
 352 1327 352 1327 467 1327 c 256,15,16
 582 1327 582 1327 662.5 1277 c 128,-1,17
 743 1227 743 1227 795.5 1138 c 128,-1,18
 848 1049 848 1049 871.5 924 c 128,-1,19
 895 799 895 799 895 651 c 0,0,1
467 164 m 256,20,21
 528 164 528 164 570 197.5 c 128,-1,22
 612 231 612 231 638 288.5 c 128,-1,23
 664 346 664 346 676 419 c 128,-1,24
 688 492 688 492 690 571 c 1,25,-1
 246 571 l 1,26,27
 248 492 248 492 260 419 c 128,-1,28
 272 346 272 346 298 288.5 c 128,-1,29
 324 231 324 231 365 197.5 c 128,-1,30
 406 164 406 164 467 164 c 256,20,21
467 1143 m 256,31,32
 408 1143 408 1143 367 1109 c 128,-1,33
 326 1075 326 1075 300 1021 c 128,-1,34
 274 967 274 967 262 898 c 128,-1,35
 250 829 250 829 248 758 c 1,36,-1
 688 758 l 1,37,38
 686 829 686 829 674 898 c 128,-1,39
 662 967 662 967 635 1021 c 128,-1,40
 608 1075 608 1075 567 1109 c 128,-1,41
 526 1143 526 1143 467 1143 c 256,31,32
EndSplineSet
EndChar

StartChar: iota
Encoding: 953 953 423
Width: 1118
VWidth: 2048
Flags: W
LayerCount: 2
Fore
SplineSet
782 14 m 1,0,1
 705 -23 705 -23 623 -23 c 0,2,3
 506 -23 506 -23 434 36.5 c 128,-1,4
 362 96 362 96 362 207 c 2,5,-1
 362 745 l 1,6,-1
 186 745 l 1,7,-1
 186 932 l 1,8,-1
 569 932 l 1,9,-1
 569 268 l 2,10,11
 569 201 569 201 595 180.5 c 128,-1,12
 621 160 621 160 662 160 c 0,13,14
 684 160 684 160 705.5 166 c 128,-1,15
 727 172 727 172 739 180 c 1,16,-1
 782 14 l 1,0,1
EndSplineSet
EndChar

StartChar: kappa
Encoding: 954 954 424
Width: 1118
VWidth: 2048
Flags: W
LayerCount: 2
Fore
SplineSet
930 0 m 1,0,-1
 662 0 l 1,1,-1
 350 377 l 1,2,-1
 256 281 l 1,3,-1
 256 0 l 1,4,-1
 49 0 l 1,5,-1
 49 932 l 1,6,-1
 256 932 l 1,7,-1
 256 537 l 1,8,-1
 629 932 l 1,9,-1
 913 932 l 1,10,-1
 483 504 l 1,11,-1
 930 0 l 1,0,-1
EndSplineSet
EndChar

StartChar: lambda
Encoding: 955 955 425
Width: 1118
VWidth: 2048
Flags: W
LayerCount: 2
Fore
SplineSet
715 -37 m 1,0,-1
 465 705 l 1,1,-1
 209 0 l 1,2,-1
 -6 0 l 1,3,-1
 350 956 l 1,4,-1
 313 1047 l 2,5,6
 279 1130 279 1130 186 1130 c 0,7,8
 158 1130 158 1130 122 1124 c 128,-1,9
 86 1118 86 1118 43 1102 c 1,10,-1
 0 1292 l 1,11,12
 51 1311 51 1311 98 1319 c 128,-1,13
 145 1327 145 1327 186 1327 c 0,14,15
 305 1327 305 1327 392 1281 c 128,-1,16
 479 1235 479 1235 522 1114 c 2,17,-1
 911 31 l 1,18,-1
 715 -37 l 1,0,-1
EndSplineSet
EndChar

StartChar: uni03BC
Encoding: 956 956 426
Width: 1118
VWidth: 2048
Flags: W
LayerCount: 2
Fore
SplineSet
631 160 m 1,0,1
 614 82 614 82 568 29.5 c 128,-1,2
 522 -23 522 -23 436 -23 c 0,3,4
 360 -23 360 -23 319.5 10 c 128,-1,5
 279 43 279 43 256 96 c 1,6,-1
 256 -373 l 1,7,-1
 49 -373 l 1,8,-1
 49 932 l 1,9,-1
 256 932 l 1,10,-1
 256 348 l 2,11,12
 256 295 256 295 266 259 c 128,-1,13
 276 223 276 223 294.5 201.5 c 128,-1,14
 313 180 313 180 340 172 c 128,-1,15
 367 164 367 164 397 164 c 0,16,17
 463 164 463 164 511 229.5 c 128,-1,18
 559 295 559 295 559 401 c 2,19,-1
 559 932 l 1,20,-1
 766 932 l 1,21,-1
 766 250 l 2,22,23
 766 203 766 203 788.5 183.5 c 128,-1,24
 811 164 811 164 846 164 c 256,25,26
 881 164 881 164 913 178 c 1,27,-1
 940 2 l 1,28,29
 920 -8 920 -8 892 -15.5 c 128,-1,30
 864 -23 864 -23 813 -23 c 0,31,32
 782 -23 782 -23 751.5 -11.5 c 128,-1,33
 721 0 721 0 694.5 22.5 c 128,-1,34
 668 45 668 45 650.5 79 c 128,-1,35
 633 113 633 113 631 160 c 1,0,1
EndSplineSet
EndChar

StartChar: nu
Encoding: 957 957 427
Width: 1118
VWidth: 2048
Flags: W
LayerCount: 2
Fore
SplineSet
350 0 m 1,0,-1
 0 932 l 1,1,-1
 221 932 l 1,2,-1
 475 217 l 1,3,4
 561 362 561 362 605 539.5 c 128,-1,5
 649 717 649 717 674 932 c 1,6,-1
 891 932 l 1,7,8
 874 813 874 813 848.5 692 c 128,-1,9
 823 571 823 571 784 452.5 c 128,-1,10
 745 334 745 334 689 220 c 128,-1,11
 633 106 633 106 555 0 c 1,12,-1
 350 0 l 1,0,-1
EndSplineSet
EndChar

